<svg width="48" height="64" viewBox="0 0 48 64" fill="none" xmlns="http://www.w3.org/2000/svg">
<rect width="48" height="48" rx="24" fill="#F3F4F1"/>
<path d="M24 26.5C23.1667 26.5 22.4583 26.2083 21.875 25.625C21.2917 25.0417 21 24.3333 21 23.5V17.5C21 16.6667 21.2917 15.9583 21.875 15.375C22.4583 14.7917 23.1667 14.5 24 14.5C24.8333 14.5 25.5417 14.7917 26.125 15.375C26.7083 15.9583 27 16.6667 27 17.5V23.5C27 24.3333 26.7083 25.0417 26.125 25.625C25.5417 26.2083 24.8333 26.5 24 26.5ZM23 33.5V30.425C21.2667 30.1917 19.8333 29.4167 18.7 28.1C17.5667 26.7833 17 25.25 17 23.5H19C19 24.8833 19.4875 26.0625 20.4625 27.0375C21.4375 28.0125 22.6167 28.5 24 28.5C25.3833 28.5 26.5625 28.0125 27.5375 27.0375C28.5125 26.0625 29 24.8833 29 23.5H31C31 25.25 30.4333 26.7833 29.3 28.1C28.1667 29.4167 26.7333 30.1917 25 30.425V33.5H23ZM24 24.5C24.2833 24.5 24.5208 24.4042 24.7125 24.2125C24.9042 24.0208 25 23.7833 25 23.5V17.5C25 17.2167 24.9042 16.9792 24.7125 16.7875C24.5208 16.5958 24.2833 16.5 24 16.5C23.7167 16.5 23.4792 16.5958 23.2875 16.7875C23.0958 16.9792 23 17.2167 23 17.5V23.5C23 23.7833 23.0958 24.0208 23.2875 24.2125C23.4792 24.4042 23.7167 24.5 24 24.5Z" fill="#5F5E5E"/>
</svg>
