<svg width="423" height="174" viewBox="0 0 423 174" fill="none" xmlns="http://www.w3.org/2000/svg">
<rect width="423" height="174" rx="32" fill="#F3F4F1"/>
<path d="M50 40L48.75 37.25L46 36L48.75 34.75L50 32L51.25 34.75L54 36L51.25 37.25L50 40ZM50 54L48.75 51.25L46 50L48.75 48.75L50 46L51.25 48.75L54 50L51.25 51.25L50 54ZM40 51L37.5 45.5L32 43L37.5 40.5L40 35L42.5 40.5L48 43L42.5 45.5L40 51ZM40 46.15L41 44L43.15 43L41 42L40 39.85L39 42L36.85 43L39 44L40 46.15Z" fill="#5F5E5E"/>
<path d="M32.8849 85V74.8182H35.0376V83.2251H39.4027V85H32.8849ZM42.981 74.8182V85H40.8283V74.8182H42.981ZM46.5916 74.8182L49.0526 82.554H49.147L51.6129 74.8182H53.9993L50.4893 85H47.7152L44.2003 74.8182H46.5916ZM55.2248 85V74.8182H62.0856V76.593H57.3775V79.0192H61.7326V80.794H57.3775V83.2251H62.1055V85H55.2248ZM68.7923 85H66.4854L70.0004 74.8182H72.7745L76.2844 85H73.9776L71.4272 77.1449H71.3477L68.7923 85ZM68.6481 80.9979H74.0969V82.6783H68.6481V80.9979ZM79.6626 74.8182V85H77.5099V74.8182H79.6626ZM93.6577 78.3828H91.4801C91.4403 78.1011 91.3591 77.8509 91.2365 77.6321C91.1139 77.41 90.9564 77.2211 90.7642 77.0653C90.572 76.9096 90.3499 76.7902 90.098 76.7074C89.8494 76.6245 89.5793 76.5831 89.2876 76.5831C88.7607 76.5831 88.3016 76.714 87.9105 76.9759C87.5194 77.2344 87.2161 77.6122 87.0007 78.1094C86.7853 78.6032 86.6776 79.2031 86.6776 79.9091C86.6776 80.6349 86.7853 81.2448 87.0007 81.7386C87.2195 82.2325 87.5244 82.6054 87.9155 82.8572C88.3066 83.1091 88.759 83.2351 89.2727 83.2351C89.5611 83.2351 89.8279 83.197 90.0732 83.1207C90.3217 83.0445 90.5421 82.9335 90.7344 82.7876C90.9266 82.6385 91.0857 82.4579 91.2116 82.2457C91.3409 82.0336 91.4304 81.7917 91.4801 81.5199L93.6577 81.5298C93.6013 81.9972 93.4605 82.4479 93.2351 82.8821C93.013 83.313 92.7131 83.6991 92.3352 84.0405C91.9607 84.3786 91.5133 84.647 90.9929 84.8459C90.4759 85.0414 89.8909 85.1392 89.2379 85.1392C88.3298 85.1392 87.5178 84.9337 86.8018 84.5227C86.0893 84.1117 85.5258 83.5168 85.1115 82.7379C84.7005 81.959 84.495 81.0161 84.495 79.9091C84.495 78.7988 84.7038 77.8542 85.1214 77.0753C85.5391 76.2964 86.1058 75.7031 86.8217 75.2955C87.5376 74.8845 88.343 74.679 89.2379 74.679C89.8279 74.679 90.3748 74.7618 90.8786 74.9276C91.3857 75.0933 91.8348 75.3352 92.2259 75.6534C92.617 75.9683 92.9351 76.3544 93.1804 76.8118C93.429 77.2692 93.5881 77.7929 93.6577 78.3828ZM98.6119 85.1491C97.8396 85.1491 97.1718 84.9851 96.6083 84.657C96.0482 84.3255 95.6156 83.8648 95.3107 83.2749C95.0058 82.6816 94.8533 81.9938 94.8533 81.2116C94.8533 80.4228 95.0058 79.7334 95.3107 79.1435C95.6156 78.5502 96.0482 78.0895 96.6083 77.7614C97.1718 77.4299 97.8396 77.2642 98.6119 77.2642C99.3841 77.2642 100.05 77.4299 100.61 77.7614C101.174 78.0895 101.608 78.5502 101.913 79.1435C102.218 79.7334 102.37 80.4228 102.37 81.2116C102.37 81.9938 102.218 82.6816 101.913 83.2749C101.608 83.8648 101.174 84.3255 100.61 84.657C100.05 84.9851 99.3841 85.1491 98.6119 85.1491ZM98.6218 83.5085C98.9731 83.5085 99.2665 83.4091 99.5018 83.2102C99.7371 83.008 99.9144 82.733 100.034 82.3849C100.156 82.0369 100.218 81.6409 100.218 81.1967C100.218 80.7526 100.156 80.3565 100.034 80.0085C99.9144 79.6605 99.7371 79.3854 99.5018 79.1832C99.2665 78.9811 98.9731 78.88 98.6218 78.88C98.2672 78.88 97.9689 78.9811 97.7269 79.1832C97.4883 79.3854 97.3076 79.6605 97.185 80.0085C97.0657 80.3565 97.006 80.7526 97.006 81.1967C97.006 81.6409 97.0657 82.0369 97.185 82.3849C97.3076 82.733 97.4883 83.008 97.7269 83.2102C97.9689 83.4091 98.2672 83.5085 98.6218 83.5085ZM108.645 81.7486V77.3636H110.762V85H108.729V83.6129H108.65C108.477 84.0604 108.19 84.42 107.789 84.6918C107.392 84.9635 106.906 85.0994 106.333 85.0994C105.822 85.0994 105.373 84.9834 104.985 84.7514C104.598 84.5194 104.294 84.1896 104.076 83.7621C103.86 83.3345 103.751 82.8224 103.748 82.2259V77.3636H105.865V81.848C105.869 82.2988 105.99 82.6551 106.228 82.9169C106.467 83.1787 106.787 83.3097 107.188 83.3097C107.443 83.3097 107.682 83.2517 107.904 83.1357C108.126 83.0163 108.305 82.8407 108.441 82.6087C108.58 82.3767 108.648 82.09 108.645 81.7486ZM112.456 85V77.3636H114.51V78.696H114.589C114.729 78.2221 114.962 77.8641 115.29 77.6222C115.618 77.3769 115.996 77.2543 116.424 77.2543C116.53 77.2543 116.644 77.2609 116.767 77.2741C116.89 77.2874 116.997 77.3056 117.09 77.3288V79.2081C116.991 79.1783 116.853 79.1518 116.677 79.1286C116.502 79.1054 116.341 79.0938 116.195 79.0938C115.884 79.0938 115.605 79.1617 115.36 79.2976C115.118 79.4302 114.926 79.6158 114.783 79.8544C114.644 80.093 114.574 80.3681 114.574 80.6797V85H112.456ZM124.539 79.5412L122.6 79.6605C122.567 79.4948 122.495 79.3456 122.386 79.2131C122.277 79.0772 122.132 78.9695 121.953 78.8899C121.778 78.8071 121.567 78.7656 121.322 78.7656C120.994 78.7656 120.717 78.8352 120.492 78.9744C120.266 79.1103 120.154 79.2926 120.154 79.5213C120.154 79.7036 120.227 79.8577 120.373 79.9837C120.518 80.1096 120.769 80.2107 121.123 80.2869L122.505 80.5653C123.248 80.7178 123.801 80.9631 124.166 81.3011C124.53 81.6392 124.713 82.0833 124.713 82.6335C124.713 83.134 124.565 83.5732 124.27 83.951C123.979 84.3288 123.578 84.6238 123.067 84.8359C122.56 85.0447 121.975 85.1491 121.312 85.1491C120.301 85.1491 119.496 84.9387 118.896 84.5178C118.299 84.0935 117.95 83.5168 117.847 82.7876L119.93 82.6783C119.993 82.9865 120.145 83.2218 120.387 83.3842C120.629 83.5433 120.939 83.6229 121.317 83.6229C121.688 83.6229 121.987 83.5516 122.212 83.4091C122.441 83.2633 122.557 83.076 122.56 82.8473C122.557 82.6551 122.475 82.4976 122.316 82.375C122.157 82.2491 121.912 82.1529 121.581 82.0866L120.258 81.8232C119.512 81.674 118.957 81.4155 118.593 81.0476C118.231 80.6797 118.051 80.2107 118.051 79.6406C118.051 79.1501 118.183 78.7275 118.449 78.3729C118.717 78.0182 119.093 77.7448 119.577 77.5526C120.064 77.3603 120.634 77.2642 121.287 77.2642C122.252 77.2642 123.011 77.468 123.564 77.8757C124.121 78.2834 124.446 78.8385 124.539 79.5412ZM129.526 85.1491C128.741 85.1491 128.065 84.9901 127.498 84.6719C126.935 84.3504 126.5 83.8963 126.195 83.3097C125.891 82.7197 125.738 82.022 125.738 81.2166C125.738 80.4311 125.891 79.7417 126.195 79.1484C126.5 78.5552 126.93 78.0928 127.483 77.7614C128.04 77.4299 128.693 77.2642 129.442 77.2642C129.946 77.2642 130.415 77.3454 130.849 77.5078C131.286 77.6669 131.668 77.9072 131.992 78.2287C132.32 78.5502 132.576 78.9545 132.758 79.4418C132.94 79.9257 133.031 80.4924 133.031 81.142V81.7237H126.583V80.4112H131.038C131.038 80.1063 130.972 79.8362 130.839 79.6009C130.706 79.3655 130.522 79.1816 130.287 79.049C130.055 78.9131 129.785 78.8452 129.477 78.8452C129.155 78.8452 128.87 78.9197 128.622 79.0689C128.376 79.2147 128.184 79.4119 128.045 79.6605C127.906 79.9058 127.834 80.1792 127.831 80.4808V81.7287C127.831 82.1065 127.901 82.433 128.04 82.7081C128.182 82.9832 128.383 83.1953 128.642 83.3445C128.9 83.4936 129.207 83.5682 129.561 83.5682C129.797 83.5682 130.012 83.535 130.208 83.4688C130.403 83.4025 130.57 83.303 130.71 83.1705C130.849 83.0379 130.955 82.8755 131.028 82.6832L132.987 82.8125C132.887 83.2831 132.683 83.6941 132.375 84.0455C132.07 84.3935 131.676 84.6652 131.192 84.8608C130.711 85.053 130.156 85.1491 129.526 85.1491ZM140.767 79.5412L138.828 79.6605C138.795 79.4948 138.724 79.3456 138.615 79.2131C138.505 79.0772 138.361 78.9695 138.182 78.8899C138.006 78.8071 137.796 78.7656 137.551 78.7656C137.222 78.7656 136.946 78.8352 136.72 78.9744C136.495 79.1103 136.382 79.2926 136.382 79.5213C136.382 79.7036 136.455 79.8577 136.601 79.9837C136.747 80.1096 136.997 80.2107 137.352 80.2869L138.734 80.5653C139.476 80.7178 140.03 80.9631 140.394 81.3011C140.759 81.6392 140.941 82.0833 140.941 82.6335C140.941 83.134 140.794 83.5732 140.499 83.951C140.207 84.3288 139.806 84.6238 139.296 84.8359C138.789 85.0447 138.204 85.1491 137.541 85.1491C136.53 85.1491 135.724 84.9387 135.124 84.5178C134.528 84.0935 134.178 83.5168 134.075 82.7876L136.159 82.6783C136.222 82.9865 136.374 83.2218 136.616 83.3842C136.858 83.5433 137.168 83.6229 137.546 83.6229C137.917 83.6229 138.215 83.5516 138.441 83.4091C138.669 83.2633 138.785 83.076 138.789 82.8473C138.785 82.6551 138.704 82.4976 138.545 82.375C138.386 82.2491 138.141 82.1529 137.809 82.0866L136.487 81.8232C135.741 81.674 135.186 81.4155 134.821 81.0476C134.46 80.6797 134.279 80.2107 134.279 79.6406C134.279 79.1501 134.412 78.7275 134.677 78.3729C134.945 78.0182 135.322 77.7448 135.806 77.5526C136.293 77.3603 136.863 77.2642 137.516 77.2642C138.48 77.2642 139.239 77.468 139.793 77.8757C140.35 78.2834 140.674 78.8385 140.767 79.5412Z" fill="#2F3331"/>
<path d="M33.4148 106H32.3068L35.5114 97.2727H36.6023L39.8068 106H38.6989L36.0909 98.6534H36.0227L33.4148 106ZM33.8239 102.591H38.2898V103.528H33.8239V102.591ZM42.223 97.2727V106H41.1662V97.2727H42.223ZM49.0636 106L47.0692 99.4545H48.1261L49.5408 104.466H49.609L51.0067 99.4545H52.0806L53.4613 104.449H53.5295L54.9442 99.4545H56.0011L54.0067 106H53.0181L51.5863 100.972H51.484L50.0522 106H49.0636ZM57.3306 106V99.4545H58.3363V106H57.3306ZM57.842 98.3636C57.646 98.3636 57.4769 98.2969 57.3349 98.1634C57.1957 98.0298 57.1261 97.8693 57.1261 97.6818C57.1261 97.4943 57.1957 97.3338 57.3349 97.2003C57.4769 97.0668 57.646 97 57.842 97C58.038 97 58.2056 97.0668 58.3448 97.2003C58.4869 97.3338 58.5579 97.4943 58.5579 97.6818C58.5579 97.8693 58.4869 98.0298 58.3448 98.1634C58.2056 98.2969 58.038 98.3636 57.842 98.3636ZM63.0249 99.4545V100.307H59.6328V99.4545H63.0249ZM60.6214 97.8864H61.6271V104.125C61.6271 104.409 61.6683 104.622 61.7507 104.764C61.8359 104.903 61.9439 104.997 62.0746 105.045C62.2081 105.091 62.3487 105.114 62.4964 105.114C62.6072 105.114 62.6982 105.108 62.7692 105.097C62.8402 105.082 62.897 105.071 62.9396 105.062L63.1442 105.966C63.076 105.991 62.9808 106.017 62.8587 106.043C62.7365 106.071 62.5817 106.085 62.3942 106.085C62.1101 106.085 61.8317 106.024 61.5589 105.902C61.2891 105.78 61.0646 105.594 60.8857 105.344C60.7095 105.094 60.6214 104.778 60.6214 104.398V97.8864ZM65.6839 102.062V106H64.6783V97.2727H65.6839V100.477H65.7692C65.9226 100.139 66.1527 99.8707 66.4595 99.6719C66.7692 99.4702 67.1811 99.3693 67.6953 99.3693C68.1413 99.3693 68.532 99.4588 68.8672 99.6378C69.2024 99.8139 69.4624 100.085 69.647 100.452C69.8345 100.815 69.9283 101.278 69.9283 101.841V106H68.9226V101.909C68.9226 101.389 68.7876 100.987 68.5178 100.703C68.2507 100.416 67.88 100.273 67.4055 100.273C67.076 100.273 66.7805 100.342 66.5192 100.482C66.2607 100.621 66.0561 100.824 65.9055 101.091C65.7578 101.358 65.6839 101.682 65.6839 102.062ZM75.7908 108.455C75.6204 108.455 75.4684 108.44 75.3349 108.412C75.2013 108.386 75.109 108.361 75.0579 108.335L75.3136 107.449C75.5579 107.511 75.7738 107.534 75.9613 107.517C76.1488 107.5 76.315 107.416 76.4599 107.266C76.6076 107.118 76.7425 106.878 76.8647 106.545L77.0522 106.034L74.6317 99.4545H75.7227L77.5295 104.67H77.5977L79.4045 99.4545H80.4954L77.717 106.955C77.592 107.293 77.4371 107.572 77.2525 107.794C77.0678 108.018 76.8533 108.185 76.609 108.293C76.3675 108.401 76.0948 108.455 75.7908 108.455ZM84.2475 106.136C83.6566 106.136 83.1381 105.996 82.6921 105.714C82.2489 105.433 81.9023 105.04 81.6523 104.534C81.4052 104.028 81.2816 103.437 81.2816 102.761C81.2816 102.08 81.4052 101.484 81.6523 100.976C81.9023 100.467 82.2489 100.072 82.6921 99.7912C83.1381 99.5099 83.6566 99.3693 84.2475 99.3693C84.8384 99.3693 85.3555 99.5099 85.7987 99.7912C86.2447 100.072 86.5913 100.467 86.8384 100.976C87.0884 101.484 87.2134 102.08 87.2134 102.761C87.2134 103.437 87.0884 104.028 86.8384 104.534C86.5913 105.04 86.2447 105.433 85.7987 105.714C85.3555 105.996 84.8384 106.136 84.2475 106.136ZM84.2475 105.233C84.6964 105.233 85.0657 105.118 85.3555 104.888C85.6452 104.658 85.8597 104.355 85.9989 103.98C86.1381 103.605 86.2077 103.199 86.2077 102.761C86.2077 102.324 86.1381 101.916 85.9989 101.538C85.8597 101.161 85.6452 100.855 85.3555 100.622C85.0657 100.389 84.6964 100.273 84.2475 100.273C83.7987 100.273 83.4293 100.389 83.1396 100.622C82.8498 100.855 82.6353 101.161 82.4961 101.538C82.3569 101.916 82.2873 102.324 82.2873 102.761C82.2873 103.199 82.3569 103.605 82.4961 103.98C82.6353 104.355 82.8498 104.658 83.1396 104.888C83.4293 105.118 83.7987 105.233 84.2475 105.233ZM92.8736 103.324V99.4545H93.8793V106H92.8736V104.892H92.8054C92.652 105.224 92.4134 105.507 92.0895 105.74C91.7656 105.97 91.3565 106.085 90.8622 106.085C90.4531 106.085 90.0895 105.996 89.7713 105.817C89.4531 105.635 89.2031 105.362 89.0213 104.999C88.8395 104.632 88.7486 104.17 88.7486 103.614V99.4545H89.7543V103.545C89.7543 104.023 89.8878 104.403 90.1548 104.688C90.4247 104.972 90.7685 105.114 91.1861 105.114C91.4361 105.114 91.6903 105.05 91.9489 104.922C92.2102 104.794 92.429 104.598 92.6051 104.334C92.7841 104.07 92.8736 103.733 92.8736 103.324ZM95.7212 106V99.4545H96.6928V100.443H96.761C96.8803 100.119 97.0962 99.8565 97.4087 99.6548C97.7212 99.4531 98.0735 99.3523 98.4656 99.3523C98.5394 99.3523 98.6317 99.3537 98.7425 99.3565C98.8533 99.3594 98.9371 99.3636 98.994 99.3693V100.392C98.9599 100.384 98.8817 100.371 98.7596 100.354C98.6403 100.334 98.5138 100.324 98.3803 100.324C98.0621 100.324 97.7781 100.391 97.5281 100.524C97.2809 100.655 97.0849 100.837 96.94 101.07C96.7979 101.3 96.7269 101.562 96.7269 101.858V106H95.7212ZM106.22 106.136C105.607 106.136 105.078 105.991 104.635 105.702C104.192 105.412 103.851 105.013 103.612 104.504C103.374 103.996 103.254 103.415 103.254 102.761C103.254 102.097 103.376 101.51 103.621 101.001C103.868 100.49 104.212 100.091 104.652 99.804C105.095 99.5142 105.612 99.3693 106.203 99.3693C106.663 99.3693 107.078 99.4545 107.447 99.625C107.817 99.7955 108.119 100.034 108.355 100.341C108.591 100.648 108.737 101.006 108.794 101.415H107.788C107.712 101.116 107.541 100.852 107.277 100.622C107.016 100.389 106.663 100.273 106.22 100.273C105.828 100.273 105.484 100.375 105.189 100.58C104.896 100.781 104.668 101.067 104.503 101.436C104.341 101.803 104.26 102.233 104.26 102.727C104.26 103.233 104.339 103.673 104.499 104.048C104.661 104.423 104.888 104.714 105.18 104.922C105.476 105.129 105.822 105.233 106.22 105.233C106.482 105.233 106.719 105.188 106.932 105.097C107.145 105.006 107.325 104.875 107.473 104.705C107.621 104.534 107.726 104.33 107.788 104.091H108.794C108.737 104.477 108.597 104.825 108.372 105.135C108.151 105.442 107.857 105.686 107.49 105.868C107.126 106.047 106.703 106.136 106.22 106.136ZM111.27 97.2727V106H110.264V97.2727H111.27ZM115.038 106.153C114.623 106.153 114.247 106.075 113.909 105.919C113.571 105.76 113.302 105.531 113.103 105.233C112.904 104.932 112.805 104.568 112.805 104.142C112.805 103.767 112.879 103.463 113.027 103.23C113.174 102.994 113.372 102.81 113.619 102.676C113.866 102.543 114.139 102.443 114.437 102.378C114.738 102.31 115.041 102.256 115.345 102.216C115.743 102.165 116.065 102.126 116.312 102.101C116.562 102.072 116.744 102.026 116.858 101.96C116.974 101.895 117.032 101.781 117.032 101.619V101.585C117.032 101.165 116.917 100.838 116.687 100.605C116.46 100.372 116.115 100.256 115.652 100.256C115.172 100.256 114.795 100.361 114.522 100.571C114.25 100.781 114.058 101.006 113.947 101.244L112.993 100.903C113.163 100.506 113.39 100.196 113.674 99.9744C113.961 99.75 114.274 99.5937 114.612 99.5057C114.953 99.4148 115.288 99.3693 115.618 99.3693C115.828 99.3693 116.069 99.3949 116.342 99.446C116.618 99.4943 116.883 99.5952 117.139 99.7486C117.397 99.902 117.612 100.134 117.782 100.443C117.953 100.753 118.038 101.168 118.038 101.688V106H117.032V105.114H116.981C116.913 105.256 116.799 105.408 116.64 105.57C116.481 105.732 116.27 105.869 116.005 105.983C115.741 106.097 115.419 106.153 115.038 106.153ZM115.191 105.25C115.589 105.25 115.924 105.172 116.197 105.016C116.473 104.859 116.68 104.658 116.819 104.411C116.961 104.163 117.032 103.903 117.032 103.631V102.71C116.99 102.761 116.896 102.808 116.751 102.851C116.609 102.891 116.444 102.926 116.257 102.957C116.072 102.986 115.892 103.011 115.716 103.034C115.542 103.054 115.402 103.071 115.294 103.085C115.032 103.119 114.788 103.175 114.561 103.251C114.336 103.325 114.154 103.437 114.015 103.588C113.879 103.736 113.811 103.937 113.811 104.193C113.811 104.543 113.94 104.807 114.199 104.986C114.46 105.162 114.791 105.25 115.191 105.25ZM124.51 100.92L123.607 101.176C123.55 101.026 123.466 100.879 123.355 100.737C123.247 100.592 123.099 100.473 122.912 100.379C122.724 100.286 122.484 100.239 122.192 100.239C121.791 100.239 121.457 100.331 121.19 100.516C120.926 100.697 120.794 100.929 120.794 101.21C120.794 101.46 120.885 101.658 121.067 101.803C121.249 101.947 121.533 102.068 121.919 102.165L122.891 102.403C123.476 102.545 123.912 102.763 124.199 103.055C124.486 103.345 124.629 103.719 124.629 104.176C124.629 104.551 124.521 104.886 124.305 105.182C124.092 105.477 123.794 105.71 123.411 105.881C123.027 106.051 122.581 106.136 122.072 106.136C121.405 106.136 120.852 105.991 120.415 105.702C119.977 105.412 119.7 104.989 119.584 104.432L120.538 104.193C120.629 104.545 120.801 104.81 121.054 104.986C121.31 105.162 121.643 105.25 122.055 105.25C122.524 105.25 122.896 105.151 123.172 104.952C123.45 104.75 123.589 104.509 123.589 104.227C123.589 104 123.51 103.81 123.351 103.656C123.192 103.5 122.947 103.384 122.618 103.307L121.527 103.051C120.928 102.909 120.487 102.689 120.206 102.391C119.928 102.089 119.788 101.713 119.788 101.261C119.788 100.892 119.892 100.565 120.099 100.281C120.31 99.9972 120.595 99.7741 120.956 99.6122C121.32 99.4503 121.732 99.3693 122.192 99.3693C122.839 99.3693 123.348 99.5114 123.717 99.7955C124.089 100.08 124.354 100.455 124.51 100.92ZM130.779 100.92L129.876 101.176C129.819 101.026 129.735 100.879 129.625 100.737C129.517 100.592 129.369 100.473 129.181 100.379C128.994 100.286 128.754 100.239 128.461 100.239C128.061 100.239 127.727 100.331 127.46 100.516C127.196 100.697 127.064 100.929 127.064 101.21C127.064 101.46 127.154 101.658 127.336 101.803C127.518 101.947 127.802 102.068 128.189 102.165L129.16 102.403C129.745 102.545 130.181 102.763 130.468 103.055C130.755 103.345 130.899 103.719 130.899 104.176C130.899 104.551 130.791 104.886 130.575 105.182C130.362 105.477 130.064 105.71 129.68 105.881C129.297 106.051 128.85 106.136 128.342 106.136C127.674 106.136 127.122 105.991 126.684 105.702C126.247 105.412 125.97 104.989 125.853 104.432L126.808 104.193C126.899 104.545 127.071 104.81 127.324 104.986C127.579 105.162 127.913 105.25 128.325 105.25C128.794 105.25 129.166 105.151 129.441 104.952C129.72 104.75 129.859 104.509 129.859 104.227C129.859 104 129.779 103.81 129.62 103.656C129.461 103.5 129.217 103.384 128.887 103.307L127.797 103.051C127.197 102.909 126.757 102.689 126.475 102.391C126.197 102.089 126.058 101.713 126.058 101.261C126.058 100.892 126.162 100.565 126.369 100.281C126.579 99.9972 126.865 99.7741 127.225 99.6122C127.589 99.4503 128.001 99.3693 128.461 99.3693C129.109 99.3693 129.618 99.5114 129.987 99.7955C130.359 100.08 130.623 100.455 130.779 100.92Z" fill="#556071"/>
</svg>
