<svg width="15" height="15" viewBox="0 0 15 15" fill="none" xmlns="http://www.w3.org/2000/svg">
<path d="M14.0805 15L8.60065 9.5201C8.16441 9.88028 7.66273 10.1622 7.09562 10.3657C6.5285 10.5693 5.94182 10.6711 5.33555 10.6711C3.84562 10.6711 2.58388 10.1543 1.55033 9.12078C0.516777 8.08722 0 6.82548 0 5.33555C0 3.84562 0.516777 2.58388 1.55033 1.55033C2.58388 0.516777 3.84562 0 5.33555 0C6.82548 0 8.08722 0.516777 9.12078 1.55033C10.1543 2.58388 10.6711 3.84562 10.6711 5.33555C10.6711 5.95859 10.5665 6.55367 10.3573 7.12079C10.1482 7.6879 9.86909 8.18119 9.5201 8.60065L15 14.0805L14.0805 15ZM5.33555 9.36241C6.45972 9.36241 7.4119 8.97231 8.19211 8.19211C8.97231 7.4119 9.36241 6.45972 9.36241 5.33555C9.36241 4.21139 8.97231 3.2592 8.19211 2.479C7.4119 1.6988 6.45972 1.30869 5.33555 1.30869C4.21139 1.30869 3.2592 1.6988 2.479 2.479C1.6988 3.2592 1.30869 4.21139 1.30869 5.33555C1.30869 6.45972 1.6988 7.4119 2.479 8.19211C3.2592 8.97231 4.21139 9.36241 5.33555 9.36241Z" fill="#556071"/>
</svg>
