<svg width="13" height="16" viewBox="0 0 13 16" fill="none" xmlns="http://www.w3.org/2000/svg">
<path d="M1.52226 16C1.09689 16 0.736839 15.8527 0.442104 15.5579C0.147368 15.2632 0 14.9031 0 14.4778V1.52226C0 1.09689 0.147368 0.736839 0.442104 0.442104C0.736839 0.147368 1.09689 0 1.52226 0H11.1093C11.5347 0 11.8947 0.147368 12.1895 0.442104C12.4842 0.736839 12.6316 1.09689 12.6316 1.52226V14.4778C12.6316 14.9031 12.4842 15.2632 12.1895 15.5579C11.8947 15.8527 11.5347 16 11.1093 16H1.52226ZM1.52226 14.7369H11.1093C11.1741 14.7369 11.2335 14.7099 11.2875 14.6559C11.3415 14.6019 11.3684 14.5425 11.3684 14.4778V1.52226C11.3684 1.45748 11.3415 1.3981 11.2875 1.34411C11.2335 1.29013 11.1741 1.26313 11.1093 1.26313H9.68423V6.7854L7.7895 5.6518L5.89477 6.7854V1.26313H1.52226C1.45748 1.26313 1.3981 1.29013 1.34411 1.34411C1.29013 1.3981 1.26313 1.45748 1.26313 1.52226V14.4778C1.26313 14.5425 1.29013 14.6019 1.34411 14.6559C1.3981 14.7099 1.45748 14.7369 1.52226 14.7369ZM1.26313 14.7369C1.26313 14.7369 1.26313 14.7099 1.26313 14.6559C1.26313 14.6019 1.26313 14.5425 1.26313 14.4778V1.52226C1.26313 1.45748 1.26313 1.3981 1.26313 1.34411C1.26313 1.29013 1.26313 1.26313 1.26313 1.26313C1.26313 1.26313 1.26313 1.29013 1.26313 1.34411C1.26313 1.3981 1.26313 1.45748 1.26313 1.52226V14.4778C1.26313 14.5425 1.26313 14.6019 1.26313 14.6559C1.26313 14.7099 1.26313 14.7369 1.26313 14.7369ZM5.89477 6.7854L7.7895 5.6518L9.68423 6.7854L7.7895 5.6518L5.89477 6.7854Z" fill="#2F3331"/>
</svg>
