<svg width="9" height="12" viewBox="0 0 9 12" fill="none" xmlns="http://www.w3.org/2000/svg">
<path d="M4.42105 7.57895C3.89474 7.57895 3.44737 7.39474 3.07895 7.02632C2.71053 6.6579 2.52632 6.21053 2.52632 5.68421V1.89474C2.52632 1.36842 2.71053 0.921053 3.07895 0.552632C3.44737 0.184211 3.89474 0 4.42105 0C4.94737 0 5.39474 0.184211 5.76316 0.552632C6.13158 0.921053 6.31579 1.36842 6.31579 1.89474V5.68421C6.31579 6.21053 6.13158 6.6579 5.76316 7.02632C5.39474 7.39474 4.94737 7.57895 4.42105 7.57895ZM3.78948 12V10.0579C2.69474 9.91053 1.78947 9.42106 1.07368 8.58948C0.357895 7.7579 0 6.78948 0 5.68421H1.26316C1.26316 6.5579 1.57105 7.30264 2.18684 7.91842C2.80263 8.53421 3.54737 8.84211 4.42105 8.84211C5.29474 8.84211 6.03948 8.53421 6.65527 7.91842C7.27106 7.30264 7.57895 6.5579 7.57895 5.68421H8.84211C8.84211 6.78948 8.48421 7.7579 7.76842 8.58948C7.05264 9.42106 6.14737 9.91053 5.05263 10.0579V12H3.78948Z" fill="#FAF7F6"/>
</svg>
