<svg width="17" height="14" viewBox="0 0 17 14" fill="none" xmlns="http://www.w3.org/2000/svg">
<path d="M1.7 13.6C1.2325 13.6 0.832291 13.4335 0.499375 13.1006C0.166458 12.7677 0 12.3675 0 11.9V1.7C0 1.2325 0.166458 0.832291 0.499375 0.499375C0.832291 0.166458 1.2325 0 1.7 0H6.8L8.5 1.7H15.3C15.7675 1.7 16.1677 1.86646 16.5006 2.19937C16.8335 2.53229 17 2.9325 17 3.4V11.9C17 12.3675 16.8335 12.7677 16.5006 13.1006C16.1677 13.4335 15.7675 13.6 15.3 13.6H1.7ZM1.7 11.9H15.3V3.4H7.79875L6.09875 1.7H1.7V11.9ZM1.7 11.9V1.7V3.4V11.9Z" fill="#71717A"/>
</svg>
