<svg width="45" height="16" viewBox="0 0 45 16" fill="none" xmlns="http://www.w3.org/2000/svg">
<path d="M0 13.6593V12.4089H1.50701V6.18836C1.50701 5.06719 1.85303 4.07587 2.54509 3.21441C3.23714 2.35296 4.12559 1.80199 5.21043 1.56151V1.04207C5.21043 0.752608 5.31165 0.506564 5.51409 0.303938C5.71653 0.101313 5.96235 0 6.25155 0C6.54076 0 6.78689 0.101313 6.98996 0.303938C7.19304 0.506564 7.29457 0.752608 7.29457 1.04207V1.56151C8.37941 1.80199 9.26785 2.35296 9.95991 3.21441C10.652 4.07587 10.998 5.06719 10.998 6.18836V12.4089H12.505V13.6593H0ZM6.25108 16C5.83626 16 5.48163 15.8524 5.18717 15.5573C4.89272 15.2622 4.74549 14.9074 4.74549 14.493H7.75951C7.75951 14.9088 7.61181 15.2639 7.3164 15.5583C7.021 15.8528 6.6659 16 6.25108 16ZM2.75748 12.4089H9.74751V6.18836C9.74751 5.22323 9.40629 4.39944 8.72386 3.717C8.04142 3.03457 7.21763 2.69335 6.2525 2.69335C5.28736 2.69335 4.46357 3.03457 3.78114 3.717C3.0987 4.39944 2.75748 5.22323 2.75748 6.18836V12.4089Z" fill="#556071"/>
<path d="M31.4486 12.412C32.1572 11.8861 32.9292 11.4709 33.7644 11.1663C34.5997 10.8617 35.4887 10.7094 36.4314 10.7094C37.3741 10.7094 38.263 10.8617 39.0983 11.1663C39.9336 11.4709 40.7055 11.8861 41.4141 12.412C41.9325 11.8423 42.3432 11.1829 42.6462 10.4336C42.9492 9.6844 43.1007 8.87317 43.1007 7.99995C43.1007 6.15198 42.4512 4.57843 41.152 3.27929C39.8529 1.98015 38.2793 1.33059 36.4314 1.33059C34.5834 1.33059 33.0098 1.98015 31.7107 3.27929C30.4116 4.57843 29.762 6.15198 29.762 7.99995C29.762 8.87317 29.9135 9.6844 30.2165 10.4336C30.5195 11.1829 30.9302 11.8423 31.4486 12.412ZM36.4314 8.62519C35.6704 8.62519 35.0286 8.36386 34.5059 7.84122C33.9833 7.31858 33.722 6.67676 33.722 5.91577C33.722 5.15479 33.9833 4.51297 34.5059 3.99033C35.0286 3.46768 35.6704 3.20636 36.4314 3.20636C37.1924 3.20636 37.8342 3.46768 38.3568 3.99033C38.8795 4.51297 39.1408 5.15479 39.1408 5.91577C39.1408 6.67676 38.8795 7.31858 38.3568 7.84122C37.8342 8.36386 37.1924 8.62519 36.4314 8.62519ZM36.4314 15.9198C35.3316 15.9198 34.2999 15.713 33.3364 15.2993C32.3729 14.8857 31.5346 14.3225 30.8217 13.6096C30.1089 12.8967 29.5456 12.0585 29.132 11.0949C28.7183 10.1314 28.5115 9.09975 28.5115 7.99995C28.5115 6.90015 28.7183 5.86849 29.132 4.90496C29.5456 3.94143 30.1089 3.10322 30.8217 2.39033C31.5346 1.67744 32.3729 1.11418 33.3364 0.700551C34.2999 0.286924 35.3316 0.0801105 36.4314 0.0801105C37.5312 0.0801105 38.5628 0.286924 39.5264 0.700551C40.4899 1.11418 41.3281 1.67744 42.041 2.39033C42.7539 3.10322 43.3171 3.94143 43.7308 4.90496C44.1444 5.86849 44.3512 6.90015 44.3512 7.99995C44.3512 9.09975 44.1444 10.1314 43.7308 11.0949C43.3171 12.0585 42.7539 12.8967 42.041 13.6096C41.3281 14.3225 40.4899 14.8857 39.5264 15.2993C38.5628 15.713 37.5312 15.9198 36.4314 15.9198ZM36.4314 14.6693C37.1838 14.6693 37.9093 14.5483 38.6077 14.3062C39.3062 14.0641 39.9264 13.7255 40.4683 13.2905C39.9264 12.8716 39.3142 12.545 38.6318 12.311C37.9493 12.0769 37.2159 11.9599 36.4314 11.9599C35.6469 11.9599 34.912 12.0756 34.2269 12.307C33.5418 12.5384 32.931 12.8662 32.3945 13.2905C32.9364 13.7255 33.5565 14.0641 34.255 14.3062C34.9535 14.5483 35.6789 14.6693 36.4314 14.6693ZM36.4314 7.37471C36.8461 7.37471 37.1929 7.23523 37.4719 6.95627C37.7508 6.67731 37.8903 6.33047 37.8903 5.91577C37.8903 5.50107 37.7508 5.15424 37.4719 4.87528C37.1929 4.59632 36.8461 4.45683 36.4314 4.45683C36.0167 4.45683 35.6698 4.59632 35.3909 4.87528C35.1119 5.15424 34.9724 5.50107 34.9724 5.91577C34.9724 6.33047 35.1119 6.67731 35.3909 6.95627C35.6698 7.23523 36.0167 7.37471 36.4314 7.37471Z" fill="#556071"/>
</svg>
