<svg width="16" height="16" viewBox="0 0 16 16" fill="none" xmlns="http://www.w3.org/2000/svg">
<path d="M5.96925 16L5.6486 13.4348C5.42295 13.3593 5.19164 13.2535 4.95466 13.1174C4.71767 12.9814 4.50579 12.8356 4.31901 12.6802L1.9433 13.6842L0 10.3158L2.05506 8.76278C2.03563 8.63754 2.02186 8.51176 2.01377 8.38544C2.00567 8.25913 2.00162 8.13335 2.00162 8.00811C2.00162 7.88827 2.00567 7.76654 2.01377 7.64292C2.02186 7.5193 2.03563 7.38407 2.05506 7.23724L0 5.6842L1.9433 2.332L4.31092 3.32796C4.51389 3.16709 4.73063 3.01999 4.96113 2.88665C5.19164 2.75331 5.4181 2.64616 5.6405 2.56519L5.96925 0H9.85585L10.1765 2.57328C10.4291 2.66505 10.6578 2.77221 10.8623 2.89475C11.0669 3.01729 11.2734 3.16169 11.4818 3.32796L13.8818 2.332L15.8251 5.6842L13.7376 7.26153C13.7679 7.39757 13.7843 7.5247 13.787 7.64292C13.7897 7.76114 13.7911 7.88017 13.7911 8.00001C13.7911 8.11445 13.7884 8.23078 13.783 8.349C13.7776 8.46723 13.7582 8.60245 13.7247 8.75468L15.796 10.3158L13.8526 13.6842L11.4818 12.6721C11.2734 12.8383 11.0607 12.9854 10.8437 13.1134C10.6267 13.2413 10.4043 13.3458 10.1765 13.4267L9.85585 16H5.96925ZM7.07044 14.7369H8.72551L9.02835 12.481C9.45804 12.3687 9.85075 12.2092 10.2065 12.0025C10.5622 11.7957 10.9053 11.5299 11.2356 11.2049L13.328 12.0842L14.1571 10.6527L12.3304 9.27613C12.4006 9.05804 12.4483 8.84428 12.4737 8.63483C12.4991 8.42538 12.5118 8.21378 12.5118 8.00001C12.5118 7.78085 12.4991 7.56924 12.4737 7.36519C12.4483 7.16114 12.4006 6.95277 12.3304 6.74009L14.1733 5.34736L13.3442 3.91578L11.2275 4.80809C10.9458 4.50688 10.6081 4.24075 10.2146 4.00971C9.82106 3.77867 9.42295 3.6151 9.02025 3.51902L8.75466 1.26313H7.0834L6.80485 3.51092C6.37516 3.6124 5.9784 3.76787 5.61457 3.97732C5.25073 4.18676 4.90363 4.45667 4.57326 4.78704L2.48094 3.91578L1.65179 5.34736L3.47042 6.70284C3.40025 6.90257 3.35112 7.1104 3.32305 7.32632C3.29498 7.54225 3.28095 7.76951 3.28095 8.00811C3.28095 8.22727 3.29498 8.44212 3.32305 8.65265C3.35112 8.86317 3.39755 9.071 3.46233 9.27613L1.65179 10.6527L2.48094 12.0842L4.56517 11.2C4.88474 11.5282 5.22644 11.7971 5.59027 12.0065C5.95411 12.216 6.35627 12.3768 6.79676 12.4891L7.07044 14.7369ZM7.92227 10.5263C8.62293 10.5263 9.21915 10.2804 9.71092 9.78866C10.2027 9.2969 10.4486 8.70068 10.4486 8.00001C10.4486 7.29934 10.2027 6.70312 9.71092 6.21136C9.21915 5.71959 8.62293 5.47371 7.92227 5.47371C7.21296 5.47371 6.61458 5.71959 6.12714 6.21136C5.63969 6.70312 5.39597 7.29934 5.39597 8.00001C5.39597 8.70068 5.63969 9.2969 6.12714 9.78866C6.61458 10.2804 7.21296 10.5263 7.92227 10.5263Z" fill="#556071"/>
</svg>
