<svg width="256" height="174" viewBox="0 0 256 174" fill="none" xmlns="http://www.w3.org/2000/svg">
<rect width="256" height="174" rx="32" fill="#F3F4F1"/>
<path d="M32 50V48L34 46V50H32ZM36 50V44L38 42V50H36ZM40 50V42L42 44.025V50H40ZM44 50V44.025L46 42.025V50H44ZM48 50V40L50 38V50H48ZM32 44.825V42L39 35L43 39L50 32V34.825L43 41.825L39 37.825L32 44.825Z" fill="#5F5E5E"/>
<path d="M38.4084 73.7464C38.3686 73.3454 38.1979 73.0339 37.8963 72.8118C37.5947 72.5897 37.1854 72.4787 36.6683 72.4787C36.317 72.4787 36.0204 72.5284 35.7784 72.6278C35.5365 72.724 35.3509 72.8582 35.2216 73.0305C35.0956 73.2029 35.0327 73.3984 35.0327 73.6172C35.026 73.7995 35.0642 73.9586 35.147 74.0945C35.2332 74.2304 35.3509 74.348 35.5 74.4474C35.6491 74.5436 35.8215 74.6281 36.017 74.701C36.2126 74.7706 36.4214 74.8303 36.6435 74.88L37.5582 75.0987C38.0024 75.1982 38.41 75.3307 38.7812 75.4964C39.1525 75.6622 39.474 75.866 39.7457 76.108C40.0175 76.3499 40.228 76.6349 40.3771 76.9631C40.5296 77.2912 40.6075 77.6674 40.6108 78.0916C40.6075 78.7147 40.4484 79.255 40.1335 79.7124C39.822 80.1664 39.3712 80.5194 38.7812 80.7713C38.1946 81.0199 37.487 81.1442 36.6584 81.1442C35.8364 81.1442 35.1205 81.0182 34.5107 80.7663C33.9041 80.5144 33.4302 80.1416 33.0888 79.6477C32.7507 79.1506 32.5734 78.5357 32.5568 77.8033H34.6399C34.6631 78.1446 34.7609 78.4297 34.9332 78.6584C35.1089 78.8838 35.3426 79.0545 35.6342 79.1705C35.9292 79.2831 36.2623 79.3395 36.6335 79.3395C36.9981 79.3395 37.3146 79.2865 37.5831 79.1804C37.8549 79.0743 38.0653 78.9268 38.2145 78.7379C38.3636 78.549 38.4382 78.3319 38.4382 78.0866C38.4382 77.858 38.3703 77.6657 38.2344 77.5099C38.1018 77.3542 37.9063 77.2216 37.6477 77.1122C37.3925 77.0028 37.0793 76.9034 36.7081 76.8139L35.5994 76.5355C34.741 76.3267 34.0632 76.0002 33.5661 75.5561C33.0689 75.112 32.822 74.5137 32.8253 73.7614C32.822 73.1449 32.986 72.6063 33.3175 72.1456C33.6522 71.6849 34.1113 71.3253 34.6946 71.0668C35.2779 70.8082 35.9408 70.679 36.6832 70.679C37.4389 70.679 38.0985 70.8082 38.6619 71.0668C39.2287 71.3253 39.6695 71.6849 39.9844 72.1456C40.2992 72.6063 40.4616 73.1399 40.4716 73.7464H38.4084ZM46.0808 73.3636V74.9545H41.4821V73.3636H46.0808ZM42.5261 71.5341H44.644V78.6534C44.644 78.849 44.6738 79.0014 44.7335 79.1108C44.7931 79.2169 44.876 79.2914 44.9821 79.3345C45.0914 79.3776 45.2174 79.3991 45.3599 79.3991C45.4593 79.3991 45.5588 79.3909 45.6582 79.3743C45.7576 79.3544 45.8339 79.3395 45.8869 79.3295L46.22 80.9055C46.1139 80.9387 45.9648 80.9768 45.7725 81.0199C45.5803 81.0663 45.3467 81.0945 45.0716 81.1044C44.5611 81.1243 44.1137 81.0563 43.7292 80.9006C43.3481 80.7448 43.0514 80.5028 42.8393 80.1747C42.6272 79.8466 42.5228 79.4323 42.5261 78.9318V71.5341ZM52.3574 77.7486V73.3636H54.4753V81H52.4419V79.6129H52.3624C52.19 80.0604 51.9034 80.42 51.5023 80.6918C51.1046 80.9635 50.619 81.0994 50.0456 81.0994C49.5352 81.0994 49.0861 80.9834 48.6983 80.7514C48.3105 80.5194 48.0073 80.1896 47.7885 79.7621C47.5731 79.3345 47.4637 78.8224 47.4604 78.2259V73.3636H49.5783V77.848C49.5816 78.2988 49.7026 78.6551 49.9412 78.9169C50.1799 79.1787 50.4997 79.3097 50.9007 79.3097C51.156 79.3097 51.3946 79.2517 51.6167 79.1357C51.8387 79.0163 52.0177 78.8407 52.1536 78.6087C52.2928 78.3767 52.3607 78.09 52.3574 77.7486ZM58.9833 81.1243C58.4033 81.1243 57.878 80.9751 57.4073 80.6768C56.94 80.3752 56.5688 79.9328 56.2937 79.3494C56.0219 78.7628 55.886 78.0436 55.886 77.1918C55.886 76.3168 56.0269 75.5893 56.3086 75.0092C56.5903 74.4259 56.9648 73.9901 57.4322 73.7017C57.9028 73.41 58.4182 73.2642 58.9783 73.2642C59.4059 73.2642 59.7622 73.3371 60.0472 73.483C60.3356 73.6255 60.5676 73.8045 60.7433 74.0199C60.9222 74.232 61.0581 74.4408 61.1509 74.6463H61.2156V70.8182H63.3285V81H61.2404V79.777H61.1509C61.0515 79.9891 60.9106 80.1996 60.7283 80.4084C60.5494 80.6139 60.3157 80.7846 60.0273 80.9205C59.7423 81.0563 59.3943 81.1243 58.9833 81.1243ZM59.6545 79.4389C59.9959 79.4389 60.2842 79.3461 60.5195 79.1605C60.7582 78.9716 60.9405 78.7081 61.0664 78.37C61.1957 78.032 61.2603 77.6359 61.2603 77.1818C61.2603 76.7277 61.1973 76.3333 61.0714 75.9986C60.9454 75.6638 60.7631 75.4053 60.5245 75.223C60.2859 75.0407 59.9959 74.9496 59.6545 74.9496C59.3065 74.9496 59.0131 75.044 58.7745 75.233C58.5359 75.4219 58.3552 75.6837 58.2326 76.0185C58.11 76.3532 58.0487 76.741 58.0487 77.1818C58.0487 77.6259 58.11 78.0187 58.2326 78.3601C58.3585 78.6982 58.5392 78.9633 58.7745 79.1555C59.0131 79.3445 59.3065 79.4389 59.6545 79.4389ZM66.3773 83.8636C66.1088 83.8636 65.8569 83.8421 65.6216 83.799C65.3896 83.7592 65.1974 83.7079 65.0449 83.6449L65.5222 82.0639C65.7708 82.1402 65.9945 82.1816 66.1934 82.1882C66.3955 82.1948 66.5695 82.1484 66.7154 82.049C66.8645 81.9496 66.9855 81.7805 67.0783 81.5419L67.2026 81.2188L64.4632 73.3636H66.6905L68.2715 78.9716H68.351L69.9469 73.3636H72.1891L69.2211 81.8253C69.0785 82.2363 68.8846 82.5942 68.6394 82.8991C68.3974 83.2074 68.0909 83.4444 67.7196 83.6101C67.3484 83.7791 66.901 83.8636 66.3773 83.8636ZM78.3924 70.8182L80.8533 78.554H80.9478L83.4137 70.8182H85.8001L82.2901 81H79.516L76.0011 70.8182H78.3924ZM89.6046 81.1491C88.8191 81.1491 88.1429 80.9901 87.5762 80.6719C87.0127 80.3504 86.5785 79.8963 86.2736 79.3097C85.9687 78.7197 85.8162 78.022 85.8162 77.2166C85.8162 76.4311 85.9687 75.7417 86.2736 75.1484C86.5785 74.5552 87.0078 74.0928 87.5613 73.7614C88.1181 73.4299 88.771 73.2642 89.5201 73.2642C90.0239 73.2642 90.4928 73.3454 90.927 73.5078C91.3645 73.6669 91.7457 73.9072 92.0705 74.2287C92.3986 74.5502 92.6538 74.9545 92.8361 75.4418C93.0184 75.9257 93.1096 76.4924 93.1096 77.142V77.7237H86.6614V76.4112H91.1159C91.1159 76.1063 91.0497 75.8362 90.9171 75.6009C90.7845 75.3655 90.6006 75.1816 90.3652 75.049C90.1332 74.9131 89.8631 74.8452 89.5549 74.8452C89.2334 74.8452 88.9483 74.9197 88.6998 75.0689C88.4545 75.2147 88.2623 75.4119 88.123 75.6605C87.9838 75.9058 87.9126 76.1792 87.9093 76.4808V77.7287C87.9093 78.1065 87.9789 78.433 88.1181 78.7081C88.2606 78.9832 88.4611 79.1953 88.7196 79.3445C88.9782 79.4936 89.2847 79.5682 89.6394 79.5682C89.8747 79.5682 90.0901 79.535 90.2857 79.4688C90.4812 79.4025 90.6486 79.303 90.7878 79.1705C90.927 79.0379 91.0331 78.8755 91.106 78.6832L93.0648 78.8125C92.9654 79.2831 92.7615 79.6941 92.4533 80.0455C92.1484 80.3935 91.754 80.6652 91.2701 80.8608C90.7895 81.053 90.2343 81.1491 89.6046 81.1491ZM96.6096 70.8182V81H94.4917V70.8182H96.6096ZM101.756 81.1491C100.984 81.1491 100.316 80.9851 99.7528 80.657C99.1927 80.3255 98.7602 79.8648 98.4553 79.2749C98.1503 78.6816 97.9979 77.9938 97.9979 77.2116C97.9979 76.4228 98.1503 75.7334 98.4553 75.1435C98.7602 74.5502 99.1927 74.0895 99.7528 73.7614C100.316 73.4299 100.984 73.2642 101.756 73.2642C102.529 73.2642 103.195 73.4299 103.755 73.7614C104.318 74.0895 104.753 74.5502 105.058 75.1435C105.362 75.7334 105.515 76.4228 105.515 77.2116C105.515 77.9938 105.362 78.6816 105.058 79.2749C104.753 79.8648 104.318 80.3255 103.755 80.657C103.195 80.9851 102.529 81.1491 101.756 81.1491ZM101.766 79.5085C102.118 79.5085 102.411 79.4091 102.646 79.2102C102.882 79.008 103.059 78.733 103.178 78.3849C103.301 78.0369 103.362 77.6409 103.362 77.1967C103.362 76.7526 103.301 76.3565 103.178 76.0085C103.059 75.6605 102.882 75.3854 102.646 75.1832C102.411 74.9811 102.118 74.88 101.766 74.88C101.412 74.88 101.113 74.9811 100.871 75.1832C100.633 75.3854 100.452 75.6605 100.33 76.0085C100.21 76.3565 100.151 76.7526 100.151 77.1967C100.151 77.6409 100.21 78.0369 100.33 78.3849C100.452 78.733 100.633 79.008 100.871 79.2102C101.113 79.4091 101.412 79.5085 101.766 79.5085ZM110.342 81.1491C109.56 81.1491 108.887 80.9834 108.324 80.652C107.764 80.3172 107.333 79.8532 107.031 79.2599C106.733 78.6667 106.584 77.9839 106.584 77.2116C106.584 76.4295 106.735 75.7434 107.036 75.1534C107.341 74.5601 107.774 74.0978 108.334 73.7663C108.894 73.4316 109.56 73.2642 110.332 73.2642C110.999 73.2642 111.582 73.3852 112.082 73.6271C112.583 73.8691 112.979 74.2088 113.271 74.6463C113.562 75.0838 113.723 75.5975 113.753 76.1875H111.754C111.698 75.8063 111.549 75.4998 111.307 75.2678C111.068 75.0324 110.755 74.9148 110.367 74.9148C110.039 74.9148 109.752 75.0043 109.507 75.1832C109.265 75.3589 109.076 75.6158 108.94 75.9538C108.804 76.2919 108.737 76.7012 108.737 77.1818C108.737 77.669 108.803 78.0833 108.935 78.4247C109.071 78.7661 109.262 79.0263 109.507 79.2053C109.752 79.3842 110.039 79.4737 110.367 79.4737C110.609 79.4737 110.826 79.424 111.018 79.3246C111.214 79.2251 111.375 79.081 111.501 78.892C111.63 78.6998 111.714 78.4695 111.754 78.201H113.753C113.72 78.7843 113.561 79.2981 113.276 79.7422C112.994 80.183 112.604 80.5277 112.107 80.7763C111.61 81.0249 111.022 81.1491 110.342 81.1491ZM115.109 81V73.3636H117.227V81H115.109ZM116.173 72.3793C115.858 72.3793 115.588 72.2749 115.362 72.0661C115.14 71.8539 115.029 71.6004 115.029 71.3054C115.029 71.0137 115.14 70.7635 115.362 70.5547C115.588 70.3426 115.858 70.2365 116.173 70.2365C116.488 70.2365 116.756 70.3426 116.978 70.5547C117.204 70.7635 117.316 71.0137 117.316 71.3054C117.316 71.6004 117.204 71.8539 116.978 72.0661C116.756 72.2749 116.488 72.3793 116.173 72.3793ZM122.985 73.3636V74.9545H118.386V73.3636H122.985ZM119.43 71.5341H121.548V78.6534C121.548 78.849 121.578 79.0014 121.638 79.1108C121.697 79.2169 121.78 79.2914 121.886 79.3345C121.996 79.3776 122.122 79.3991 122.264 79.3991C122.364 79.3991 122.463 79.3909 122.562 79.3743C122.662 79.3544 122.738 79.3395 122.791 79.3295L123.124 80.9055C123.018 80.9387 122.869 80.9768 122.677 81.0199C122.485 81.0663 122.251 81.0945 121.976 81.1044C121.465 81.1243 121.018 81.0563 120.634 80.9006C120.252 80.7448 119.956 80.5028 119.744 80.1747C119.531 79.8466 119.427 79.4323 119.43 78.9318V71.5341ZM125.672 83.8636C125.404 83.8636 125.152 83.8421 124.917 83.799C124.685 83.7592 124.492 83.7079 124.34 83.6449L124.817 82.0639C125.066 82.1402 125.289 82.1816 125.488 82.1882C125.69 82.1948 125.864 82.1484 126.01 82.049C126.159 81.9496 126.28 81.7805 126.373 81.5419L126.498 81.2188L123.758 73.3636H125.985L127.566 78.9716H127.646L129.242 73.3636H131.484L128.516 81.8253C128.373 82.2363 128.18 82.5942 127.934 82.8991C127.692 83.2074 127.386 83.4444 127.015 83.6101C126.643 83.7791 126.196 83.8636 125.672 83.8636Z" fill="#2F3331"/>
<path d="M32.3068 93.2727H33.517L35.9375 97.3466H36.0398L38.4602 93.2727H39.6705L36.517 98.4034V102H35.4602V98.4034L32.3068 93.2727ZM42.6342 102.136C42.0433 102.136 41.5249 101.996 41.0788 101.714C40.6357 101.433 40.2891 101.04 40.0391 100.534C39.7919 100.028 39.6683 99.4375 39.6683 98.7614C39.6683 98.0795 39.7919 97.4844 40.0391 96.9759C40.2891 96.4673 40.6357 96.0724 41.0788 95.7912C41.5249 95.5099 42.0433 95.3693 42.6342 95.3693C43.2251 95.3693 43.7422 95.5099 44.1854 95.7912C44.6314 96.0724 44.978 96.4673 45.2251 96.9759C45.4751 97.4844 45.6001 98.0795 45.6001 98.7614C45.6001 99.4375 45.4751 100.028 45.2251 100.534C44.978 101.04 44.6314 101.433 44.1854 101.714C43.7422 101.996 43.2251 102.136 42.6342 102.136ZM42.6342 101.233C43.0831 101.233 43.4524 101.118 43.7422 100.888C44.032 100.658 44.2464 100.355 44.3857 99.9801C44.5249 99.6051 44.5945 99.1989 44.5945 98.7614C44.5945 98.3239 44.5249 97.9162 44.3857 97.5384C44.2464 97.1605 44.032 96.8551 43.7422 96.6222C43.4524 96.3892 43.0831 96.2727 42.6342 96.2727C42.1854 96.2727 41.8161 96.3892 41.5263 96.6222C41.2365 96.8551 41.022 97.1605 40.8828 97.5384C40.7436 97.9162 40.674 98.3239 40.674 98.7614C40.674 99.1989 40.7436 99.6051 40.8828 99.9801C41.022 100.355 41.2365 100.658 41.5263 100.888C41.8161 101.118 42.1854 101.233 42.6342 101.233ZM51.2603 99.3239V95.4545H52.266V102H51.2603V100.892H51.1921C51.0387 101.224 50.8001 101.507 50.4762 101.74C50.1523 101.97 49.7433 102.085 49.2489 102.085C48.8398 102.085 48.4762 101.996 48.158 101.817C47.8398 101.635 47.5898 101.362 47.408 100.999C47.2262 100.632 47.1353 100.17 47.1353 99.6136V95.4545H48.141V99.5455C48.141 100.023 48.2745 100.403 48.5415 100.688C48.8114 100.972 49.1552 101.114 49.5728 101.114C49.8228 101.114 50.0771 101.05 50.3356 100.922C50.5969 100.794 50.8157 100.598 50.9918 100.334C51.1708 100.07 51.2603 99.733 51.2603 99.3239ZM54.9773 93.2727V96.2727H54.0398V93.2727H54.9773ZM62.1204 95.4545L59.6999 102H58.6772L56.2567 95.4545H57.3477L59.1545 100.67H59.2227L61.0295 95.4545H62.1204ZM65.9577 102.136C65.3271 102.136 64.783 101.997 64.3256 101.719C63.8711 101.438 63.5202 101.045 63.2731 100.543C63.0288 100.037 62.9066 99.4489 62.9066 98.7784C62.9066 98.108 63.0288 97.517 63.2731 97.0057C63.5202 96.4915 63.864 96.0909 64.3043 95.804C64.7475 95.5142 65.2646 95.3693 65.8555 95.3693C66.1964 95.3693 66.533 95.4261 66.8654 95.5398C67.1978 95.6534 67.5004 95.8381 67.7731 96.0938C68.0458 96.3466 68.2631 96.6818 68.4251 97.0994C68.587 97.517 68.668 98.0312 68.668 98.642V99.0682H63.6225V98.1989H67.6452C67.6452 97.8295 67.5714 97.5 67.4237 97.2102C67.2788 96.9205 67.0714 96.6918 66.8015 96.5241C66.5344 96.3565 66.2191 96.2727 65.8555 96.2727C65.4549 96.2727 65.1083 96.3722 64.8157 96.571C64.5259 96.767 64.3029 97.0227 64.1467 97.3381C63.9904 97.6534 63.9123 97.9915 63.9123 98.3523V98.9318C63.9123 99.4261 63.9975 99.8452 64.168 100.189C64.3413 100.53 64.5813 100.79 64.8881 100.969C65.195 101.145 65.5515 101.233 65.9577 101.233C66.2219 101.233 66.4606 101.196 66.6737 101.122C66.8896 101.045 67.0756 100.932 67.2319 100.781C67.3881 100.628 67.5089 100.437 67.5941 100.21L68.5657 100.483C68.4634 100.812 68.2915 101.102 68.0501 101.352C67.8086 101.599 67.5103 101.793 67.1552 101.932C66.8001 102.068 66.4009 102.136 65.9577 102.136ZM75.4989 102.153C75.0842 102.153 74.7077 102.075 74.3697 101.919C74.0316 101.76 73.7631 101.531 73.5643 101.233C73.3654 100.932 73.266 100.568 73.266 100.142C73.266 99.767 73.3398 99.4631 73.4876 99.2301C73.6353 98.9943 73.8327 98.8097 74.0799 98.6761C74.3271 98.5426 74.5998 98.4432 74.8981 98.3778C75.1992 98.3097 75.5018 98.2557 75.8058 98.2159C76.2035 98.1648 76.5259 98.1264 76.7731 98.1009C77.0231 98.0724 77.2049 98.0256 77.3185 97.9602C77.435 97.8949 77.4933 97.7812 77.4933 97.6193V97.5852C77.4933 97.1648 77.3782 96.8381 77.1481 96.6051C76.9208 96.3722 76.5756 96.2557 76.1126 96.2557C75.6325 96.2557 75.256 96.3608 74.9833 96.571C74.7106 96.7812 74.5188 97.0057 74.408 97.2443L73.4535 96.9034C73.6239 96.5057 73.8512 96.196 74.1353 95.9744C74.4222 95.75 74.7347 95.5937 75.0728 95.5057C75.4137 95.4148 75.7489 95.3693 76.0785 95.3693C76.2887 95.3693 76.5302 95.3949 76.8029 95.446C77.0785 95.4943 77.3441 95.5952 77.5998 95.7486C77.8583 95.902 78.0728 96.1335 78.2433 96.4432C78.4137 96.7528 78.4989 97.1676 78.4989 97.6875V102H77.4933V101.114H77.4421C77.3739 101.256 77.2603 101.408 77.1012 101.57C76.9421 101.732 76.7305 101.869 76.4663 101.983C76.2021 102.097 75.8796 102.153 75.4989 102.153ZM75.6523 101.25C76.0501 101.25 76.3853 101.172 76.658 101.016C76.9336 100.859 77.141 100.658 77.2802 100.411C77.4222 100.163 77.4933 99.9034 77.4933 99.6307V98.7102C77.4506 98.7614 77.3569 98.8082 77.212 98.8509C77.07 98.8906 76.9052 98.9261 76.7177 98.9574C76.533 98.9858 76.3526 99.0114 76.1765 99.0341C76.0032 99.054 75.8626 99.071 75.7546 99.0852C75.4933 99.1193 75.2489 99.1747 75.0217 99.2514C74.7972 99.3253 74.6154 99.4375 74.4762 99.5881C74.3398 99.7358 74.2717 99.9375 74.2717 100.193C74.2717 100.543 74.4009 100.807 74.6594 100.986C74.9208 101.162 75.2518 101.25 75.6523 101.25ZM85.4524 95.4545L83.032 102H82.0092L79.5888 95.4545H80.6797L82.4865 100.67H82.5547L84.3615 95.4545H85.4524ZM89.2898 102.136C88.6591 102.136 88.1151 101.997 87.6577 101.719C87.2031 101.438 86.8523 101.045 86.6051 100.543C86.3608 100.037 86.2386 99.4489 86.2386 98.7784C86.2386 98.108 86.3608 97.517 86.6051 97.0057C86.8523 96.4915 87.196 96.0909 87.6364 95.804C88.0795 95.5142 88.5966 95.3693 89.1875 95.3693C89.5284 95.3693 89.8651 95.4261 90.1974 95.5398C90.5298 95.6534 90.8324 95.8381 91.1051 96.0938C91.3778 96.3466 91.5952 96.6818 91.7571 97.0994C91.919 97.517 92 98.0312 92 98.642V99.0682H86.9545V98.1989H90.9773C90.9773 97.8295 90.9034 97.5 90.7557 97.2102C90.6108 96.9205 90.4034 96.6918 90.1335 96.5241C89.8665 96.3565 89.5511 96.2727 89.1875 96.2727C88.7869 96.2727 88.4403 96.3722 88.1477 96.571C87.858 96.767 87.6349 97.0227 87.4787 97.3381C87.3224 97.6534 87.2443 97.9915 87.2443 98.3523V98.9318C87.2443 99.4261 87.3295 99.8452 87.5 100.189C87.6733 100.53 87.9134 100.79 88.2202 100.969C88.527 101.145 88.8835 101.233 89.2898 101.233C89.554 101.233 89.7926 101.196 90.0057 101.122C90.2216 101.045 90.4077 100.932 90.5639 100.781C90.7202 100.628 90.8409 100.437 90.9261 100.21L91.8977 100.483C91.7955 100.812 91.6236 101.102 91.3821 101.352C91.1406 101.599 90.8423 101.793 90.4872 101.932C90.1321 102.068 89.733 102.136 89.2898 102.136ZM93.5298 102V95.4545H94.5014V96.4432H94.5696C94.6889 96.1193 94.9048 95.8565 95.2173 95.6548C95.5298 95.4531 95.8821 95.3523 96.2741 95.3523C96.348 95.3523 96.4403 95.3537 96.5511 95.3565C96.6619 95.3594 96.7457 95.3636 96.8026 95.3693V96.392C96.7685 96.3835 96.6903 96.3707 96.5682 96.3537C96.4489 96.3338 96.3224 96.3239 96.1889 96.3239C95.8707 96.3239 95.5866 96.3906 95.3366 96.5241C95.0895 96.6548 94.8935 96.8366 94.7486 97.0696C94.6065 97.2997 94.5355 97.5625 94.5355 97.858V102H93.5298ZM99.9208 102.153C99.506 102.153 99.1296 102.075 98.7915 101.919C98.4535 101.76 98.185 101.531 97.9862 101.233C97.7873 100.932 97.6879 100.568 97.6879 100.142C97.6879 99.767 97.7617 99.4631 97.9094 99.2301C98.0572 98.9943 98.2546 98.8097 98.5018 98.6761C98.7489 98.5426 99.0217 98.4432 99.32 98.3778C99.6211 98.3097 99.9237 98.2557 100.228 98.2159C100.625 98.1648 100.948 98.1264 101.195 98.1009C101.445 98.0724 101.627 98.0256 101.74 97.9602C101.857 97.8949 101.915 97.7812 101.915 97.6193V97.5852C101.915 97.1648 101.8 96.8381 101.57 96.6051C101.343 96.3722 100.998 96.2557 100.534 96.2557C100.054 96.2557 99.6779 96.3608 99.4052 96.571C99.1325 96.7812 98.9407 97.0057 98.8299 97.2443L97.8754 96.9034C98.0458 96.5057 98.2731 96.196 98.5572 95.9744C98.8441 95.75 99.1566 95.5937 99.4947 95.5057C99.8356 95.4148 100.171 95.3693 100.5 95.3693C100.711 95.3693 100.952 95.3949 101.225 95.446C101.5 95.4943 101.766 95.5952 102.022 95.7486C102.28 95.902 102.495 96.1335 102.665 96.4432C102.836 96.7528 102.921 97.1676 102.921 97.6875V102H101.915V101.114H101.864C101.796 101.256 101.682 101.408 101.523 101.57C101.364 101.732 101.152 101.869 100.888 101.983C100.624 102.097 100.301 102.153 99.9208 102.153ZM100.074 101.25C100.472 101.25 100.807 101.172 101.08 101.016C101.355 100.859 101.563 100.658 101.702 100.411C101.844 100.163 101.915 99.9034 101.915 99.6307V98.7102C101.873 98.7614 101.779 98.8082 101.634 98.8509C101.492 98.8906 101.327 98.9261 101.14 98.9574C100.955 98.9858 100.775 99.0114 100.598 99.0341C100.425 99.054 100.284 99.071 100.176 99.0852C99.9151 99.1193 99.6708 99.1747 99.4435 99.2514C99.2191 99.3253 99.0373 99.4375 98.8981 99.5881C98.7617 99.7358 98.6935 99.9375 98.6935 100.193C98.6935 100.543 98.8228 100.807 99.0813 100.986C99.3427 101.162 99.6737 101.25 100.074 101.25ZM107.398 104.591C106.913 104.591 106.495 104.528 106.146 104.403C105.796 104.281 105.505 104.119 105.272 103.918C105.042 103.719 104.859 103.506 104.722 103.278L105.523 102.716C105.614 102.835 105.729 102.972 105.869 103.125C106.008 103.281 106.198 103.416 106.44 103.53C106.684 103.646 107.004 103.705 107.398 103.705C107.927 103.705 108.363 103.577 108.707 103.321C109.05 103.065 109.222 102.665 109.222 102.119V100.79H109.137C109.063 100.909 108.958 101.057 108.822 101.233C108.688 101.406 108.495 101.561 108.242 101.697C107.992 101.831 107.654 101.898 107.228 101.898C106.7 101.898 106.225 101.773 105.805 101.523C105.387 101.273 105.056 100.909 104.812 100.432C104.57 99.9545 104.45 99.375 104.45 98.6932C104.45 98.0227 104.567 97.4389 104.803 96.9418C105.039 96.4418 105.367 96.0554 105.788 95.7827C106.208 95.5071 106.694 95.3693 107.245 95.3693C107.671 95.3693 108.009 95.4403 108.259 95.5824C108.512 95.7216 108.705 95.8807 108.839 96.0597C108.975 96.2358 109.08 96.3807 109.154 96.4943H109.256V95.4545H110.228V102.188C110.228 102.75 110.1 103.207 109.844 103.56C109.592 103.915 109.251 104.175 108.822 104.339C108.396 104.507 107.921 104.591 107.398 104.591ZM107.364 100.994C107.768 100.994 108.109 100.902 108.387 100.717C108.665 100.533 108.877 100.267 109.022 99.9205C109.167 99.5739 109.239 99.1591 109.239 98.6761C109.239 98.2045 109.168 97.7884 109.026 97.4276C108.884 97.0668 108.674 96.7841 108.396 96.5795C108.117 96.375 107.773 96.2727 107.364 96.2727C106.938 96.2727 106.583 96.3807 106.299 96.5966C106.018 96.8125 105.806 97.1023 105.664 97.4659C105.525 97.8295 105.455 98.233 105.455 98.6761C105.455 99.1307 105.526 99.5327 105.668 99.8821C105.813 100.229 106.026 100.501 106.308 100.7C106.592 100.896 106.944 100.994 107.364 100.994ZM114.813 102.136C114.183 102.136 113.638 101.997 113.181 101.719C112.727 101.438 112.376 101.045 112.129 100.543C111.884 100.037 111.762 99.4489 111.762 98.7784C111.762 98.108 111.884 97.517 112.129 97.0057C112.376 96.4915 112.719 96.0909 113.16 95.804C113.603 95.5142 114.12 95.3693 114.711 95.3693C115.052 95.3693 115.388 95.4261 115.721 95.5398C116.053 95.6534 116.356 95.8381 116.629 96.0938C116.901 96.3466 117.119 96.6818 117.281 97.0994C117.442 97.517 117.523 98.0312 117.523 98.642V99.0682H112.478V98.1989H116.501C116.501 97.8295 116.427 97.5 116.279 97.2102C116.134 96.9205 115.927 96.6918 115.657 96.5241C115.39 96.3565 115.075 96.2727 114.711 96.2727C114.31 96.2727 113.964 96.3722 113.671 96.571C113.381 96.767 113.158 97.0227 113.002 97.3381C112.846 97.6534 112.768 97.9915 112.768 98.3523V98.9318C112.768 99.4261 112.853 99.8452 113.023 100.189C113.197 100.53 113.437 100.79 113.744 100.969C114.05 101.145 114.407 101.233 114.813 101.233C115.077 101.233 115.316 101.196 115.529 101.122C115.745 101.045 115.931 100.932 116.087 100.781C116.244 100.628 116.364 100.437 116.45 100.21L117.421 100.483C117.319 100.812 117.147 101.102 116.906 101.352C116.664 101.599 116.366 101.793 116.011 101.932C115.656 102.068 115.256 102.136 114.813 102.136ZM121.525 102.136C120.979 102.136 120.498 101.999 120.08 101.723C119.663 101.445 119.336 101.053 119.1 100.547C118.864 100.038 118.746 99.4375 118.746 98.7443C118.746 98.0568 118.864 97.4602 119.1 96.9545C119.336 96.4489 119.664 96.0582 120.085 95.7827C120.505 95.5071 120.991 95.3693 121.542 95.3693C121.968 95.3693 122.305 95.4403 122.552 95.5824C122.802 95.7216 122.992 95.8807 123.123 96.0597C123.256 96.2358 123.36 96.3807 123.434 96.4943H123.519V93.2727H124.525V102H123.553V100.994H123.434C123.36 101.114 123.255 101.264 123.119 101.446C122.982 101.625 122.788 101.786 122.535 101.928C122.282 102.067 121.945 102.136 121.525 102.136ZM121.661 101.233C122.065 101.233 122.406 101.128 122.684 100.918C122.962 100.705 123.174 100.411 123.319 100.036C123.464 99.6577 123.536 99.2216 123.536 98.7273C123.536 98.2386 123.465 97.8111 123.323 97.4446C123.181 97.0753 122.971 96.7884 122.692 96.5838C122.414 96.3764 122.07 96.2727 121.661 96.2727C121.235 96.2727 120.88 96.3821 120.596 96.6009C120.315 96.8168 120.103 97.1108 119.961 97.483C119.822 97.8523 119.752 98.267 119.752 98.7273C119.752 99.1932 119.823 99.6165 119.965 99.9972C120.11 100.375 120.323 100.676 120.604 100.901C120.888 101.122 121.241 101.233 121.661 101.233ZM129.66 100.21V99.3409L133.495 93.2727H134.126V94.6193H133.7L130.802 99.2045V99.2727H135.967V100.21H129.66ZM133.768 102V99.946V99.5412V93.2727H134.773V102H133.768ZM137.903 102.068C137.693 102.068 137.513 101.993 137.362 101.842C137.212 101.692 137.136 101.511 137.136 101.301C137.136 101.091 137.212 100.911 137.362 100.76C137.513 100.609 137.693 100.534 137.903 100.534C138.114 100.534 138.294 100.609 138.445 100.76C138.595 100.911 138.67 101.091 138.67 101.301C138.67 101.44 138.635 101.568 138.564 101.685C138.496 101.801 138.403 101.895 138.287 101.966C138.173 102.034 138.045 102.068 137.903 102.068ZM140.458 102V101.233L143.339 98.0795C143.677 97.7102 143.955 97.3892 144.174 97.1165C144.393 96.8409 144.555 96.5824 144.66 96.3409C144.768 96.0966 144.822 95.8409 144.822 95.5739C144.822 95.267 144.748 95.0014 144.6 94.777C144.455 94.5526 144.256 94.3793 144.004 94.2571C143.751 94.1349 143.467 94.0739 143.151 94.0739C142.816 94.0739 142.523 94.1435 142.273 94.2827C142.026 94.419 141.835 94.6108 141.698 94.858C141.565 95.1051 141.498 95.3949 141.498 95.7273H140.492C140.492 95.2159 140.61 94.767 140.846 94.3807C141.082 93.9943 141.403 93.6932 141.809 93.4773C142.218 93.2614 142.677 93.1534 143.185 93.1534C143.697 93.1534 144.15 93.2614 144.545 93.4773C144.94 93.6932 145.249 93.9844 145.474 94.3509C145.698 94.7173 145.81 95.125 145.81 95.5739C145.81 95.8949 145.752 96.2088 145.636 96.5156C145.522 96.8196 145.323 97.1591 145.039 97.5341C144.758 97.9062 144.367 98.3608 143.867 98.8977L141.907 100.994V101.062H145.964V102H140.458ZM152.121 98.0625V102H151.116V93.2727H152.121V96.4773H152.207C152.36 96.1392 152.59 95.8707 152.897 95.6719C153.207 95.4702 153.619 95.3693 154.133 95.3693C154.579 95.3693 154.969 95.4588 155.305 95.6378C155.64 95.8139 155.9 96.0852 156.085 96.4517C156.272 96.8153 156.366 97.2784 156.366 97.8409V102H155.36V97.9091C155.36 97.3892 155.225 96.9872 154.955 96.7031C154.688 96.4162 154.317 96.2727 153.843 96.2727C153.513 96.2727 153.218 96.3423 152.957 96.4815C152.698 96.6207 152.494 96.8239 152.343 97.0909C152.195 97.358 152.121 97.6818 152.121 98.0625ZM160.865 102.136C160.274 102.136 159.755 101.996 159.309 101.714C158.866 101.433 158.52 101.04 158.27 100.534C158.022 100.028 157.899 99.4375 157.899 98.7614C157.899 98.0795 158.022 97.4844 158.27 96.9759C158.52 96.4673 158.866 96.0724 159.309 95.7912C159.755 95.5099 160.274 95.3693 160.865 95.3693C161.456 95.3693 161.973 95.5099 162.416 95.7912C162.862 96.0724 163.208 96.4673 163.456 96.9759C163.706 97.4844 163.831 98.0795 163.831 98.7614C163.831 99.4375 163.706 100.028 163.456 100.534C163.208 101.04 162.862 101.433 162.416 101.714C161.973 101.996 161.456 102.136 160.865 102.136ZM160.865 101.233C161.314 101.233 161.683 101.118 161.973 100.888C162.262 100.658 162.477 100.355 162.616 99.9801C162.755 99.6051 162.825 99.1989 162.825 98.7614C162.825 98.3239 162.755 97.9162 162.616 97.5384C162.477 97.1605 162.262 96.8551 161.973 96.6222C161.683 96.3892 161.314 96.2727 160.865 96.2727C160.416 96.2727 160.047 96.3892 159.757 96.6222C159.467 96.8551 159.252 97.1605 159.113 97.5384C158.974 97.9162 158.904 98.3239 158.904 98.7614C158.904 99.1989 158.974 99.6051 159.113 99.9801C159.252 100.355 159.467 100.658 159.757 100.888C160.047 101.118 160.416 101.233 160.865 101.233ZM169.491 99.3239V95.4545H170.496V102H169.491V100.892H169.423C169.269 101.224 169.031 101.507 168.707 101.74C168.383 101.97 167.974 102.085 167.479 102.085C167.07 102.085 166.707 101.996 166.388 101.817C166.07 101.635 165.82 101.362 165.638 100.999C165.457 100.632 165.366 100.17 165.366 99.6136V95.4545H166.371V99.5455C166.371 100.023 166.505 100.403 166.772 100.688C167.042 100.972 167.386 101.114 167.803 101.114C168.053 101.114 168.308 101.05 168.566 100.922C168.827 100.794 169.046 100.598 169.222 100.334C169.401 100.07 169.491 99.733 169.491 99.3239ZM172.338 102V95.4545H173.31V96.4432H173.378C173.498 96.1193 173.713 95.8565 174.026 95.6548C174.338 95.4531 174.691 95.3523 175.083 95.3523C175.157 95.3523 175.249 95.3537 175.36 95.3565C175.471 95.3594 175.554 95.3636 175.611 95.3693V96.392C175.577 96.3835 175.499 96.3707 175.377 96.3537C175.257 96.3338 175.131 96.3239 174.998 96.3239C174.679 96.3239 174.395 96.3906 174.145 96.5241C173.898 96.6548 173.702 96.8366 173.557 97.0696C173.415 97.2997 173.344 97.5625 173.344 97.858V102H172.338ZM181.44 96.9205L180.536 97.1761C180.479 97.0256 180.396 96.8793 180.285 96.7372C180.177 96.5923 180.029 96.473 179.842 96.3793C179.654 96.2855 179.414 96.2386 179.121 96.2386C178.721 96.2386 178.387 96.331 178.12 96.5156C177.856 96.6974 177.724 96.929 177.724 97.2102C177.724 97.4602 177.815 97.6577 177.996 97.8026C178.178 97.9474 178.462 98.0682 178.849 98.1648L179.82 98.4034C180.406 98.5455 180.842 98.7628 181.129 99.0554C181.415 99.3452 181.559 99.7187 181.559 100.176C181.559 100.551 181.451 100.886 181.235 101.182C181.022 101.477 180.724 101.71 180.34 101.881C179.957 102.051 179.511 102.136 179.002 102.136C178.335 102.136 177.782 101.991 177.344 101.702C176.907 101.412 176.63 100.989 176.513 100.432L177.468 100.193C177.559 100.545 177.731 100.81 177.984 100.986C178.239 101.162 178.573 101.25 178.985 101.25C179.454 101.25 179.826 101.151 180.102 100.952C180.38 100.75 180.519 100.509 180.519 100.227C180.519 100 180.44 99.8097 180.281 99.6562C180.121 99.5 179.877 99.3835 179.548 99.3068L178.457 99.0511C177.857 98.9091 177.417 98.6889 177.136 98.3906C176.857 98.0895 176.718 97.7131 176.718 97.2614C176.718 96.892 176.822 96.5653 177.029 96.2812C177.239 95.9972 177.525 95.7741 177.886 95.6122C178.249 95.4503 178.661 95.3693 179.121 95.3693C179.769 95.3693 180.278 95.5114 180.647 95.7955C181.019 96.0795 181.283 96.4545 181.44 96.9205ZM189.107 102.136C188.516 102.136 187.998 101.996 187.551 101.714C187.108 101.433 186.762 101.04 186.512 100.534C186.265 100.028 186.141 99.4375 186.141 98.7614C186.141 98.0795 186.265 97.4844 186.512 96.9759C186.762 96.4673 187.108 96.0724 187.551 95.7912C187.998 95.5099 188.516 95.3693 189.107 95.3693C189.698 95.3693 190.215 95.5099 190.658 95.7912C191.104 96.0724 191.451 96.4673 191.698 96.9759C191.948 97.4844 192.073 98.0795 192.073 98.7614C192.073 99.4375 191.948 100.028 191.698 100.534C191.451 101.04 191.104 101.433 190.658 101.714C190.215 101.996 189.698 102.136 189.107 102.136ZM189.107 101.233C189.556 101.233 189.925 101.118 190.215 100.888C190.505 100.658 190.719 100.355 190.858 99.9801C190.998 99.6051 191.067 99.1989 191.067 98.7614C191.067 98.3239 190.998 97.9162 190.858 97.5384C190.719 97.1605 190.505 96.8551 190.215 96.6222C189.925 96.3892 189.556 96.2727 189.107 96.2727C188.658 96.2727 188.289 96.3892 187.999 96.6222C187.709 96.8551 187.495 97.1605 187.355 97.5384C187.216 97.9162 187.147 98.3239 187.147 98.7614C187.147 99.1989 187.216 99.6051 187.355 99.9801C187.495 100.355 187.709 100.658 187.999 100.888C188.289 101.118 188.658 101.233 189.107 101.233ZM196.523 95.4545V96.3068H192.994V95.4545H196.523ZM194.051 102V94.5511C194.051 94.1761 194.139 93.8636 194.315 93.6136C194.491 93.3636 194.72 93.1761 195.001 93.0511C195.283 92.9261 195.58 92.8636 195.892 92.8636C196.139 92.8636 196.341 92.8835 196.497 92.9233C196.653 92.9631 196.77 93 196.847 93.0341L196.557 93.9034C196.506 93.8864 196.435 93.8651 196.344 93.8395C196.256 93.8139 196.139 93.8011 195.994 93.8011C195.662 93.8011 195.422 93.8849 195.274 94.0526C195.129 94.2202 195.057 94.4659 195.057 94.7898V102H194.051ZM32.9205 118V111.455H33.892V112.443H33.9602C34.0795 112.119 34.2955 111.857 34.608 111.655C34.9205 111.453 35.2727 111.352 35.6648 111.352C35.7386 111.352 35.831 111.354 35.9418 111.357C36.0526 111.359 36.1364 111.364 36.1932 111.369V112.392C36.1591 112.384 36.081 112.371 35.9588 112.354C35.8395 112.334 35.7131 112.324 35.5795 112.324C35.2614 112.324 34.9773 112.391 34.7273 112.524C34.4801 112.655 34.2841 112.837 34.1392 113.07C33.9972 113.3 33.9261 113.562 33.9261 113.858V118H32.9205ZM39.9304 118.136C39.2997 118.136 38.7557 117.997 38.2983 117.719C37.8438 117.438 37.4929 117.045 37.2457 116.543C37.0014 116.037 36.8793 115.449 36.8793 114.778C36.8793 114.108 37.0014 113.517 37.2457 113.006C37.4929 112.491 37.8366 112.091 38.277 111.804C38.7202 111.514 39.2372 111.369 39.8281 111.369C40.169 111.369 40.5057 111.426 40.8381 111.54C41.1705 111.653 41.473 111.838 41.7457 112.094C42.0185 112.347 42.2358 112.682 42.3977 113.099C42.5597 113.517 42.6406 114.031 42.6406 114.642V115.068H37.5952V114.199H41.6179C41.6179 113.83 41.544 113.5 41.3963 113.21C41.2514 112.92 41.044 112.692 40.7741 112.524C40.5071 112.357 40.1918 112.273 39.8281 112.273C39.4276 112.273 39.081 112.372 38.7884 112.571C38.4986 112.767 38.2756 113.023 38.1193 113.338C37.9631 113.653 37.8849 113.991 37.8849 114.352V114.932C37.8849 115.426 37.9702 115.845 38.1406 116.189C38.3139 116.53 38.554 116.79 38.8608 116.969C39.1676 117.145 39.5241 117.233 39.9304 117.233C40.1946 117.233 40.4332 117.196 40.6463 117.122C40.8622 117.045 41.0483 116.932 41.2045 116.781C41.3608 116.628 41.4815 116.437 41.5668 116.21L42.5384 116.483C42.4361 116.812 42.2642 117.102 42.0227 117.352C41.7813 117.599 41.483 117.793 41.1278 117.932C40.7727 118.068 40.3736 118.136 39.9304 118.136ZM46.8295 118.136C46.2159 118.136 45.6875 117.991 45.2443 117.702C44.8011 117.412 44.4602 117.013 44.2216 116.504C43.983 115.996 43.8636 115.415 43.8636 114.761C43.8636 114.097 43.9858 113.51 44.2301 113.001C44.4773 112.49 44.821 112.091 45.2614 111.804C45.7045 111.514 46.2216 111.369 46.8125 111.369C47.2727 111.369 47.6875 111.455 48.0568 111.625C48.4261 111.795 48.7287 112.034 48.9645 112.341C49.2003 112.648 49.3466 113.006 49.4034 113.415H48.3977C48.321 113.116 48.1506 112.852 47.8864 112.622C47.625 112.389 47.2727 112.273 46.8295 112.273C46.4375 112.273 46.0938 112.375 45.7983 112.58C45.5057 112.781 45.277 113.067 45.1122 113.436C44.9503 113.803 44.8693 114.233 44.8693 114.727C44.8693 115.233 44.9489 115.673 45.108 116.048C45.2699 116.423 45.4972 116.714 45.7898 116.922C46.0852 117.129 46.4318 117.233 46.8295 117.233C47.0909 117.233 47.3281 117.188 47.5412 117.097C47.7543 117.006 47.9347 116.875 48.0824 116.705C48.2301 116.534 48.3352 116.33 48.3977 116.091H49.4034C49.3466 116.477 49.206 116.825 48.9815 117.135C48.7599 117.442 48.4659 117.686 48.0994 117.868C47.7358 118.047 47.3125 118.136 46.8295 118.136ZM53.5327 118.136C52.9418 118.136 52.4233 117.996 51.9773 117.714C51.5341 117.433 51.1875 117.04 50.9375 116.534C50.6903 116.028 50.5668 115.437 50.5668 114.761C50.5668 114.08 50.6903 113.484 50.9375 112.976C51.1875 112.467 51.5341 112.072 51.9773 111.791C52.4233 111.51 52.9418 111.369 53.5327 111.369C54.1236 111.369 54.6406 111.51 55.0838 111.791C55.5298 112.072 55.8764 112.467 56.1236 112.976C56.3736 113.484 56.4986 114.08 56.4986 114.761C56.4986 115.437 56.3736 116.028 56.1236 116.534C55.8764 117.04 55.5298 117.433 55.0838 117.714C54.6406 117.996 54.1236 118.136 53.5327 118.136ZM53.5327 117.233C53.9815 117.233 54.3509 117.118 54.6406 116.888C54.9304 116.658 55.1449 116.355 55.2841 115.98C55.4233 115.605 55.4929 115.199 55.4929 114.761C55.4929 114.324 55.4233 113.916 55.2841 113.538C55.1449 113.161 54.9304 112.855 54.6406 112.622C54.3509 112.389 53.9815 112.273 53.5327 112.273C53.0838 112.273 52.7145 112.389 52.4247 112.622C52.1349 112.855 51.9205 113.161 51.7812 113.538C51.642 113.916 51.5724 114.324 51.5724 114.761C51.5724 115.199 51.642 115.605 51.7812 115.98C51.9205 116.355 52.1349 116.658 52.4247 116.888C52.7145 117.118 53.0838 117.233 53.5327 117.233ZM58.0337 118V111.455H59.0053V112.443H59.0735C59.1928 112.119 59.4087 111.857 59.7212 111.655C60.0337 111.453 60.386 111.352 60.7781 111.352C60.8519 111.352 60.9442 111.354 61.055 111.357C61.1658 111.359 61.2496 111.364 61.3065 111.369V112.392C61.2724 112.384 61.1942 112.371 61.0721 112.354C60.9528 112.334 60.8263 112.324 60.6928 112.324C60.3746 112.324 60.0906 112.391 59.8406 112.524C59.5934 112.655 59.3974 112.837 59.2525 113.07C59.1104 113.3 59.0394 113.562 59.0394 113.858V118H58.0337ZM64.771 118.136C64.2255 118.136 63.744 117.999 63.3263 117.723C62.9087 117.445 62.582 117.053 62.3462 116.547C62.1104 116.038 61.9925 115.438 61.9925 114.744C61.9925 114.057 62.1104 113.46 62.3462 112.955C62.582 112.449 62.9102 112.058 63.3306 111.783C63.7511 111.507 64.2369 111.369 64.788 111.369C65.2141 111.369 65.5508 111.44 65.7979 111.582C66.0479 111.722 66.2383 111.881 66.369 112.06C66.5025 112.236 66.6062 112.381 66.68 112.494H66.7653V109.273H67.771V118H66.7994V116.994H66.68C66.6062 117.114 66.5011 117.264 66.3647 117.446C66.2283 117.625 66.0337 117.786 65.7809 117.928C65.5281 118.067 65.1914 118.136 64.771 118.136ZM64.9073 117.233C65.3107 117.233 65.6516 117.128 65.93 116.918C66.2085 116.705 66.4201 116.411 66.565 116.036C66.7099 115.658 66.7823 115.222 66.7823 114.727C66.7823 114.239 66.7113 113.811 66.5692 113.445C66.4272 113.075 66.217 112.788 65.9386 112.584C65.6602 112.376 65.3164 112.273 64.9073 112.273C64.4812 112.273 64.1261 112.382 63.842 112.601C63.5607 112.817 63.3491 113.111 63.207 113.483C63.0678 113.852 62.9982 114.267 62.9982 114.727C62.9982 115.193 63.0692 115.616 63.2113 115.997C63.3562 116.375 63.5692 116.676 63.8505 116.901C64.1346 117.122 64.4869 117.233 64.9073 117.233ZM69.7525 118V111.455H70.7582V118H69.7525ZM70.2638 110.364C70.0678 110.364 69.8988 110.297 69.7567 110.163C69.6175 110.03 69.5479 109.869 69.5479 109.682C69.5479 109.494 69.6175 109.334 69.7567 109.2C69.8988 109.067 70.0678 109 70.2638 109C70.4599 109 70.6275 109.067 70.7667 109.2C70.9087 109.334 70.9798 109.494 70.9798 109.682C70.9798 109.869 70.9087 110.03 70.7667 110.163C70.6275 110.297 70.4599 110.364 70.2638 110.364ZM73.6058 114.062V118H72.6001V111.455H73.5717V112.477H73.657C73.8104 112.145 74.0433 111.878 74.3558 111.676C74.6683 111.472 75.0717 111.369 75.5661 111.369C76.0092 111.369 76.397 111.46 76.7294 111.642C77.0618 111.821 77.3203 112.094 77.505 112.46C77.6896 112.824 77.782 113.284 77.782 113.841V118H76.7763V113.909C76.7763 113.395 76.6428 112.994 76.3757 112.707C76.1087 112.418 75.7422 112.273 75.2763 112.273C74.9553 112.273 74.6683 112.342 74.4155 112.482C74.1655 112.621 73.968 112.824 73.8232 113.091C73.6783 113.358 73.6058 113.682 73.6058 114.062ZM82.2617 120.591C81.7759 120.591 81.3583 120.528 81.0089 120.403C80.6594 120.281 80.3683 120.119 80.1353 119.918C79.9052 119.719 79.7219 119.506 79.5856 119.278L80.3867 118.716C80.4776 118.835 80.5927 118.972 80.7319 119.125C80.8711 119.281 81.0614 119.416 81.3029 119.53C81.5472 119.646 81.8668 119.705 82.2617 119.705C82.7901 119.705 83.2262 119.577 83.57 119.321C83.9137 119.065 84.0856 118.665 84.0856 118.119V116.79H84.0004C83.9265 116.909 83.8214 117.057 83.685 117.233C83.5515 117.406 83.3583 117.561 83.1055 117.697C82.8555 117.831 82.5174 117.898 82.0913 117.898C81.5629 117.898 81.0884 117.773 80.668 117.523C80.2504 117.273 79.9194 116.909 79.6751 116.432C79.4336 115.955 79.3129 115.375 79.3129 114.693C79.3129 114.023 79.4308 113.439 79.6665 112.942C79.9023 112.442 80.2305 112.055 80.6509 111.783C81.0714 111.507 81.5572 111.369 82.1083 111.369C82.5344 111.369 82.8725 111.44 83.1225 111.582C83.3754 111.722 83.5685 111.881 83.7021 112.06C83.8384 112.236 83.9435 112.381 84.0174 112.494H84.1197V111.455H85.0913V118.188C85.0913 118.75 84.9634 119.207 84.7077 119.56C84.4549 119.915 84.114 120.175 83.685 120.339C83.2589 120.507 82.7844 120.591 82.2617 120.591ZM82.2276 116.994C82.631 116.994 82.9719 116.902 83.2504 116.717C83.5288 116.533 83.7404 116.267 83.8853 115.92C84.0302 115.574 84.1026 115.159 84.1026 114.676C84.1026 114.205 84.0316 113.788 83.8896 113.428C83.7475 113.067 83.5373 112.784 83.2589 112.58C82.9805 112.375 82.6367 112.273 82.2276 112.273C81.8015 112.273 81.4464 112.381 81.1623 112.597C80.881 112.812 80.6694 113.102 80.5273 113.466C80.3881 113.83 80.3185 114.233 80.3185 114.676C80.3185 115.131 80.3896 115.533 80.5316 115.882C80.6765 116.229 80.8896 116.501 81.1708 116.7C81.4549 116.896 81.8072 116.994 82.2276 116.994ZM93.1538 111.455V112.307H89.7617V111.455H93.1538ZM90.7504 109.886H91.756V116.125C91.756 116.409 91.7972 116.622 91.8796 116.764C91.9648 116.903 92.0728 116.997 92.2035 117.045C92.337 117.091 92.4776 117.114 92.6254 117.114C92.7362 117.114 92.8271 117.108 92.8981 117.097C92.9691 117.082 93.0259 117.071 93.0685 117.062L93.2731 117.966C93.2049 117.991 93.1097 118.017 92.9876 118.043C92.8654 118.071 92.7106 118.085 92.5231 118.085C92.239 118.085 91.9606 118.024 91.6879 117.902C91.418 117.78 91.1935 117.594 91.0146 117.344C90.8384 117.094 90.7504 116.778 90.7504 116.398V109.886ZM95.8129 114.062V118H94.8072V109.273H95.8129V112.477H95.8981C96.0515 112.139 96.2816 111.871 96.5884 111.672C96.8981 111.47 97.31 111.369 97.8242 111.369C98.2702 111.369 98.6609 111.459 98.9961 111.638C99.3313 111.814 99.5913 112.085 99.7759 112.452C99.9634 112.815 100.057 113.278 100.057 113.841V118H99.0515V113.909C99.0515 113.389 98.9165 112.987 98.6467 112.703C98.3796 112.416 98.0089 112.273 97.5344 112.273C97.2049 112.273 96.9094 112.342 96.6481 112.482C96.3896 112.621 96.185 112.824 96.0344 113.091C95.8867 113.358 95.8129 113.682 95.8129 114.062ZM101.897 118V111.455H102.903V118H101.897ZM102.408 110.364C102.212 110.364 102.043 110.297 101.901 110.163C101.762 110.03 101.692 109.869 101.692 109.682C101.692 109.494 101.762 109.334 101.901 109.2C102.043 109.067 102.212 109 102.408 109C102.604 109 102.772 109.067 102.911 109.2C103.053 109.334 103.124 109.494 103.124 109.682C103.124 109.869 103.053 110.03 102.911 110.163C102.772 110.297 102.604 110.364 102.408 110.364ZM109.381 112.92L108.478 113.176C108.421 113.026 108.337 112.879 108.226 112.737C108.118 112.592 107.971 112.473 107.783 112.379C107.596 112.286 107.355 112.239 107.063 112.239C106.662 112.239 106.328 112.331 106.061 112.516C105.797 112.697 105.665 112.929 105.665 113.21C105.665 113.46 105.756 113.658 105.938 113.803C106.12 113.947 106.404 114.068 106.79 114.165L107.762 114.403C108.347 114.545 108.783 114.763 109.07 115.055C109.357 115.345 109.5 115.719 109.5 116.176C109.5 116.551 109.392 116.886 109.176 117.182C108.963 117.477 108.665 117.71 108.282 117.881C107.898 118.051 107.452 118.136 106.944 118.136C106.276 118.136 105.723 117.991 105.286 117.702C104.848 117.412 104.571 116.989 104.455 116.432L105.409 116.193C105.5 116.545 105.672 116.81 105.925 116.986C106.181 117.162 106.515 117.25 106.926 117.25C107.395 117.25 107.767 117.151 108.043 116.952C108.321 116.75 108.461 116.509 108.461 116.227C108.461 116 108.381 115.81 108.222 115.656C108.063 115.5 107.819 115.384 107.489 115.307L106.398 115.051C105.799 114.909 105.358 114.689 105.077 114.391C104.799 114.089 104.659 113.713 104.659 113.261C104.659 112.892 104.763 112.565 104.971 112.281C105.181 111.997 105.466 111.774 105.827 111.612C106.191 111.45 106.603 111.369 107.063 111.369C107.711 111.369 108.219 111.511 108.588 111.795C108.961 112.08 109.225 112.455 109.381 112.92ZM115.872 118L113.878 111.455H114.935L116.349 116.466H116.418L117.815 111.455H118.889L120.27 116.449H120.338L121.753 111.455H122.81L120.815 118H119.827L118.395 112.972H118.293L116.861 118H115.872ZM126.661 118.136C126.03 118.136 125.486 117.997 125.029 117.719C124.574 117.438 124.223 117.045 123.976 116.543C123.732 116.037 123.61 115.449 123.61 114.778C123.61 114.108 123.732 113.517 123.976 113.006C124.223 112.491 124.567 112.091 125.007 111.804C125.451 111.514 125.968 111.369 126.559 111.369C126.9 111.369 127.236 111.426 127.569 111.54C127.901 111.653 128.203 111.838 128.476 112.094C128.749 112.347 128.966 112.682 129.128 113.099C129.29 113.517 129.371 114.031 129.371 114.642V115.068H124.326V114.199H128.348C128.348 113.83 128.275 113.5 128.127 113.21C127.982 112.92 127.775 112.692 127.505 112.524C127.238 112.357 126.922 112.273 126.559 112.273C126.158 112.273 125.811 112.372 125.519 112.571C125.229 112.767 125.006 113.023 124.85 113.338C124.694 113.653 124.615 113.991 124.615 114.352V114.932C124.615 115.426 124.701 115.845 124.871 116.189C125.044 116.53 125.284 116.79 125.591 116.969C125.898 117.145 126.255 117.233 126.661 117.233C126.925 117.233 127.164 117.196 127.377 117.122C127.593 117.045 127.779 116.932 127.935 116.781C128.091 116.628 128.212 116.437 128.297 116.21L129.269 116.483C129.167 116.812 128.995 117.102 128.753 117.352C128.512 117.599 128.213 117.793 127.858 117.932C127.503 118.068 127.104 118.136 126.661 118.136ZM133.645 118.136C133.015 118.136 132.471 117.997 132.013 117.719C131.559 117.438 131.208 117.045 130.961 116.543C130.716 116.037 130.594 115.449 130.594 114.778C130.594 114.108 130.716 113.517 130.961 113.006C131.208 112.491 131.551 112.091 131.992 111.804C132.435 111.514 132.952 111.369 133.543 111.369C133.884 111.369 134.221 111.426 134.553 111.54C134.885 111.653 135.188 111.838 135.461 112.094C135.733 112.347 135.951 112.682 136.113 113.099C136.275 113.517 136.355 114.031 136.355 114.642V115.068H131.31V114.199H135.333C135.333 113.83 135.259 113.5 135.111 113.21C134.966 112.92 134.759 112.692 134.489 112.524C134.222 112.357 133.907 112.273 133.543 112.273C133.142 112.273 132.796 112.372 132.503 112.571C132.213 112.767 131.99 113.023 131.834 113.338C131.678 113.653 131.6 113.991 131.6 114.352V114.932C131.6 115.426 131.685 115.845 131.855 116.189C132.029 116.53 132.269 116.79 132.576 116.969C132.882 117.145 133.239 117.233 133.645 117.233C133.909 117.233 134.148 117.196 134.361 117.122C134.577 117.045 134.763 116.932 134.919 116.781C135.076 116.628 135.196 116.437 135.282 116.21L136.253 116.483C136.151 116.812 135.979 117.102 135.738 117.352C135.496 117.599 135.198 117.793 134.843 117.932C134.488 118.068 134.088 118.136 133.645 118.136ZM138.823 115.614L138.806 114.369H139.01L141.874 111.455H143.118L140.067 114.54H139.982L138.823 115.614ZM137.885 118V109.273H138.891V118H137.885ZM142.044 118L139.488 114.761L140.203 114.062L143.323 118H142.044ZM145.146 118.068C144.935 118.068 144.755 117.993 144.604 117.842C144.454 117.692 144.379 117.511 144.379 117.301C144.379 117.091 144.454 116.911 144.604 116.76C144.755 116.609 144.935 116.534 145.146 116.534C145.356 116.534 145.536 116.609 145.687 116.76C145.837 116.911 145.913 117.091 145.913 117.301C145.913 117.44 145.877 117.568 145.806 117.685C145.738 117.801 145.646 117.895 145.529 117.966C145.415 118.034 145.288 118.068 145.146 118.068ZM158.251 112H157.195C157.132 111.696 157.023 111.429 156.866 111.199C156.713 110.969 156.526 110.776 156.304 110.619C156.085 110.46 155.842 110.341 155.575 110.261C155.308 110.182 155.03 110.142 154.74 110.142C154.212 110.142 153.733 110.276 153.304 110.543C152.878 110.81 152.538 111.203 152.286 111.723C152.036 112.243 151.911 112.881 151.911 113.636C151.911 114.392 152.036 115.03 152.286 115.55C152.538 116.07 152.878 116.463 153.304 116.73C153.733 116.997 154.212 117.131 154.74 117.131C155.03 117.131 155.308 117.091 155.575 117.011C155.842 116.932 156.085 116.814 156.304 116.658C156.526 116.499 156.713 116.304 156.866 116.074C157.023 115.841 157.132 115.574 157.195 115.273H158.251C158.172 115.719 158.027 116.118 157.817 116.47C157.607 116.822 157.345 117.122 157.033 117.369C156.72 117.614 156.369 117.8 155.98 117.928C155.594 118.055 155.18 118.119 154.74 118.119C153.996 118.119 153.334 117.938 152.754 117.574C152.175 117.21 151.719 116.693 151.386 116.023C151.054 115.352 150.888 114.557 150.888 113.636C150.888 112.716 151.054 111.92 151.386 111.25C151.719 110.58 152.175 110.062 152.754 109.699C153.334 109.335 153.996 109.153 154.74 109.153C155.18 109.153 155.594 109.217 155.98 109.345C156.369 109.473 156.72 109.661 157.033 109.908C157.345 110.152 157.607 110.45 157.817 110.803C158.027 111.152 158.172 111.551 158.251 112ZM162.482 118.136C161.891 118.136 161.373 117.996 160.926 117.714C160.483 117.433 160.137 117.04 159.887 116.534C159.64 116.028 159.516 115.437 159.516 114.761C159.516 114.08 159.64 113.484 159.887 112.976C160.137 112.467 160.483 112.072 160.926 111.791C161.373 111.51 161.891 111.369 162.482 111.369C163.073 111.369 163.59 111.51 164.033 111.791C164.479 112.072 164.826 112.467 165.073 112.976C165.323 113.484 165.448 114.08 165.448 114.761C165.448 115.437 165.323 116.028 165.073 116.534C164.826 117.04 164.479 117.433 164.033 117.714C163.59 117.996 163.073 118.136 162.482 118.136ZM162.482 117.233C162.931 117.233 163.3 117.118 163.59 116.888C163.88 116.658 164.094 116.355 164.233 115.98C164.373 115.605 164.442 115.199 164.442 114.761C164.442 114.324 164.373 113.916 164.233 113.538C164.094 113.161 163.88 112.855 163.59 112.622C163.3 112.389 162.931 112.273 162.482 112.273C162.033 112.273 161.664 112.389 161.374 112.622C161.084 112.855 160.87 113.161 160.73 113.538C160.591 113.916 160.522 114.324 160.522 114.761C160.522 115.199 160.591 115.605 160.73 115.98C160.87 116.355 161.084 116.658 161.374 116.888C161.664 117.118 162.033 117.233 162.482 117.233ZM167.989 114.062V118H166.983V111.455H167.955V112.477H168.04C168.193 112.145 168.426 111.878 168.739 111.676C169.051 111.472 169.455 111.369 169.949 111.369C170.392 111.369 170.78 111.46 171.112 111.642C171.445 111.821 171.703 112.094 171.888 112.46C172.072 112.824 172.165 113.284 172.165 113.841V118H171.159V113.909C171.159 113.395 171.026 112.994 170.759 112.707C170.491 112.418 170.125 112.273 169.659 112.273C169.338 112.273 169.051 112.342 168.798 112.482C168.548 112.621 168.351 112.824 168.206 113.091C168.061 113.358 167.989 113.682 167.989 114.062ZM178.639 112.92L177.735 113.176C177.679 113.026 177.595 112.879 177.484 112.737C177.376 112.592 177.228 112.473 177.041 112.379C176.853 112.286 176.613 112.239 176.321 112.239C175.92 112.239 175.586 112.331 175.319 112.516C175.055 112.697 174.923 112.929 174.923 113.21C174.923 113.46 175.014 113.658 175.196 113.803C175.377 113.947 175.662 114.068 176.048 114.165L177.02 114.403C177.605 114.545 178.041 114.763 178.328 115.055C178.615 115.345 178.758 115.719 178.758 116.176C178.758 116.551 178.65 116.886 178.434 117.182C178.221 117.477 177.923 117.71 177.539 117.881C177.156 118.051 176.71 118.136 176.201 118.136C175.534 118.136 174.981 117.991 174.544 117.702C174.106 117.412 173.829 116.989 173.713 116.432L174.667 116.193C174.758 116.545 174.93 116.81 175.183 116.986C175.439 117.162 175.772 117.25 176.184 117.25C176.653 117.25 177.025 117.151 177.301 116.952C177.579 116.75 177.718 116.509 177.718 116.227C177.718 116 177.639 115.81 177.48 115.656C177.321 115.5 177.076 115.384 176.747 115.307L175.656 115.051C175.056 114.909 174.616 114.689 174.335 114.391C174.056 114.089 173.917 113.713 173.917 113.261C173.917 112.892 174.021 112.565 174.228 112.281C174.439 111.997 174.724 111.774 175.085 111.612C175.449 111.45 175.86 111.369 176.321 111.369C176.968 111.369 177.477 111.511 177.846 111.795C178.218 112.08 178.483 112.455 178.639 112.92ZM180.272 118V111.455H181.278V118H180.272ZM180.783 110.364C180.587 110.364 180.418 110.297 180.276 110.163C180.137 110.03 180.067 109.869 180.067 109.682C180.067 109.494 180.137 109.334 180.276 109.2C180.418 109.067 180.587 109 180.783 109C180.979 109 181.147 109.067 181.286 109.2C181.428 109.334 181.499 109.494 181.499 109.682C181.499 109.869 181.428 110.03 181.286 110.163C181.147 110.297 180.979 110.364 180.783 110.364ZM187.756 112.92L186.853 113.176C186.796 113.026 186.712 112.879 186.601 112.737C186.493 112.592 186.346 112.473 186.158 112.379C185.971 112.286 185.73 112.239 185.438 112.239C185.037 112.239 184.703 112.331 184.436 112.516C184.172 112.697 184.04 112.929 184.04 113.21C184.04 113.46 184.131 113.658 184.313 113.803C184.495 113.947 184.779 114.068 185.165 114.165L186.137 114.403C186.722 114.545 187.158 114.763 187.445 115.055C187.732 115.345 187.875 115.719 187.875 116.176C187.875 116.551 187.767 116.886 187.551 117.182C187.338 117.477 187.04 117.71 186.657 117.881C186.273 118.051 185.827 118.136 185.319 118.136C184.651 118.136 184.098 117.991 183.661 117.702C183.223 117.412 182.946 116.989 182.83 116.432L183.784 116.193C183.875 116.545 184.047 116.81 184.3 116.986C184.556 117.162 184.89 117.25 185.301 117.25C185.77 117.25 186.142 117.151 186.418 116.952C186.696 116.75 186.836 116.509 186.836 116.227C186.836 116 186.756 115.81 186.597 115.656C186.438 115.5 186.194 115.384 185.864 115.307L184.773 115.051C184.174 114.909 183.733 114.689 183.452 114.391C183.174 114.089 183.034 113.713 183.034 113.261C183.034 112.892 183.138 112.565 183.346 112.281C183.556 111.997 183.841 111.774 184.202 111.612C184.566 111.45 184.978 111.369 185.438 111.369C186.086 111.369 186.594 111.511 186.963 111.795C187.336 112.08 187.6 112.455 187.756 112.92ZM192.236 111.455V112.307H188.844V111.455H192.236ZM189.832 109.886H190.838V116.125C190.838 116.409 190.879 116.622 190.962 116.764C191.047 116.903 191.155 116.997 191.286 117.045C191.419 117.091 191.56 117.114 191.707 117.114C191.818 117.114 191.909 117.108 191.98 117.097C192.051 117.082 192.108 117.071 192.151 117.062L192.355 117.966C192.287 117.991 192.192 118.017 192.07 118.043C191.947 118.071 191.793 118.085 191.605 118.085C191.321 118.085 191.043 118.024 190.77 117.902C190.5 117.78 190.276 117.594 190.097 117.344C189.92 117.094 189.832 116.778 189.832 116.398V109.886ZM196.423 118.136C195.792 118.136 195.248 117.997 194.79 117.719C194.336 117.438 193.985 117.045 193.738 116.543C193.494 116.037 193.371 115.449 193.371 114.778C193.371 114.108 193.494 113.517 193.738 113.006C193.985 112.491 194.329 112.091 194.769 111.804C195.212 111.514 195.729 111.369 196.32 111.369C196.661 111.369 196.998 111.426 197.33 111.54C197.663 111.653 197.965 111.838 198.238 112.094C198.511 112.347 198.728 112.682 198.89 113.099C199.052 113.517 199.133 114.031 199.133 114.642V115.068H194.087V114.199H198.11C198.11 113.83 198.036 113.5 197.888 113.21C197.744 112.92 197.536 112.692 197.266 112.524C196.999 112.357 196.684 112.273 196.32 112.273C195.92 112.273 195.573 112.372 195.281 112.571C194.991 112.767 194.768 113.023 194.612 113.338C194.455 113.653 194.377 113.991 194.377 114.352V114.932C194.377 115.426 194.462 115.845 194.633 116.189C194.806 116.53 195.046 116.79 195.353 116.969C195.66 117.145 196.016 117.233 196.423 117.233C196.687 117.233 196.925 117.196 197.138 117.122C197.354 117.045 197.54 116.932 197.697 116.781C197.853 116.628 197.974 116.437 198.059 116.21L199.031 116.483C198.928 116.812 198.756 117.102 198.515 117.352C198.273 117.599 197.975 117.793 197.62 117.932C197.265 118.068 196.866 118.136 196.423 118.136ZM201.668 114.062V118H200.663V111.455H201.634V112.477H201.719C201.873 112.145 202.106 111.878 202.418 111.676C202.731 111.472 203.134 111.369 203.629 111.369C204.072 111.369 204.46 111.46 204.792 111.642C205.124 111.821 205.383 112.094 205.567 112.46C205.752 112.824 205.844 113.284 205.844 113.841V118H204.839V113.909C204.839 113.395 204.705 112.994 204.438 112.707C204.171 112.418 203.805 112.273 203.339 112.273C203.018 112.273 202.731 112.342 202.478 112.482C202.228 112.621 202.031 112.824 201.886 113.091C201.741 113.358 201.668 113.682 201.668 114.062ZM210.341 118.136C209.728 118.136 209.199 117.991 208.756 117.702C208.313 117.412 207.972 117.013 207.733 116.504C207.495 115.996 207.375 115.415 207.375 114.761C207.375 114.097 207.498 113.51 207.742 113.001C207.989 112.49 208.333 112.091 208.773 111.804C209.216 111.514 209.733 111.369 210.324 111.369C210.784 111.369 211.199 111.455 211.569 111.625C211.938 111.795 212.24 112.034 212.476 112.341C212.712 112.648 212.858 113.006 212.915 113.415H211.909C211.833 113.116 211.662 112.852 211.398 112.622C211.137 112.389 210.784 112.273 210.341 112.273C209.949 112.273 209.605 112.375 209.31 112.58C209.017 112.781 208.789 113.067 208.624 113.436C208.462 113.803 208.381 114.233 208.381 114.727C208.381 115.233 208.461 115.673 208.62 116.048C208.782 116.423 209.009 116.714 209.301 116.922C209.597 117.129 209.944 117.233 210.341 117.233C210.603 117.233 210.84 117.188 211.053 117.097C211.266 117.006 211.446 116.875 211.594 116.705C211.742 116.534 211.847 116.33 211.909 116.091H212.915C212.858 116.477 212.718 116.825 212.493 117.135C212.272 117.442 211.978 117.686 211.611 117.868C211.248 118.047 210.824 118.136 210.341 118.136ZM215.033 120.455C214.863 120.455 214.711 120.44 214.577 120.412C214.444 120.386 214.351 120.361 214.3 120.335L214.556 119.449C214.8 119.511 215.016 119.534 215.203 119.517C215.391 119.5 215.557 119.416 215.702 119.266C215.85 119.118 215.985 118.878 216.107 118.545L216.294 118.034L213.874 111.455H214.965L216.772 116.67H216.84L218.647 111.455H219.738L216.959 118.955C216.834 119.293 216.679 119.572 216.495 119.794C216.31 120.018 216.096 120.185 215.851 120.293C215.61 120.401 215.337 120.455 215.033 120.455ZM32.9205 134V127.455H33.9261V134H32.9205ZM33.4318 126.364C33.2358 126.364 33.0668 126.297 32.9247 126.163C32.7855 126.03 32.7159 125.869 32.7159 125.682C32.7159 125.494 32.7855 125.334 32.9247 125.2C33.0668 125.067 33.2358 125 33.4318 125C33.6278 125 33.7955 125.067 33.9347 125.2C34.0767 125.334 34.1477 125.494 34.1477 125.682C34.1477 125.869 34.0767 126.03 33.9347 126.163C33.7955 126.297 33.6278 126.364 33.4318 126.364ZM40.4045 128.92L39.5011 129.176C39.4442 129.026 39.3604 128.879 39.2496 128.737C39.1417 128.592 38.994 128.473 38.8065 128.379C38.619 128.286 38.3789 128.239 38.0863 128.239C37.6857 128.239 37.3519 128.331 37.0849 128.516C36.8207 128.697 36.6886 128.929 36.6886 129.21C36.6886 129.46 36.7795 129.658 36.9613 129.803C37.1431 129.947 37.4272 130.068 37.8136 130.165L38.7852 130.403C39.3704 130.545 39.8065 130.763 40.0934 131.055C40.3803 131.345 40.5238 131.719 40.5238 132.176C40.5238 132.551 40.4158 132.886 40.1999 133.182C39.9869 133.477 39.6886 133.71 39.305 133.881C38.9215 134.051 38.4755 134.136 37.967 134.136C37.2994 134.136 36.7468 133.991 36.3093 133.702C35.8718 133.412 35.5948 132.989 35.4783 132.432L36.4329 132.193C36.5238 132.545 36.6957 132.81 36.9485 132.986C37.2042 133.162 37.538 133.25 37.9499 133.25C38.4187 133.25 38.7908 133.151 39.0664 132.952C39.3448 132.75 39.484 132.509 39.484 132.227C39.484 132 39.4045 131.81 39.2454 131.656C39.0863 131.5 38.842 131.384 38.5124 131.307L37.4215 131.051C36.8221 130.909 36.3817 130.689 36.1005 130.391C35.8221 130.089 35.6829 129.713 35.6829 129.261C35.6829 128.892 35.7866 128.565 35.994 128.281C36.2042 127.997 36.4897 127.774 36.8505 127.612C37.2141 127.45 37.6261 127.369 38.0863 127.369C38.734 127.369 39.2425 127.511 39.6119 127.795C39.984 128.08 40.2482 128.455 40.4045 128.92ZM46.3501 131.614L46.3331 130.369H46.5376L49.4013 127.455H50.6456L47.5945 130.54H47.5092L46.3501 131.614ZM45.4126 134V125.273H46.4183V134H45.4126ZM49.5717 134L47.0149 130.761L47.7308 130.062L50.8501 134H49.5717ZM54.4148 134.136C53.7841 134.136 53.2401 133.997 52.7827 133.719C52.3281 133.438 51.9773 133.045 51.7301 132.543C51.4858 132.037 51.3636 131.449 51.3636 130.778C51.3636 130.108 51.4858 129.517 51.7301 129.006C51.9773 128.491 52.321 128.091 52.7614 127.804C53.2045 127.514 53.7216 127.369 54.3125 127.369C54.6534 127.369 54.9901 127.426 55.3224 127.54C55.6548 127.653 55.9574 127.838 56.2301 128.094C56.5028 128.347 56.7202 128.682 56.8821 129.099C57.044 129.517 57.125 130.031 57.125 130.642V131.068H52.0795V130.199H56.1023C56.1023 129.83 56.0284 129.5 55.8807 129.21C55.7358 128.92 55.5284 128.692 55.2585 128.524C54.9915 128.357 54.6761 128.273 54.3125 128.273C53.9119 128.273 53.5653 128.372 53.2727 128.571C52.983 128.767 52.7599 129.023 52.6037 129.338C52.4474 129.653 52.3693 129.991 52.3693 130.352V130.932C52.3693 131.426 52.4545 131.845 52.625 132.189C52.7983 132.53 53.0384 132.79 53.3452 132.969C53.652 133.145 54.0085 133.233 54.4148 133.233C54.679 133.233 54.9176 133.196 55.1307 133.122C55.3466 133.045 55.5327 132.932 55.6889 132.781C55.8452 132.628 55.9659 132.437 56.0511 132.21L57.0227 132.483C56.9205 132.812 56.7486 133.102 56.5071 133.352C56.2656 133.599 55.9673 133.793 55.6122 133.932C55.2571 134.068 54.858 134.136 54.4148 134.136ZM59.1033 136.455C58.9329 136.455 58.7809 136.44 58.6474 136.412C58.5138 136.386 58.4215 136.361 58.3704 136.335L58.6261 135.449C58.8704 135.511 59.0863 135.534 59.2738 135.517C59.4613 135.5 59.6275 135.416 59.7724 135.266C59.9201 135.118 60.055 134.878 60.1772 134.545L60.3647 134.034L57.9442 127.455H59.0352L60.842 132.67H60.9102L62.717 127.455H63.8079L61.0295 134.955C60.9045 135.293 60.7496 135.572 60.565 135.794C60.3803 136.018 60.1658 136.185 59.9215 136.293C59.68 136.401 59.4073 136.455 59.1033 136.455ZM65.4581 134.068C65.2479 134.068 65.0675 133.993 64.9169 133.842C64.7663 133.692 64.6911 133.511 64.6911 133.301C64.6911 133.091 64.7663 132.911 64.9169 132.76C65.0675 132.609 65.2479 132.534 65.4581 132.534C65.6683 132.534 65.8487 132.609 65.9993 132.76C66.1499 132.911 66.2251 133.091 66.2251 133.301C66.2251 133.44 66.1896 133.568 66.1186 133.685C66.0504 133.801 65.9581 133.895 65.8416 133.966C65.728 134.034 65.6001 134.068 65.4581 134.068Z" fill="#556071"/>
</svg>
