<svg width="256" height="174" viewBox="0 0 256 174" fill="none" xmlns="http://www.w3.org/2000/svg">
<rect width="256" height="174" rx="32" fill="#F3F4F1"/>
<path d="M50 40L48.75 37.25L46 36L48.75 34.75L50 32L51.25 34.75L54 36L51.25 37.25L50 40ZM50 54L48.75 51.25L46 50L48.75 48.75L50 46L51.25 48.75L54 50L51.25 51.25L50 54ZM40 51L37.5 45.5L32 43L37.5 40.5L40 35L42.5 40.5L48 43L42.5 45.5L40 51ZM40 46.15L41 44L43.15 43L41 42L40 39.85L39 42L36.85 43L39 44L40 46.15Z" fill="#5F5E5E"/>
<path d="M34.6399 85H32.3331L35.848 74.8182H38.6222L42.1321 85H39.8253L37.2749 77.1449H37.1953L34.6399 85ZM34.4957 80.9979H39.9446V82.6783H34.4957V80.9979ZM45.5103 74.8182V85H43.3576V74.8182H45.5103ZM52.6744 74.8182V85H50.5217V74.8182H52.6744ZM56.5236 80.5852V85H54.4057V77.3636H56.4242V78.7109H56.5137C56.6827 78.2668 56.9661 77.9155 57.3638 77.657C57.7615 77.3951 58.2438 77.2642 58.8105 77.2642C59.3408 77.2642 59.8032 77.3802 60.1976 77.6122C60.592 77.8442 60.8986 78.1757 61.1174 78.6065C61.3361 79.0341 61.4455 79.5445 61.4455 80.1378V85H59.3276V80.5156C59.3309 80.0483 59.2116 79.6837 58.9696 79.4219C58.7277 79.1567 58.3946 79.0241 57.9703 79.0241C57.6853 79.0241 57.4334 79.0855 57.2147 79.2081C56.9992 79.3307 56.8302 79.5097 56.7076 79.745C56.5882 79.977 56.5269 80.2571 56.5236 80.5852ZM69.4684 79.5412L67.5295 79.6605C67.4963 79.4948 67.4251 79.3456 67.3157 79.2131C67.2063 79.0772 67.0621 78.9695 66.8832 78.8899C66.7075 78.8071 66.497 78.7656 66.2518 78.7656C65.9237 78.7656 65.6469 78.8352 65.4215 78.9744C65.1961 79.1103 65.0835 79.2926 65.0835 79.5213C65.0835 79.7036 65.1564 79.8577 65.3022 79.9837C65.448 80.1096 65.6983 80.2107 66.0529 80.2869L67.435 80.5653C68.1774 80.7178 68.7309 80.9631 69.0955 81.3011C69.4601 81.6392 69.6424 82.0833 69.6424 82.6335C69.6424 83.134 69.4949 83.5732 69.1999 83.951C68.9083 84.3288 68.5072 84.6238 67.9968 84.8359C67.4897 85.0447 66.9047 85.1491 66.2418 85.1491C65.2309 85.1491 64.4255 84.9387 63.8256 84.5178C63.229 84.0935 62.8794 83.5168 62.7766 82.7876L64.8597 82.6783C64.9227 82.9865 65.0752 83.2218 65.3171 83.3842C65.5591 83.5433 65.869 83.6229 66.2468 83.6229C66.618 83.6229 66.9163 83.5516 67.1417 83.4091C67.3704 83.2633 67.4864 83.076 67.4897 82.8473C67.4864 82.6551 67.4052 82.4976 67.2461 82.375C67.087 82.2491 66.8417 82.1529 66.5103 82.0866L65.1879 81.8232C64.4421 81.674 63.887 81.4155 63.5224 81.0476C63.1611 80.6797 62.9805 80.2107 62.9805 79.6406C62.9805 79.1501 63.113 78.7275 63.3782 78.3729C63.6467 78.0182 64.0228 77.7448 64.5067 77.5526C64.994 77.3603 65.564 77.2642 66.217 77.2642C67.1815 77.2642 67.9405 77.468 68.494 77.8757C69.0508 78.2834 69.3756 78.8385 69.4684 79.5412ZM70.976 85V77.3636H73.0939V85H70.976ZM72.04 76.3793C71.7251 76.3793 71.455 76.2749 71.2296 76.0661C71.0075 75.8539 70.8965 75.6004 70.8965 75.3054C70.8965 75.0137 71.0075 74.7635 71.2296 74.5547C71.455 74.3426 71.7251 74.2365 72.04 74.2365C72.3548 74.2365 72.6233 74.3426 72.8453 74.5547C73.0707 74.7635 73.1834 75.0137 73.1834 75.3054C73.1834 75.6004 73.0707 75.8539 72.8453 76.0661C72.6233 76.2749 72.3548 76.3793 72.04 76.3793ZM78.2308 88.0227C77.5447 88.0227 76.9564 87.9283 76.4659 87.7393C75.9787 87.5537 75.5909 87.3002 75.3026 86.9787C75.0142 86.6572 74.8269 86.2959 74.7408 85.8949L76.6996 85.6314C76.7592 85.7839 76.8537 85.9264 76.983 86.0589C77.1122 86.1915 77.2829 86.2976 77.495 86.3771C77.7105 86.46 77.9723 86.5014 78.2805 86.5014C78.7412 86.5014 79.1207 86.3887 79.419 86.1634C79.7206 85.9413 79.8714 85.5684 79.8714 85.0447V83.6477H79.782C79.6892 83.8598 79.55 84.0604 79.3643 84.2493C79.1787 84.4382 78.9401 84.5923 78.6484 84.7116C78.3568 84.831 78.0088 84.8906 77.6044 84.8906C77.031 84.8906 76.509 84.758 76.0384 84.4929C75.571 84.2244 75.1982 83.8151 74.9197 83.2649C74.6446 82.7114 74.5071 82.0121 74.5071 81.1669C74.5071 80.3018 74.648 79.5793 74.9297 78.9993C75.2114 78.4193 75.5859 77.9851 76.0533 77.6967C76.5239 77.4084 77.0393 77.2642 77.5994 77.2642C78.027 77.2642 78.3849 77.3371 78.6733 77.483C78.9616 77.6255 79.1937 77.8045 79.3693 78.0199C79.5483 78.232 79.6858 78.4408 79.782 78.6463H79.8615V77.3636H81.9645V85.0746C81.9645 85.7242 81.8054 86.2678 81.4872 86.7053C81.169 87.1428 80.7282 87.4709 80.1648 87.6896C79.6046 87.9117 78.96 88.0227 78.2308 88.0227ZM78.2756 83.2997C78.617 83.2997 78.9053 83.2152 79.1406 83.0462C79.3793 82.8738 79.5616 82.6286 79.6875 82.3104C79.8168 81.9889 79.8814 81.6044 79.8814 81.157C79.8814 80.7095 79.8184 80.3217 79.6925 79.9936C79.5665 79.6622 79.3842 79.4053 79.1456 79.223C78.907 79.0407 78.617 78.9496 78.2756 78.9496C77.9276 78.9496 77.6342 79.044 77.3956 79.233C77.157 79.4186 76.9763 79.6771 76.8537 80.0085C76.7311 80.34 76.6697 80.7228 76.6697 81.157C76.6697 81.5978 76.7311 81.9789 76.8537 82.3004C76.9796 82.6186 77.1603 82.8655 77.3956 83.0412C77.6342 83.2135 77.9276 83.2997 78.2756 83.2997ZM85.7678 80.5852V85H83.6499V74.8182H85.7081V78.7109H85.7976C85.9699 78.2602 86.2483 77.9072 86.6328 77.652C87.0173 77.3935 87.4995 77.2642 88.0795 77.2642C88.6098 77.2642 89.0722 77.3802 89.4666 77.6122C89.8643 77.8409 90.1726 78.1707 90.3913 78.6016C90.6134 79.0291 90.7228 79.5412 90.7195 80.1378V85H88.6016V80.5156C88.6049 80.045 88.4856 79.6787 88.2436 79.4169C88.005 79.1551 87.6702 79.0241 87.2393 79.0241C86.951 79.0241 86.6958 79.0855 86.4737 79.2081C86.255 79.3307 86.0826 79.5097 85.9567 79.745C85.834 79.977 85.7711 80.2571 85.7678 80.5852ZM96.448 77.3636V78.9545H91.8493V77.3636H96.448ZM92.8933 75.5341H95.0112V82.6534C95.0112 82.849 95.041 83.0014 95.1007 83.1108C95.1603 83.2169 95.2432 83.2914 95.3493 83.3345C95.4586 83.3776 95.5846 83.3991 95.7271 83.3991C95.8265 83.3991 95.926 83.3909 96.0254 83.3743C96.1248 83.3544 96.2011 83.3395 96.2541 83.3295L96.5872 84.9055C96.4811 84.9387 96.332 84.9768 96.1397 85.0199C95.9475 85.0663 95.7138 85.0945 95.4387 85.1044C94.9283 85.1243 94.4809 85.0563 94.0964 84.9006C93.7153 84.7448 93.4186 84.5028 93.2065 84.1747C92.9944 83.8466 92.89 83.4323 92.8933 82.9318V75.5341ZM104.086 79.5412L102.147 79.6605C102.114 79.4948 102.042 79.3456 101.933 79.2131C101.824 79.0772 101.679 78.9695 101.5 78.8899C101.325 78.8071 101.114 78.7656 100.869 78.7656C100.541 78.7656 100.264 78.8352 100.039 78.9744C99.8133 79.1103 99.7006 79.2926 99.7006 79.5213C99.7006 79.7036 99.7736 79.8577 99.9194 79.9837C100.065 80.1096 100.315 80.2107 100.67 80.2869L102.052 80.5653C102.795 80.7178 103.348 80.9631 103.713 81.3011C104.077 81.6392 104.26 82.0833 104.26 82.6335C104.26 83.134 104.112 83.5732 103.817 83.951C103.525 84.3288 103.124 84.6238 102.614 84.8359C102.107 85.0447 101.522 85.1491 100.859 85.1491C99.8481 85.1491 99.0427 84.9387 98.4428 84.5178C97.8462 84.0935 97.4966 83.5168 97.3938 82.7876L99.4769 82.6783C99.5399 82.9865 99.6924 83.2218 99.9343 83.3842C100.176 83.5433 100.486 83.6229 100.864 83.6229C101.235 83.6229 101.533 83.5516 101.759 83.4091C101.988 83.2633 102.104 83.076 102.107 82.8473C102.104 82.6551 102.022 82.4976 101.863 82.375C101.704 82.2491 101.459 82.1529 101.127 82.0866L99.805 81.8232C99.0593 81.674 98.5041 81.4155 98.1396 81.0476C97.7783 80.6797 97.5977 80.2107 97.5977 79.6406C97.5977 79.1501 97.7302 78.7275 97.9954 78.3729C98.2638 78.0182 98.64 77.7448 99.1239 77.5526C99.6112 77.3603 100.181 77.2642 100.834 77.2642C101.799 77.2642 102.558 77.468 103.111 77.8757C103.668 78.2834 103.993 78.8385 104.086 79.5412Z" fill="#2F3331"/>
<path d="M35.8523 106.119C35.2898 106.119 34.7884 106.023 34.348 105.83C33.9105 105.636 33.5625 105.368 33.304 105.024C33.0483 104.678 32.9091 104.276 32.8864 103.818H33.9602C33.983 104.099 34.0795 104.342 34.25 104.547C34.4205 104.749 34.6435 104.905 34.919 105.016C35.1946 105.126 35.5 105.182 35.8352 105.182C36.2102 105.182 36.5426 105.116 36.8324 104.986C37.1222 104.855 37.3494 104.673 37.5142 104.44C37.679 104.207 37.7614 103.938 37.7614 103.631C37.7614 103.31 37.6818 103.027 37.5227 102.783C37.3636 102.536 37.1307 102.342 36.8239 102.203C36.517 102.064 36.142 101.994 35.6989 101.994H35V101.057H35.6989C36.0455 101.057 36.3494 100.994 36.6108 100.869C36.875 100.744 37.081 100.568 37.2287 100.341C37.3793 100.114 37.4545 99.8466 37.4545 99.5398C37.4545 99.2443 37.3892 98.9872 37.2585 98.7685C37.1278 98.5497 36.9432 98.3793 36.7045 98.2571C36.4688 98.1349 36.1903 98.0739 35.8693 98.0739C35.5682 98.0739 35.2841 98.1293 35.017 98.2401C34.7528 98.348 34.5369 98.5057 34.3693 98.7131C34.2017 98.9176 34.1108 99.1648 34.0966 99.4545H33.0739C33.0909 98.9972 33.2287 98.5966 33.4872 98.2528C33.7457 97.9062 34.0838 97.6364 34.5014 97.4432C34.9219 97.25 35.3835 97.1534 35.8864 97.1534C36.4261 97.1534 36.8892 97.2628 37.2756 97.4815C37.6619 97.6974 37.9588 97.983 38.1662 98.3381C38.3736 98.6932 38.4773 99.0767 38.4773 99.4886C38.4773 99.9801 38.348 100.399 38.0895 100.746C37.8338 101.092 37.4858 101.332 37.0455 101.466V101.534C37.5966 101.625 38.027 101.859 38.3366 102.237C38.6463 102.612 38.8011 103.077 38.8011 103.631C38.8011 104.105 38.6719 104.531 38.4134 104.909C38.1577 105.284 37.8082 105.58 37.3651 105.795C36.9219 106.011 36.4176 106.119 35.8523 106.119ZM48.5724 100.92L47.669 101.176C47.6122 101.026 47.5284 100.879 47.4176 100.737C47.3097 100.592 47.1619 100.473 46.9744 100.379C46.7869 100.286 46.5469 100.239 46.2543 100.239C45.8537 100.239 45.5199 100.331 45.2528 100.516C44.9886 100.697 44.8565 100.929 44.8565 101.21C44.8565 101.46 44.9474 101.658 45.1293 101.803C45.3111 101.947 45.5952 102.068 45.9815 102.165L46.9531 102.403C47.5384 102.545 47.9744 102.763 48.2614 103.055C48.5483 103.345 48.6918 103.719 48.6918 104.176C48.6918 104.551 48.5838 104.886 48.3679 105.182C48.1548 105.477 47.8565 105.71 47.473 105.881C47.0895 106.051 46.6435 106.136 46.1349 106.136C45.4673 106.136 44.9148 105.991 44.4773 105.702C44.0398 105.412 43.7628 104.989 43.6463 104.432L44.6009 104.193C44.6918 104.545 44.8636 104.81 45.1165 104.986C45.3722 105.162 45.706 105.25 46.1179 105.25C46.5866 105.25 46.9588 105.151 47.2344 104.952C47.5128 104.75 47.652 104.509 47.652 104.227C47.652 104 47.5724 103.81 47.4134 103.656C47.2543 103.5 47.0099 103.384 46.6804 103.307L45.5895 103.051C44.9901 102.909 44.5497 102.689 44.2685 102.391C43.9901 102.089 43.8509 101.713 43.8509 101.261C43.8509 100.892 43.9545 100.565 44.1619 100.281C44.3722 99.9972 44.6577 99.7741 45.0185 99.6122C45.3821 99.4503 45.794 99.3693 46.2543 99.3693C46.902 99.3693 47.4105 99.5114 47.7798 99.7955C48.152 100.08 48.4162 100.455 48.5724 100.92ZM54.3306 103.324V99.4545H55.3363V106H54.3306V104.892H54.2624C54.109 105.224 53.8704 105.507 53.5465 105.74C53.2227 105.97 52.8136 106.085 52.3192 106.085C51.9102 106.085 51.5465 105.996 51.2283 105.817C50.9102 105.635 50.6602 105.362 50.4783 104.999C50.2965 104.632 50.2056 104.17 50.2056 103.614V99.4545H51.2113V103.545C51.2113 104.023 51.3448 104.403 51.6119 104.688C51.8817 104.972 52.2255 105.114 52.6431 105.114C52.8931 105.114 53.1474 105.05 53.4059 104.922C53.6673 104.794 53.886 104.598 54.0621 104.334C54.2411 104.07 54.3306 103.733 54.3306 103.324ZM57.1783 106V99.4545H58.1499V100.477H58.2351C58.3714 100.128 58.5916 99.8565 58.8956 99.6634C59.1996 99.4673 59.5646 99.3693 59.9908 99.3693C60.4226 99.3693 60.782 99.4673 61.0689 99.6634C61.3587 99.8565 61.5845 100.128 61.7464 100.477H61.8146C61.9822 100.139 62.2337 99.8707 62.5689 99.6719C62.9041 99.4702 63.3061 99.3693 63.7749 99.3693C64.3601 99.3693 64.8388 99.5526 65.2109 99.919C65.5831 100.283 65.7692 100.849 65.7692 101.619V106H64.7635V101.619C64.7635 101.136 64.6314 100.791 64.3672 100.584C64.103 100.376 63.7919 100.273 63.4339 100.273C62.9737 100.273 62.6172 100.412 62.3643 100.69C62.1115 100.966 61.9851 101.315 61.9851 101.739V106H60.9624V101.517C60.9624 101.145 60.8416 100.845 60.6001 100.618C60.3587 100.388 60.0476 100.273 59.6669 100.273C59.4055 100.273 59.1612 100.342 58.9339 100.482C58.7095 100.621 58.5277 100.814 58.3885 101.061C58.2521 101.305 58.1839 101.588 58.1839 101.909V106H57.1783ZM67.608 106V99.4545H68.5795V100.477H68.6648C68.8011 100.128 69.0213 99.8565 69.3253 99.6634C69.6293 99.4673 69.9943 99.3693 70.4205 99.3693C70.8523 99.3693 71.2116 99.4673 71.4986 99.6634C71.7884 99.8565 72.0142 100.128 72.1761 100.477H72.2443C72.4119 100.139 72.6634 99.8707 72.9986 99.6719C73.3338 99.4702 73.7358 99.3693 74.2045 99.3693C74.7898 99.3693 75.2685 99.5526 75.6406 99.919C76.0128 100.283 76.1989 100.849 76.1989 101.619V106H75.1932V101.619C75.1932 101.136 75.0611 100.791 74.7969 100.584C74.5327 100.376 74.2216 100.273 73.8636 100.273C73.4034 100.273 73.0469 100.412 72.794 100.69C72.5412 100.966 72.4148 101.315 72.4148 101.739V106H71.392V101.517C71.392 101.145 71.2713 100.845 71.0298 100.618C70.7884 100.388 70.4773 100.273 70.0966 100.273C69.8352 100.273 69.5909 100.342 69.3636 100.482C69.1392 100.621 68.9574 100.814 68.8182 101.061C68.6818 101.305 68.6136 101.588 68.6136 101.909V106H67.608ZM79.9638 106.153C79.549 106.153 79.1726 106.075 78.8345 105.919C78.4964 105.76 78.228 105.531 78.0291 105.233C77.8303 104.932 77.7308 104.568 77.7308 104.142C77.7308 103.767 77.8047 103.463 77.9524 103.23C78.1001 102.994 78.2976 102.81 78.5447 102.676C78.7919 102.543 79.0646 102.443 79.3629 102.378C79.6641 102.31 79.9666 102.256 80.2706 102.216C80.6683 102.165 80.9908 102.126 81.2379 102.101C81.4879 102.072 81.6697 102.026 81.7834 101.96C81.8999 101.895 81.9581 101.781 81.9581 101.619V101.585C81.9581 101.165 81.843 100.838 81.6129 100.605C81.3857 100.372 81.0405 100.256 80.5774 100.256C80.0973 100.256 79.7209 100.361 79.4482 100.571C79.1754 100.781 78.9837 101.006 78.8729 101.244L77.9183 100.903C78.0888 100.506 78.3161 100.196 78.6001 99.9744C78.8871 99.75 79.1996 99.5937 79.5376 99.5057C79.8786 99.4148 80.2138 99.3693 80.5433 99.3693C80.7536 99.3693 80.995 99.3949 81.2678 99.446C81.5433 99.4943 81.8089 99.5952 82.0646 99.7486C82.3232 99.902 82.5376 100.134 82.7081 100.443C82.8786 100.753 82.9638 101.168 82.9638 101.688V106H81.9581V105.114H81.907C81.8388 105.256 81.7251 105.408 81.5661 105.57C81.407 105.732 81.1953 105.869 80.9311 105.983C80.6669 106.097 80.3445 106.153 79.9638 106.153ZM80.1172 105.25C80.5149 105.25 80.8501 105.172 81.1229 105.016C81.3984 104.859 81.6058 104.658 81.745 104.411C81.8871 104.163 81.9581 103.903 81.9581 103.631V102.71C81.9155 102.761 81.8217 102.808 81.6768 102.851C81.5348 102.891 81.37 102.926 81.1825 102.957C80.9979 102.986 80.8175 103.011 80.6413 103.034C80.468 103.054 80.3274 103.071 80.2195 103.085C79.9581 103.119 79.7138 103.175 79.4865 103.251C79.2621 103.325 79.0803 103.437 78.9411 103.588C78.8047 103.736 78.7365 103.937 78.7365 104.193C78.7365 104.543 78.8658 104.807 79.1243 104.986C79.3857 105.162 79.7166 105.25 80.1172 105.25ZM84.7994 106V99.4545H85.771V100.443H85.8391C85.9585 100.119 86.1744 99.8565 86.4869 99.6548C86.7994 99.4531 87.1516 99.3523 87.5437 99.3523C87.6175 99.3523 87.7099 99.3537 87.8207 99.3565C87.9315 99.3594 88.0153 99.3636 88.0721 99.3693V100.392C88.038 100.384 87.9599 100.371 87.8377 100.354C87.7184 100.334 87.592 100.324 87.4585 100.324C87.1403 100.324 86.8562 100.391 86.6062 100.524C86.359 100.655 86.163 100.837 86.0181 101.07C85.8761 101.3 85.805 101.562 85.805 101.858V106H84.7994ZM89.2642 106V99.4545H90.2699V106H89.2642ZM89.7756 98.3636C89.5795 98.3636 89.4105 98.2969 89.2685 98.1634C89.1293 98.0298 89.0597 97.8693 89.0597 97.6818C89.0597 97.4943 89.1293 97.3338 89.2685 97.2003C89.4105 97.0668 89.5795 97 89.7756 97C89.9716 97 90.1392 97.0668 90.2784 97.2003C90.4205 97.3338 90.4915 97.4943 90.4915 97.6818C90.4915 97.8693 90.4205 98.0298 90.2784 98.1634C90.1392 98.2969 89.9716 98.3636 89.7756 98.3636ZM94.8562 106.136C94.2255 106.136 93.6815 105.997 93.2241 105.719C92.7695 105.438 92.4187 105.045 92.1715 104.543C91.9272 104.037 91.805 103.449 91.805 102.778C91.805 102.108 91.9272 101.517 92.1715 101.006C92.4187 100.491 92.7624 100.091 93.2028 99.804C93.646 99.5142 94.163 99.3693 94.7539 99.3693C95.0948 99.3693 95.4315 99.4261 95.7638 99.5398C96.0962 99.6534 96.3988 99.8381 96.6715 100.094C96.9442 100.347 97.1616 100.682 97.3235 101.099C97.4854 101.517 97.5664 102.031 97.5664 102.642V103.068H92.521V102.199H96.5437C96.5437 101.83 96.4698 101.5 96.3221 101.21C96.1772 100.92 95.9698 100.692 95.6999 100.524C95.4329 100.357 95.1175 100.273 94.7539 100.273C94.3533 100.273 94.0067 100.372 93.7141 100.571C93.4244 100.767 93.2013 101.023 93.0451 101.338C92.8888 101.653 92.8107 101.991 92.8107 102.352V102.932C92.8107 103.426 92.896 103.845 93.0664 104.189C93.2397 104.53 93.4798 104.79 93.7866 104.969C94.0934 105.145 94.4499 105.233 94.8562 105.233C95.1204 105.233 95.359 105.196 95.5721 105.122C95.788 105.045 95.9741 104.932 96.1303 104.781C96.2866 104.628 96.4073 104.437 96.4925 104.21L97.4641 104.483C97.3619 104.812 97.19 105.102 96.9485 105.352C96.707 105.599 96.4087 105.793 96.0536 105.932C95.6985 106.068 95.2994 106.136 94.8562 106.136ZM103.733 100.92L102.829 101.176C102.772 101.026 102.689 100.879 102.578 100.737C102.47 100.592 102.322 100.473 102.135 100.379C101.947 100.286 101.707 100.239 101.414 100.239C101.014 100.239 100.68 100.331 100.413 100.516C100.149 100.697 100.017 100.929 100.017 101.21C100.017 101.46 100.108 101.658 100.289 101.803C100.471 101.947 100.755 102.068 101.142 102.165L102.113 102.403C102.699 102.545 103.135 102.763 103.422 103.055C103.708 103.345 103.852 103.719 103.852 104.176C103.852 104.551 103.744 104.886 103.528 105.182C103.315 105.477 103.017 105.71 102.633 105.881C102.25 106.051 101.804 106.136 101.295 106.136C100.627 106.136 100.075 105.991 99.6374 105.702C99.1999 105.412 98.9229 104.989 98.8065 104.432L99.761 104.193C99.8519 104.545 100.024 104.81 100.277 104.986C100.532 105.162 100.866 105.25 101.278 105.25C101.747 105.25 102.119 105.151 102.395 104.952C102.673 104.75 102.812 104.509 102.812 104.227C102.812 104 102.733 103.81 102.574 103.656C102.414 103.5 102.17 103.384 101.841 103.307L100.75 103.051C100.15 102.909 99.7099 102.689 99.4286 102.391C99.1502 102.089 99.011 101.713 99.011 101.261C99.011 100.892 99.1147 100.565 99.3221 100.281C99.5323 99.9972 99.8178 99.7741 100.179 99.6122C100.542 99.4503 100.954 99.3693 101.414 99.3693C102.062 99.3693 102.571 99.5114 102.94 99.7955C103.312 100.08 103.576 100.455 103.733 100.92ZM110.667 106.153C110.252 106.153 109.876 106.075 109.538 105.919C109.2 105.76 108.931 105.531 108.732 105.233C108.533 104.932 108.434 104.568 108.434 104.142C108.434 103.767 108.508 103.463 108.656 103.23C108.803 102.994 109.001 102.81 109.248 102.676C109.495 102.543 109.768 102.443 110.066 102.378C110.367 102.31 110.67 102.256 110.974 102.216C111.371 102.165 111.694 102.126 111.941 102.101C112.191 102.072 112.373 102.026 112.487 101.96C112.603 101.895 112.661 101.781 112.661 101.619V101.585C112.661 101.165 112.546 100.838 112.316 100.605C112.089 100.372 111.744 100.256 111.281 100.256C110.8 100.256 110.424 100.361 110.151 100.571C109.879 100.781 109.687 101.006 109.576 101.244L108.621 100.903C108.792 100.506 109.019 100.196 109.303 99.9744C109.59 99.75 109.903 99.5937 110.241 99.5057C110.582 99.4148 110.917 99.3693 111.246 99.3693C111.457 99.3693 111.698 99.3949 111.971 99.446C112.246 99.4943 112.512 99.5952 112.768 99.7486C113.026 99.902 113.241 100.134 113.411 100.443C113.582 100.753 113.667 101.168 113.667 101.688V106H112.661V105.114H112.61C112.542 105.256 112.428 105.408 112.269 105.57C112.11 105.732 111.898 105.869 111.634 105.983C111.37 106.097 111.048 106.153 110.667 106.153ZM110.82 105.25C111.218 105.25 111.553 105.172 111.826 105.016C112.102 104.859 112.309 104.658 112.448 104.411C112.59 104.163 112.661 103.903 112.661 103.631V102.71C112.619 102.761 112.525 102.808 112.38 102.851C112.238 102.891 112.073 102.926 111.886 102.957C111.701 102.986 111.521 103.011 111.344 103.034C111.171 103.054 111.031 103.071 110.923 103.085C110.661 103.119 110.417 103.175 110.19 103.251C109.965 103.325 109.783 103.437 109.644 103.588C109.508 103.736 109.44 103.937 109.44 104.193C109.44 104.543 109.569 104.807 109.827 104.986C110.089 105.162 110.42 105.25 110.82 105.25ZM115.502 106V99.4545H116.474V100.443H116.542C116.662 100.119 116.877 99.8565 117.19 99.6548C117.502 99.4531 117.855 99.3523 118.247 99.3523C118.321 99.3523 118.413 99.3537 118.524 99.3565C118.635 99.3594 118.718 99.3636 118.775 99.3693V100.392C118.741 100.384 118.663 100.371 118.541 100.354C118.422 100.334 118.295 100.324 118.162 100.324C117.843 100.324 117.559 100.391 117.309 100.524C117.062 100.655 116.866 100.837 116.721 101.07C116.579 101.3 116.508 101.562 116.508 101.858V106H115.502ZM122.512 106.136C121.882 106.136 121.338 105.997 120.88 105.719C120.426 105.438 120.075 105.045 119.828 104.543C119.583 104.037 119.461 103.449 119.461 102.778C119.461 102.108 119.583 101.517 119.828 101.006C120.075 100.491 120.419 100.091 120.859 99.804C121.302 99.5142 121.819 99.3693 122.41 99.3693C122.751 99.3693 123.088 99.4261 123.42 99.5398C123.752 99.6534 124.055 99.8381 124.328 100.094C124.6 100.347 124.818 100.682 124.98 101.099C125.142 101.517 125.223 102.031 125.223 102.642V103.068H120.177V102.199H124.2C124.2 101.83 124.126 101.5 123.978 101.21C123.833 100.92 123.626 100.692 123.356 100.524C123.089 100.357 122.774 100.273 122.41 100.273C122.01 100.273 121.663 100.372 121.37 100.571C121.081 100.767 120.858 101.023 120.701 101.338C120.545 101.653 120.467 101.991 120.467 102.352V102.932C120.467 103.426 120.552 103.845 120.723 104.189C120.896 104.53 121.136 104.79 121.443 104.969C121.75 105.145 122.106 105.233 122.512 105.233C122.777 105.233 123.015 105.196 123.228 105.122C123.444 105.045 123.63 104.932 123.787 104.781C123.943 104.628 124.064 104.437 124.149 104.21L125.12 104.483C125.018 104.812 124.846 105.102 124.605 105.352C124.363 105.599 124.065 105.793 123.71 105.932C123.355 106.068 122.956 106.136 122.512 106.136ZM130.127 106V99.4545H131.099V100.443H131.167C131.287 100.119 131.502 99.8565 131.815 99.6548C132.127 99.4531 132.48 99.3523 132.872 99.3523C132.946 99.3523 133.038 99.3537 133.149 99.3565C133.26 99.3594 133.343 99.3636 133.4 99.3693V100.392C133.366 100.384 133.288 100.371 133.166 100.354C133.047 100.334 132.92 100.324 132.787 100.324C132.468 100.324 132.184 100.391 131.934 100.524C131.687 100.655 131.491 100.837 131.346 101.07C131.204 101.3 131.133 101.562 131.133 101.858V106H130.127ZM137.137 106.136C136.507 106.136 135.963 105.997 135.505 105.719C135.051 105.438 134.7 105.045 134.453 104.543C134.208 104.037 134.086 103.449 134.086 102.778C134.086 102.108 134.208 101.517 134.453 101.006C134.7 100.491 135.044 100.091 135.484 99.804C135.927 99.5142 136.444 99.3693 137.035 99.3693C137.376 99.3693 137.713 99.4261 138.045 99.5398C138.377 99.6534 138.68 99.8381 138.953 100.094C139.225 100.347 139.443 100.682 139.605 101.099C139.767 101.517 139.848 102.031 139.848 102.642V103.068H134.802V102.199H138.825C138.825 101.83 138.751 101.5 138.603 101.21C138.458 100.92 138.251 100.692 137.981 100.524C137.714 100.357 137.399 100.273 137.035 100.273C136.635 100.273 136.288 100.372 135.995 100.571C135.706 100.767 135.483 101.023 135.326 101.338C135.17 101.653 135.092 101.991 135.092 102.352V102.932C135.092 103.426 135.177 103.845 135.348 104.189C135.521 104.53 135.761 104.79 136.068 104.969C136.375 105.145 136.731 105.233 137.137 105.233C137.402 105.233 137.64 105.196 137.853 105.122C138.069 105.045 138.255 104.932 138.412 104.781C138.568 104.628 138.689 104.437 138.774 104.21L139.745 104.483C139.643 104.812 139.471 105.102 139.23 105.352C138.988 105.599 138.69 105.793 138.335 105.932C137.98 106.068 137.581 106.136 137.137 106.136ZM143.304 106.153C142.889 106.153 142.512 106.075 142.174 105.919C141.836 105.76 141.568 105.531 141.369 105.233C141.17 104.932 141.071 104.568 141.071 104.142C141.071 103.767 141.145 103.463 141.292 103.23C141.44 102.994 141.637 102.81 141.885 102.676C142.132 102.543 142.404 102.443 142.703 102.378C143.004 102.31 143.306 102.256 143.61 102.216C144.008 102.165 144.331 102.126 144.578 102.101C144.828 102.072 145.01 102.026 145.123 101.96C145.24 101.895 145.298 101.781 145.298 101.619V101.585C145.298 101.165 145.183 100.838 144.953 100.605C144.725 100.372 144.38 100.256 143.917 100.256C143.437 100.256 143.061 100.361 142.788 100.571C142.515 100.781 142.324 101.006 142.213 101.244L141.258 100.903C141.429 100.506 141.656 100.196 141.94 99.9744C142.227 99.75 142.539 99.5937 142.877 99.5057C143.218 99.4148 143.554 99.3693 143.883 99.3693C144.093 99.3693 144.335 99.3949 144.608 99.446C144.883 99.4943 145.149 99.5952 145.404 99.7486C145.663 99.902 145.877 100.134 146.048 100.443C146.218 100.753 146.304 101.168 146.304 101.688V106H145.298V105.114H145.247C145.179 105.256 145.065 105.408 144.906 105.57C144.747 105.732 144.535 105.869 144.271 105.983C144.007 106.097 143.684 106.153 143.304 106.153ZM143.457 105.25C143.855 105.25 144.19 105.172 144.463 105.016C144.738 104.859 144.946 104.658 145.085 104.411C145.227 104.163 145.298 103.903 145.298 103.631V102.71C145.255 102.761 145.162 102.808 145.017 102.851C144.875 102.891 144.71 102.926 144.522 102.957C144.338 102.986 144.157 103.011 143.981 103.034C143.808 103.054 143.667 103.071 143.559 103.085C143.298 103.119 143.054 103.175 142.826 103.251C142.602 103.325 142.42 103.437 142.281 103.588C142.145 103.736 142.076 103.937 142.076 104.193C142.076 104.543 142.206 104.807 142.464 104.986C142.725 105.162 143.056 105.25 143.457 105.25ZM150.611 106.136C150.065 106.136 149.584 105.999 149.166 105.723C148.749 105.445 148.422 105.053 148.186 104.547C147.95 104.038 147.832 103.438 147.832 102.744C147.832 102.057 147.95 101.46 148.186 100.955C148.422 100.449 148.75 100.058 149.17 99.7827C149.591 99.5071 150.077 99.3693 150.628 99.3693C151.054 99.3693 151.391 99.4403 151.638 99.5824C151.888 99.7216 152.078 99.8807 152.209 100.06C152.342 100.236 152.446 100.381 152.52 100.494H152.605V97.2727H153.611V106H152.639V104.994H152.52C152.446 105.114 152.341 105.264 152.205 105.446C152.068 105.625 151.874 105.786 151.621 105.928C151.368 106.067 151.031 106.136 150.611 106.136ZM150.747 105.233C151.151 105.233 151.491 105.128 151.77 104.918C152.048 104.705 152.26 104.411 152.405 104.036C152.55 103.658 152.622 103.222 152.622 102.727C152.622 102.239 152.551 101.811 152.409 101.445C152.267 101.075 152.057 100.788 151.778 100.584C151.5 100.376 151.156 100.273 150.747 100.273C150.321 100.273 149.966 100.382 149.682 100.601C149.401 100.817 149.189 101.111 149.047 101.483C148.908 101.852 148.838 102.267 148.838 102.727C148.838 103.193 148.909 103.616 149.051 103.997C149.196 104.375 149.409 104.676 149.69 104.901C149.974 105.122 150.327 105.233 150.747 105.233ZM156.24 108.455C156.07 108.455 155.918 108.44 155.784 108.412C155.651 108.386 155.558 108.361 155.507 108.335L155.763 107.449C156.007 107.511 156.223 107.534 156.411 107.517C156.598 107.5 156.764 107.416 156.909 107.266C157.057 107.118 157.192 106.878 157.314 106.545L157.501 106.034L155.081 99.4545H156.172L157.979 104.67H158.047L159.854 99.4545H160.945L158.166 106.955C158.041 107.293 157.886 107.572 157.702 107.794C157.517 108.018 157.303 108.185 157.058 108.293C156.817 108.401 156.544 108.455 156.24 108.455ZM168.562 99.4545V100.307H165.033V99.4545H168.562ZM166.09 106V98.5511C166.09 98.1761 166.178 97.8636 166.354 97.6136C166.531 97.3636 166.759 97.1761 167.04 97.0511C167.322 96.9261 167.619 96.8636 167.931 96.8636C168.178 96.8636 168.38 96.8835 168.536 96.9233C168.692 96.9631 168.809 97 168.886 97.0341L168.596 97.9034C168.545 97.8864 168.474 97.8651 168.383 97.8395C168.295 97.8139 168.178 97.8011 168.033 97.8011C167.701 97.8011 167.461 97.8849 167.313 98.0526C167.168 98.2202 167.096 98.4659 167.096 98.7898V106H166.09ZM172.361 106.136C171.77 106.136 171.251 105.996 170.805 105.714C170.362 105.433 170.016 105.04 169.766 104.534C169.518 104.028 169.395 103.437 169.395 102.761C169.395 102.08 169.518 101.484 169.766 100.976C170.016 100.467 170.362 100.072 170.805 99.7912C171.251 99.5099 171.77 99.3693 172.361 99.3693C172.952 99.3693 173.469 99.5099 173.912 99.7912C174.358 100.072 174.705 100.467 174.952 100.976C175.202 101.484 175.327 102.08 175.327 102.761C175.327 103.437 175.202 104.028 174.952 104.534C174.705 105.04 174.358 105.433 173.912 105.714C173.469 105.996 172.952 106.136 172.361 106.136ZM172.361 105.233C172.81 105.233 173.179 105.118 173.469 104.888C173.759 104.658 173.973 104.355 174.112 103.98C174.251 103.605 174.321 103.199 174.321 102.761C174.321 102.324 174.251 101.916 174.112 101.538C173.973 101.161 173.759 100.855 173.469 100.622C173.179 100.389 172.81 100.273 172.361 100.273C171.912 100.273 171.543 100.389 171.253 100.622C170.963 100.855 170.749 101.161 170.609 101.538C170.47 101.916 170.401 102.324 170.401 102.761C170.401 103.199 170.47 103.605 170.609 103.98C170.749 104.355 170.963 104.658 171.253 104.888C171.543 105.118 171.912 105.233 172.361 105.233ZM176.862 106V99.4545H177.833V100.443H177.902C178.021 100.119 178.237 99.8565 178.549 99.6548C178.862 99.4531 179.214 99.3523 179.606 99.3523C179.68 99.3523 179.772 99.3537 179.883 99.3565C179.994 99.3594 180.078 99.3636 180.135 99.3693V100.392C180.1 100.384 180.022 100.371 179.9 100.354C179.781 100.334 179.654 100.324 179.521 100.324C179.203 100.324 178.919 100.391 178.669 100.524C178.422 100.655 178.225 100.837 178.081 101.07C177.939 101.3 177.868 101.562 177.868 101.858V106H176.862ZM184.702 106V99.4545H185.673V100.443H185.741C185.861 100.119 186.077 99.8565 186.389 99.6548C186.702 99.4531 187.054 99.3523 187.446 99.3523C187.52 99.3523 187.612 99.3537 187.723 99.3565C187.834 99.3594 187.918 99.3636 187.974 99.3693V100.392C187.94 100.384 187.862 100.371 187.74 100.354C187.621 100.334 187.494 100.324 187.361 100.324C187.043 100.324 186.759 100.391 186.509 100.524C186.261 100.655 186.065 100.837 185.92 101.07C185.778 101.3 185.707 101.562 185.707 101.858V106H184.702ZM191.712 106.136C191.081 106.136 190.537 105.997 190.08 105.719C189.625 105.438 189.274 105.045 189.027 104.543C188.783 104.037 188.661 103.449 188.661 102.778C188.661 102.108 188.783 101.517 189.027 101.006C189.274 100.491 189.618 100.091 190.058 99.804C190.501 99.5142 191.018 99.3693 191.609 99.3693C191.95 99.3693 192.287 99.4261 192.619 99.5398C192.952 99.6534 193.254 99.8381 193.527 100.094C193.8 100.347 194.017 100.682 194.179 101.099C194.341 101.517 194.422 102.031 194.422 102.642V103.068H189.376V102.199H193.399C193.399 101.83 193.325 101.5 193.178 101.21C193.033 100.92 192.825 100.692 192.555 100.524C192.288 100.357 191.973 100.273 191.609 100.273C191.209 100.273 190.862 100.372 190.57 100.571C190.28 100.767 190.057 101.023 189.901 101.338C189.744 101.653 189.666 101.991 189.666 102.352V102.932C189.666 103.426 189.751 103.845 189.922 104.189C190.095 104.53 190.335 104.79 190.642 104.969C190.949 105.145 191.305 105.233 191.712 105.233C191.976 105.233 192.214 105.196 192.428 105.122C192.643 105.045 192.83 104.932 192.986 104.781C193.142 104.628 193.263 104.437 193.348 104.21L194.32 104.483C194.217 104.812 194.045 105.102 193.804 105.352C193.563 105.599 193.264 105.793 192.909 105.932C192.554 106.068 192.155 106.136 191.712 106.136ZM201.105 99.4545L198.684 106H197.662L195.241 99.4545H196.332L198.139 104.67H198.207L200.014 99.4545H201.105ZM202.432 106V99.4545H203.438V106H202.432ZM202.944 98.3636C202.748 98.3636 202.578 98.2969 202.436 98.1634C202.297 98.0298 202.228 97.8693 202.228 97.6818C202.228 97.4943 202.297 97.3338 202.436 97.2003C202.578 97.0668 202.748 97 202.944 97C203.14 97 203.307 97.0668 203.446 97.2003C203.588 97.3338 203.659 97.4943 203.659 97.6818C203.659 97.8693 203.588 98.0298 203.446 98.1634C203.307 98.2969 203.14 98.3636 202.944 98.3636ZM208.024 106.136C207.393 106.136 206.849 105.997 206.392 105.719C205.938 105.438 205.587 105.045 205.339 104.543C205.095 104.037 204.973 103.449 204.973 102.778C204.973 102.108 205.095 101.517 205.339 101.006C205.587 100.491 205.93 100.091 206.371 99.804C206.814 99.5142 207.331 99.3693 207.922 99.3693C208.263 99.3693 208.599 99.4261 208.932 99.5398C209.264 99.6534 209.567 99.8381 209.839 100.094C210.112 100.347 210.33 100.682 210.491 101.099C210.653 101.517 210.734 102.031 210.734 102.642V103.068H205.689V102.199H209.712C209.712 101.83 209.638 101.5 209.49 101.21C209.345 100.92 209.138 100.692 208.868 100.524C208.601 100.357 208.286 100.273 207.922 100.273C207.521 100.273 207.175 100.372 206.882 100.571C206.592 100.767 206.369 101.023 206.213 101.338C206.057 101.653 205.979 101.991 205.979 102.352V102.932C205.979 103.426 206.064 103.845 206.234 104.189C206.408 104.53 206.648 104.79 206.955 104.969C207.261 105.145 207.618 105.233 208.024 105.233C208.288 105.233 208.527 105.196 208.74 105.122C208.956 105.045 209.142 104.932 209.298 104.781C209.455 104.628 209.575 104.437 209.661 104.21L210.632 104.483C210.53 104.812 210.358 105.102 210.116 105.352C209.875 105.599 209.577 105.793 209.222 105.932C208.866 106.068 208.467 106.136 208.024 106.136ZM213.747 106L211.753 99.4545H212.81L214.224 104.466H214.293L215.69 99.4545H216.764L218.145 104.449H218.213L219.628 99.4545H220.685L218.69 106H217.702L216.27 100.972H216.168L214.736 106H213.747ZM35.8352 115.455V116.307H32.3068V115.455H35.8352ZM33.3636 122V114.551C33.3636 114.176 33.4517 113.864 33.6278 113.614C33.804 113.364 34.0327 113.176 34.3139 113.051C34.5952 112.926 34.892 112.864 35.2045 112.864C35.4517 112.864 35.6534 112.884 35.8097 112.923C35.9659 112.963 36.0824 113 36.1591 113.034L35.8693 113.903C35.8182 113.886 35.7472 113.865 35.6562 113.839C35.5682 113.814 35.4517 113.801 35.3068 113.801C34.9744 113.801 34.7344 113.885 34.5866 114.053C34.4418 114.22 34.3693 114.466 34.3693 114.79V122H33.3636ZM37.2447 122V115.455H38.2163V116.443H38.2844C38.4038 116.119 38.6197 115.857 38.9322 115.655C39.2447 115.453 39.5969 115.352 39.989 115.352C40.0629 115.352 40.1552 115.354 40.266 115.357C40.3768 115.359 40.4606 115.364 40.5174 115.369V116.392C40.4833 116.384 40.4052 116.371 40.283 116.354C40.1637 116.334 40.0373 116.324 39.9038 116.324C39.5856 116.324 39.3015 116.391 39.0515 116.524C38.8043 116.655 38.6083 116.837 38.4634 117.07C38.3214 117.3 38.2504 117.562 38.2504 117.858V122H37.2447ZM44.1694 122.136C43.5785 122.136 43.06 121.996 42.614 121.714C42.1708 121.433 41.8242 121.04 41.5742 120.534C41.3271 120.028 41.2035 119.437 41.2035 118.761C41.2035 118.08 41.3271 117.484 41.5742 116.976C41.8242 116.467 42.1708 116.072 42.614 115.791C43.06 115.51 43.5785 115.369 44.1694 115.369C44.7603 115.369 45.2773 115.51 45.7205 115.791C46.1665 116.072 46.5131 116.467 46.7603 116.976C47.0103 117.484 47.1353 118.08 47.1353 118.761C47.1353 119.437 47.0103 120.028 46.7603 120.534C46.5131 121.04 46.1665 121.433 45.7205 121.714C45.2773 121.996 44.7603 122.136 44.1694 122.136ZM44.1694 121.233C44.6183 121.233 44.9876 121.118 45.2773 120.888C45.5671 120.658 45.7816 120.355 45.9208 119.98C46.06 119.605 46.1296 119.199 46.1296 118.761C46.1296 118.324 46.06 117.916 45.9208 117.538C45.7816 117.161 45.5671 116.855 45.2773 116.622C44.9876 116.389 44.6183 116.273 44.1694 116.273C43.7205 116.273 43.3512 116.389 43.0614 116.622C42.7717 116.855 42.5572 117.161 42.418 117.538C42.2788 117.916 42.2092 118.324 42.2092 118.761C42.2092 119.199 42.2788 119.605 42.418 119.98C42.5572 120.355 42.7717 120.658 43.0614 120.888C43.3512 121.118 43.7205 121.233 44.1694 121.233ZM48.6705 122V115.455H49.642V116.477H49.7273C49.8636 116.128 50.0838 115.857 50.3878 115.663C50.6918 115.467 51.0568 115.369 51.483 115.369C51.9148 115.369 52.2741 115.467 52.5611 115.663C52.8509 115.857 53.0767 116.128 53.2386 116.477H53.3068C53.4744 116.139 53.7259 115.871 54.0611 115.672C54.3963 115.47 54.7983 115.369 55.267 115.369C55.8523 115.369 56.331 115.553 56.7031 115.919C57.0753 116.283 57.2614 116.849 57.2614 117.619V122H56.2557V117.619C56.2557 117.136 56.1236 116.791 55.8594 116.584C55.5952 116.376 55.2841 116.273 54.9261 116.273C54.4659 116.273 54.1094 116.412 53.8565 116.69C53.6037 116.966 53.4773 117.315 53.4773 117.739V122H52.4545V117.517C52.4545 117.145 52.3338 116.845 52.0923 116.618C51.8509 116.388 51.5398 116.273 51.1591 116.273C50.8977 116.273 50.6534 116.342 50.4261 116.482C50.2017 116.621 50.0199 116.814 49.8807 117.061C49.7443 117.305 49.6761 117.588 49.6761 117.909V122H48.6705ZM63.1229 124.455C62.9524 124.455 62.8004 124.44 62.6669 124.412C62.5334 124.386 62.4411 124.361 62.3899 124.335L62.6456 123.449C62.8899 123.511 63.1058 123.534 63.2933 123.517C63.4808 123.5 63.647 123.416 63.7919 123.266C63.9396 123.118 64.0746 122.878 64.1967 122.545L64.3842 122.034L61.9638 115.455H63.0547L64.8615 120.67H64.9297L66.7365 115.455H67.8274L65.049 122.955C64.924 123.293 64.7692 123.572 64.5845 123.794C64.3999 124.018 64.1854 124.185 63.9411 124.293C63.6996 124.401 63.4268 124.455 63.1229 124.455ZM71.5795 122.136C70.9886 122.136 70.4702 121.996 70.0241 121.714C69.581 121.433 69.2344 121.04 68.9844 120.534C68.7372 120.028 68.6136 119.437 68.6136 118.761C68.6136 118.08 68.7372 117.484 68.9844 116.976C69.2344 116.467 69.581 116.072 70.0241 115.791C70.4702 115.51 70.9886 115.369 71.5795 115.369C72.1705 115.369 72.6875 115.51 73.1307 115.791C73.5767 116.072 73.9233 116.467 74.1705 116.976C74.4205 117.484 74.5455 118.08 74.5455 118.761C74.5455 119.437 74.4205 120.028 74.1705 120.534C73.9233 121.04 73.5767 121.433 73.1307 121.714C72.6875 121.996 72.1705 122.136 71.5795 122.136ZM71.5795 121.233C72.0284 121.233 72.3977 121.118 72.6875 120.888C72.9773 120.658 73.1918 120.355 73.331 119.98C73.4702 119.605 73.5398 119.199 73.5398 118.761C73.5398 118.324 73.4702 117.916 73.331 117.538C73.1918 117.161 72.9773 116.855 72.6875 116.622C72.3977 116.389 72.0284 116.273 71.5795 116.273C71.1307 116.273 70.7614 116.389 70.4716 116.622C70.1818 116.855 69.9673 117.161 69.8281 117.538C69.6889 117.916 69.6193 118.324 69.6193 118.761C69.6193 119.199 69.6889 119.605 69.8281 119.98C69.9673 120.355 70.1818 120.658 70.4716 120.888C70.7614 121.118 71.1307 121.233 71.5795 121.233ZM80.2056 119.324V115.455H81.2113V122H80.2056V120.892H80.1374C79.984 121.224 79.7454 121.507 79.4215 121.74C79.0977 121.97 78.6886 122.085 78.1942 122.085C77.7852 122.085 77.4215 121.996 77.1033 121.817C76.7852 121.635 76.5352 121.362 76.3533 120.999C76.1715 120.632 76.0806 120.17 76.0806 119.614V115.455H77.0863V119.545C77.0863 120.023 77.2198 120.403 77.4869 120.688C77.7567 120.972 78.1005 121.114 78.5181 121.114C78.7681 121.114 79.0224 121.05 79.2809 120.922C79.5423 120.794 79.761 120.598 79.9371 120.334C80.1161 120.07 80.2056 119.733 80.2056 119.324ZM83.0533 122V115.455H84.0249V116.443H84.093C84.2124 116.119 84.4283 115.857 84.7408 115.655C85.0533 115.453 85.4055 115.352 85.7976 115.352C85.8714 115.352 85.9638 115.354 86.0746 115.357C86.1854 115.359 86.2692 115.364 86.326 115.369V116.392C86.2919 116.384 86.2138 116.371 86.0916 116.354C85.9723 116.334 85.8459 116.324 85.7124 116.324C85.3942 116.324 85.1101 116.391 84.8601 116.524C84.6129 116.655 84.4169 116.837 84.272 117.07C84.13 117.3 84.0589 117.562 84.0589 117.858V122H83.0533ZM90.8931 122V115.455H91.8647V116.443H91.9329C92.0522 116.119 92.2681 115.857 92.5806 115.655C92.8931 115.453 93.2454 115.352 93.6374 115.352C93.7113 115.352 93.8036 115.354 93.9144 115.357C94.0252 115.359 94.109 115.364 94.1658 115.369V116.392C94.1317 116.384 94.0536 116.371 93.9315 116.354C93.8121 116.334 93.6857 116.324 93.5522 116.324C93.234 116.324 92.9499 116.391 92.6999 116.524C92.4528 116.655 92.2567 116.837 92.1119 117.07C91.9698 117.3 91.8988 117.562 91.8988 117.858V122H90.8931ZM97.9031 122.136C97.2724 122.136 96.7283 121.997 96.271 121.719C95.8164 121.438 95.4656 121.045 95.2184 120.543C94.9741 120.037 94.8519 119.449 94.8519 118.778C94.8519 118.108 94.9741 117.517 95.2184 117.006C95.4656 116.491 95.8093 116.091 96.2496 115.804C96.6928 115.514 97.2099 115.369 97.8008 115.369C98.1417 115.369 98.4783 115.426 98.8107 115.54C99.1431 115.653 99.4457 115.838 99.7184 116.094C99.9911 116.347 100.208 116.682 100.37 117.099C100.532 117.517 100.613 118.031 100.613 118.642V119.068H95.5678V118.199H99.5906C99.5906 117.83 99.5167 117.5 99.369 117.21C99.2241 116.92 99.0167 116.692 98.7468 116.524C98.4798 116.357 98.1644 116.273 97.8008 116.273C97.4002 116.273 97.0536 116.372 96.761 116.571C96.4712 116.767 96.2482 117.023 96.092 117.338C95.9357 117.653 95.8576 117.991 95.8576 118.352V118.932C95.8576 119.426 95.9428 119.845 96.1133 120.189C96.2866 120.53 96.5266 120.79 96.8335 120.969C97.1403 121.145 97.4968 121.233 97.9031 121.233C98.1673 121.233 98.4059 121.196 98.619 121.122C98.8349 121.045 99.021 120.932 99.1772 120.781C99.3335 120.628 99.4542 120.437 99.5394 120.21L100.511 120.483C100.409 120.812 100.237 121.102 99.9954 121.352C99.7539 121.599 99.4556 121.793 99.1005 121.932C98.7454 122.068 98.3462 122.136 97.9031 122.136ZM104.802 122.136C104.189 122.136 103.66 121.991 103.217 121.702C102.774 121.412 102.433 121.013 102.194 120.504C101.956 119.996 101.836 119.415 101.836 118.761C101.836 118.097 101.958 117.51 102.203 117.001C102.45 116.49 102.794 116.091 103.234 115.804C103.677 115.514 104.194 115.369 104.785 115.369C105.245 115.369 105.66 115.455 106.029 115.625C106.399 115.795 106.701 116.034 106.937 116.341C107.173 116.648 107.319 117.006 107.376 117.415H106.37C106.294 117.116 106.123 116.852 105.859 116.622C105.598 116.389 105.245 116.273 104.802 116.273C104.41 116.273 104.066 116.375 103.771 116.58C103.478 116.781 103.25 117.067 103.085 117.436C102.923 117.803 102.842 118.233 102.842 118.727C102.842 119.233 102.922 119.673 103.081 120.048C103.243 120.423 103.47 120.714 103.762 120.922C104.058 121.129 104.404 121.233 104.802 121.233C105.064 121.233 105.301 121.188 105.514 121.097C105.727 121.006 105.907 120.875 106.055 120.705C106.203 120.534 106.308 120.33 106.37 120.091H107.376C107.319 120.477 107.179 120.825 106.954 121.135C106.733 121.442 106.439 121.686 106.072 121.868C105.708 122.047 105.285 122.136 104.802 122.136ZM111.591 122.136C110.96 122.136 110.416 121.997 109.958 121.719C109.504 121.438 109.153 121.045 108.906 120.543C108.662 120.037 108.539 119.449 108.539 118.778C108.539 118.108 108.662 117.517 108.906 117.006C109.153 116.491 109.497 116.091 109.937 115.804C110.38 115.514 110.897 115.369 111.488 115.369C111.829 115.369 112.166 115.426 112.498 115.54C112.831 115.653 113.133 115.838 113.406 116.094C113.679 116.347 113.896 116.682 114.058 117.099C114.22 117.517 114.301 118.031 114.301 118.642V119.068H109.255V118.199H113.278C113.278 117.83 113.204 117.5 113.056 117.21C112.912 116.92 112.704 116.692 112.434 116.524C112.167 116.357 111.852 116.273 111.488 116.273C111.088 116.273 110.741 116.372 110.449 116.571C110.159 116.767 109.936 117.023 109.779 117.338C109.623 117.653 109.545 117.991 109.545 118.352V118.932C109.545 119.426 109.63 119.845 109.801 120.189C109.974 120.53 110.214 120.79 110.521 120.969C110.828 121.145 111.184 121.233 111.591 121.233C111.855 121.233 112.093 121.196 112.306 121.122C112.522 121.045 112.708 120.932 112.865 120.781C113.021 120.628 113.142 120.437 113.227 120.21L114.199 120.483C114.096 120.812 113.924 121.102 113.683 121.352C113.441 121.599 113.143 121.793 112.788 121.932C112.433 122.068 112.034 122.136 111.591 122.136ZM116.836 118.062V122H115.831V115.455H116.802V116.477H116.887C117.041 116.145 117.274 115.878 117.586 115.676C117.899 115.472 118.302 115.369 118.797 115.369C119.24 115.369 119.627 115.46 119.96 115.642C120.292 115.821 120.551 116.094 120.735 116.46C120.92 116.824 121.012 117.284 121.012 117.841V122H120.007V117.909C120.007 117.395 119.873 116.994 119.606 116.707C119.339 116.418 118.973 116.273 118.507 116.273C118.186 116.273 117.899 116.342 117.646 116.482C117.396 116.621 117.199 116.824 117.054 117.091C116.909 117.358 116.836 117.682 116.836 118.062ZM125.697 115.455V116.307H122.305V115.455H125.697ZM123.293 113.886H124.299V120.125C124.299 120.409 124.34 120.622 124.423 120.764C124.508 120.903 124.616 120.997 124.746 121.045C124.88 121.091 125.021 121.114 125.168 121.114C125.279 121.114 125.37 121.108 125.441 121.097C125.512 121.082 125.569 121.071 125.612 121.062L125.816 121.966C125.748 121.991 125.653 122.017 125.531 122.043C125.408 122.071 125.254 122.085 125.066 122.085C124.782 122.085 124.504 122.024 124.231 121.902C123.961 121.78 123.737 121.594 123.558 121.344C123.381 121.094 123.293 120.778 123.293 120.398V113.886ZM130.721 122V113.273H133.67C134.354 113.273 134.914 113.396 135.349 113.643C135.786 113.888 136.11 114.219 136.32 114.636C136.531 115.054 136.636 115.52 136.636 116.034C136.636 116.548 136.531 117.016 136.32 117.436C136.113 117.857 135.792 118.192 135.357 118.442C134.923 118.689 134.366 118.812 133.687 118.812H131.573V117.875H133.653C134.121 117.875 134.498 117.794 134.782 117.632C135.066 117.47 135.272 117.251 135.4 116.976C135.531 116.697 135.596 116.384 135.596 116.034C135.596 115.685 135.531 115.372 135.4 115.097C135.272 114.821 135.065 114.605 134.778 114.449C134.491 114.29 134.11 114.21 133.636 114.21H131.778V122H130.721ZM138.202 122V115.455H139.173V116.443H139.241C139.361 116.119 139.577 115.857 139.889 115.655C140.202 115.453 140.554 115.352 140.946 115.352C141.02 115.352 141.112 115.354 141.223 115.357C141.334 115.359 141.418 115.364 141.474 115.369V116.392C141.44 116.384 141.362 116.371 141.24 116.354C141.121 116.334 140.994 116.324 140.861 116.324C140.543 116.324 140.259 116.391 140.009 116.524C139.761 116.655 139.565 116.837 139.42 117.07C139.278 117.3 139.207 117.562 139.207 117.858V122H138.202ZM145.212 122.136C144.581 122.136 144.037 121.997 143.58 121.719C143.125 121.438 142.774 121.045 142.527 120.543C142.283 120.037 142.161 119.449 142.161 118.778C142.161 118.108 142.283 117.517 142.527 117.006C142.774 116.491 143.118 116.091 143.558 115.804C144.001 115.514 144.518 115.369 145.109 115.369C145.45 115.369 145.787 115.426 146.119 115.54C146.452 115.653 146.754 115.838 147.027 116.094C147.3 116.347 147.517 116.682 147.679 117.099C147.841 117.517 147.922 118.031 147.922 118.642V119.068H142.876V118.199H146.899C146.899 117.83 146.825 117.5 146.678 117.21C146.533 116.92 146.325 116.692 146.055 116.524C145.788 116.357 145.473 116.273 145.109 116.273C144.709 116.273 144.362 116.372 144.07 116.571C143.78 116.767 143.557 117.023 143.401 117.338C143.244 117.653 143.166 117.991 143.166 118.352V118.932C143.166 119.426 143.251 119.845 143.422 120.189C143.595 120.53 143.835 120.79 144.142 120.969C144.449 121.145 144.805 121.233 145.212 121.233C145.476 121.233 145.714 121.196 145.928 121.122C146.143 121.045 146.33 120.932 146.486 120.781C146.642 120.628 146.763 120.437 146.848 120.21L147.82 120.483C147.717 120.812 147.545 121.102 147.304 121.352C147.063 121.599 146.764 121.793 146.409 121.932C146.054 122.068 145.655 122.136 145.212 122.136ZM151.923 122.136C151.378 122.136 150.896 121.999 150.479 121.723C150.061 121.445 149.734 121.053 149.499 120.547C149.263 120.038 149.145 119.438 149.145 118.744C149.145 118.057 149.263 117.46 149.499 116.955C149.734 116.449 150.063 116.058 150.483 115.783C150.903 115.507 151.389 115.369 151.94 115.369C152.366 115.369 152.703 115.44 152.95 115.582C153.2 115.722 153.391 115.881 153.521 116.06C153.655 116.236 153.759 116.381 153.832 116.494H153.918V113.273H154.923V122H153.952V120.994H153.832C153.759 121.114 153.653 121.264 153.517 121.446C153.381 121.625 153.186 121.786 152.933 121.928C152.68 122.067 152.344 122.136 151.923 122.136ZM152.06 121.233C152.463 121.233 152.804 121.128 153.082 120.918C153.361 120.705 153.572 120.411 153.717 120.036C153.862 119.658 153.935 119.222 153.935 118.727C153.935 118.239 153.864 117.811 153.722 117.445C153.58 117.075 153.369 116.788 153.091 116.584C152.813 116.376 152.469 116.273 152.06 116.273C151.634 116.273 151.278 116.382 150.994 116.601C150.713 116.817 150.501 117.111 150.359 117.483C150.22 117.852 150.151 118.267 150.151 118.727C150.151 119.193 150.222 119.616 150.364 119.997C150.509 120.375 150.722 120.676 151.003 120.901C151.287 121.122 151.639 121.233 152.06 121.233ZM156.905 122V115.455H157.911V122H156.905ZM157.416 114.364C157.22 114.364 157.051 114.297 156.909 114.163C156.77 114.03 156.7 113.869 156.7 113.682C156.7 113.494 156.77 113.334 156.909 113.2C157.051 113.067 157.22 113 157.416 113C157.612 113 157.78 113.067 157.919 113.2C158.061 113.334 158.132 113.494 158.132 113.682C158.132 113.869 158.061 114.03 157.919 114.163C157.78 114.297 157.612 114.364 157.416 114.364ZM162.412 122.136C161.798 122.136 161.27 121.991 160.826 121.702C160.383 121.412 160.042 121.013 159.804 120.504C159.565 119.996 159.446 119.415 159.446 118.761C159.446 118.097 159.568 117.51 159.812 117.001C160.059 116.49 160.403 116.091 160.843 115.804C161.287 115.514 161.804 115.369 162.395 115.369C162.855 115.369 163.27 115.455 163.639 115.625C164.008 115.795 164.311 116.034 164.547 116.341C164.782 116.648 164.929 117.006 164.985 117.415H163.98C163.903 117.116 163.733 116.852 163.468 116.622C163.207 116.389 162.855 116.273 162.412 116.273C162.02 116.273 161.676 116.375 161.38 116.58C161.088 116.781 160.859 117.067 160.694 117.436C160.532 117.803 160.451 118.233 160.451 118.727C160.451 119.233 160.531 119.673 160.69 120.048C160.852 120.423 161.079 120.714 161.372 120.922C161.667 121.129 162.014 121.233 162.412 121.233C162.673 121.233 162.91 121.188 163.123 121.097C163.336 121.006 163.517 120.875 163.664 120.705C163.812 120.534 163.917 120.33 163.98 120.091H164.985C164.929 120.477 164.788 120.825 164.564 121.135C164.342 121.442 164.048 121.686 163.681 121.868C163.318 122.047 162.895 122.136 162.412 122.136ZM169.302 115.455V116.307H165.91V115.455H169.302ZM166.899 113.886H167.904V120.125C167.904 120.409 167.946 120.622 168.028 120.764C168.113 120.903 168.221 120.997 168.352 121.045C168.485 121.091 168.626 121.114 168.774 121.114C168.885 121.114 168.975 121.108 169.047 121.097C169.118 121.082 169.174 121.071 169.217 121.062L169.422 121.966C169.353 121.991 169.258 122.017 169.136 122.043C169.014 122.071 168.859 122.085 168.672 122.085C168.387 122.085 168.109 122.024 167.836 121.902C167.566 121.78 167.342 121.594 167.163 121.344C166.987 121.094 166.899 120.778 166.899 120.398V113.886ZM170.815 122V115.455H171.821V122H170.815ZM171.326 114.364C171.13 114.364 170.961 114.297 170.819 114.163C170.68 114.03 170.61 113.869 170.61 113.682C170.61 113.494 170.68 113.334 170.819 113.2C170.961 113.067 171.13 113 171.326 113C171.522 113 171.69 113.067 171.829 113.2C171.971 113.334 172.042 113.494 172.042 113.682C172.042 113.869 171.971 114.03 171.829 114.163C171.69 114.297 171.522 114.364 171.326 114.364ZM179.015 115.455L176.594 122H175.572L173.151 115.455H174.242L176.049 120.67H176.117L177.924 115.455H179.015ZM182.852 122.136C182.222 122.136 181.678 121.997 181.22 121.719C180.766 121.438 180.415 121.045 180.168 120.543C179.923 120.037 179.801 119.449 179.801 118.778C179.801 118.108 179.923 117.517 180.168 117.006C180.415 116.491 180.759 116.091 181.199 115.804C181.642 115.514 182.159 115.369 182.75 115.369C183.091 115.369 183.428 115.426 183.76 115.54C184.092 115.653 184.395 115.838 184.668 116.094C184.94 116.347 185.158 116.682 185.32 117.099C185.482 117.517 185.562 118.031 185.562 118.642V119.068H180.517V118.199H184.54C184.54 117.83 184.466 117.5 184.318 117.21C184.173 116.92 183.966 116.692 183.696 116.524C183.429 116.357 183.114 116.273 182.75 116.273C182.349 116.273 182.003 116.372 181.71 116.571C181.42 116.767 181.197 117.023 181.041 117.338C180.885 117.653 180.807 117.991 180.807 118.352V118.932C180.807 119.426 180.892 119.845 181.062 120.189C181.236 120.53 181.476 120.79 181.783 120.969C182.089 121.145 182.446 121.233 182.852 121.233C183.116 121.233 183.355 121.196 183.568 121.122C183.784 121.045 183.97 120.932 184.126 120.781C184.283 120.628 184.403 120.437 184.489 120.21L185.46 120.483C185.358 120.812 185.186 121.102 184.945 121.352C184.703 121.599 184.405 121.793 184.05 121.932C183.695 122.068 183.295 122.136 182.852 122.136ZM33.4148 138H32.3068L35.5114 129.273H36.6023L39.8068 138H38.6989L36.0909 130.653H36.0227L33.4148 138ZM33.8239 134.591H38.2898V135.528H33.8239V134.591ZM42.0355 134.062V138H41.0298V131.455H42.0014V132.477H42.0866C42.2401 132.145 42.473 131.878 42.7855 131.676C43.098 131.472 43.5014 131.369 43.9957 131.369C44.4389 131.369 44.8267 131.46 45.1591 131.642C45.4915 131.821 45.75 132.094 45.9347 132.46C46.1193 132.824 46.2116 133.284 46.2116 133.841V138H45.206V133.909C45.206 133.395 45.0724 132.994 44.8054 132.707C44.5384 132.418 44.1719 132.273 43.706 132.273C43.3849 132.273 43.098 132.342 42.8452 132.482C42.5952 132.621 42.3977 132.824 42.2528 133.091C42.108 133.358 42.0355 133.682 42.0355 134.062ZM49.9755 138.153C49.5607 138.153 49.1843 138.075 48.8462 137.919C48.5082 137.76 48.2397 137.531 48.0408 137.233C47.842 136.932 47.7425 136.568 47.7425 136.142C47.7425 135.767 47.8164 135.463 47.9641 135.23C48.1119 134.994 48.3093 134.81 48.5565 134.676C48.8036 134.543 49.0763 134.443 49.3746 134.378C49.6758 134.31 49.9783 134.256 50.2823 134.216C50.68 134.165 51.0025 134.126 51.2496 134.101C51.4996 134.072 51.6815 134.026 51.7951 133.96C51.9116 133.895 51.9698 133.781 51.9698 133.619V133.585C51.9698 133.165 51.8548 132.838 51.6246 132.605C51.3974 132.372 51.0522 132.256 50.5891 132.256C50.109 132.256 49.7326 132.361 49.4599 132.571C49.1871 132.781 48.9954 133.006 48.8846 133.244L47.93 132.903C48.1005 132.506 48.3278 132.196 48.6119 131.974C48.8988 131.75 49.2113 131.594 49.5494 131.506C49.8903 131.415 50.2255 131.369 50.555 131.369C50.7653 131.369 51.0067 131.395 51.2795 131.446C51.555 131.494 51.8207 131.595 52.0763 131.749C52.3349 131.902 52.5494 132.134 52.7198 132.443C52.8903 132.753 52.9755 133.168 52.9755 133.688V138H51.9698V137.114H51.9187C51.8505 137.256 51.7369 137.408 51.5778 137.57C51.4187 137.732 51.207 137.869 50.9428 137.983C50.6786 138.097 50.3562 138.153 49.9755 138.153ZM50.1289 137.25C50.5266 137.25 50.8619 137.172 51.1346 137.016C51.4102 136.859 51.6175 136.658 51.7567 136.411C51.8988 136.163 51.9698 135.903 51.9698 135.631V134.71C51.9272 134.761 51.8335 134.808 51.6886 134.851C51.5465 134.891 51.3817 134.926 51.1942 134.957C51.0096 134.986 50.8292 135.011 50.6531 135.034C50.4798 135.054 50.3391 135.071 50.2312 135.085C49.9698 135.119 49.7255 135.175 49.4982 135.251C49.2738 135.325 49.092 135.437 48.9528 135.588C48.8164 135.736 48.7482 135.937 48.7482 136.193C48.7482 136.543 48.8775 136.807 49.136 136.986C49.3974 137.162 49.7283 137.25 50.1289 137.25ZM55.8168 129.273V138H54.8111V129.273H55.8168ZM58.3065 140.455C58.136 140.455 57.984 140.44 57.8505 140.412C57.717 140.386 57.6246 140.361 57.5735 140.335L57.8292 139.449C58.0735 139.511 58.2894 139.534 58.4769 139.517C58.6644 139.5 58.8306 139.416 58.9755 139.266C59.1232 139.118 59.2582 138.878 59.3803 138.545L59.5678 138.034L57.1474 131.455H58.2383L60.0451 136.67H60.1133L61.9201 131.455H63.011L60.2326 138.955C60.1076 139.293 59.9528 139.572 59.7681 139.794C59.5835 140.018 59.369 140.185 59.1246 140.293C58.8832 140.401 58.6104 140.455 58.3065 140.455ZM67.185 131.455V132.307H63.793V131.455H67.185ZM64.7816 129.886H65.7873V136.125C65.7873 136.409 65.8285 136.622 65.9109 136.764C65.9961 136.903 66.104 136.997 66.2347 137.045C66.3683 137.091 66.5089 137.114 66.6566 137.114C66.7674 137.114 66.8583 137.108 66.9293 137.097C67.0004 137.082 67.0572 137.071 67.0998 137.062L67.3043 137.966C67.2362 137.991 67.141 138.017 67.0188 138.043C66.8967 138.071 66.7418 138.085 66.5543 138.085C66.2702 138.085 65.9918 138.024 65.7191 137.902C65.4492 137.78 65.2248 137.594 65.0458 137.344C64.8697 137.094 64.7816 136.778 64.7816 136.398V129.886ZM68.6978 138V131.455H69.7035V138H68.6978ZM69.2092 130.364C69.0131 130.364 68.8441 130.297 68.7021 130.163C68.5629 130.03 68.4933 129.869 68.4933 129.682C68.4933 129.494 68.5629 129.334 68.7021 129.2C68.8441 129.067 69.0131 129 69.2092 129C69.4052 129 69.5728 129.067 69.712 129.2C69.854 129.334 69.9251 129.494 69.9251 129.682C69.9251 129.869 69.854 130.03 69.712 130.163C69.5728 130.297 69.4052 130.364 69.2092 130.364ZM74.2045 138.136C73.5909 138.136 73.0625 137.991 72.6193 137.702C72.1761 137.412 71.8352 137.013 71.5966 136.504C71.358 135.996 71.2386 135.415 71.2386 134.761C71.2386 134.097 71.3608 133.51 71.6051 133.001C71.8523 132.49 72.196 132.091 72.6364 131.804C73.0795 131.514 73.5966 131.369 74.1875 131.369C74.6477 131.369 75.0625 131.455 75.4318 131.625C75.8011 131.795 76.1037 132.034 76.3395 132.341C76.5753 132.648 76.7216 133.006 76.7784 133.415H75.7727C75.696 133.116 75.5256 132.852 75.2614 132.622C75 132.389 74.6477 132.273 74.2045 132.273C73.8125 132.273 73.4688 132.375 73.1733 132.58C72.8807 132.781 72.652 133.067 72.4872 133.436C72.3253 133.803 72.2443 134.233 72.2443 134.727C72.2443 135.233 72.3239 135.673 72.483 136.048C72.6449 136.423 72.8722 136.714 73.1648 136.922C73.4602 137.129 73.8068 137.233 74.2045 137.233C74.4659 137.233 74.7031 137.188 74.9162 137.097C75.1293 137.006 75.3097 136.875 75.4574 136.705C75.6051 136.534 75.7102 136.33 75.7727 136.091H76.7784C76.7216 136.477 76.581 136.825 76.3565 137.135C76.1349 137.442 75.8409 137.686 75.4744 137.868C75.1108 138.047 74.6875 138.136 74.2045 138.136ZM82.8849 132.92L81.9815 133.176C81.9247 133.026 81.8409 132.879 81.7301 132.737C81.6222 132.592 81.4744 132.473 81.2869 132.379C81.0994 132.286 80.8594 132.239 80.5668 132.239C80.1662 132.239 79.8324 132.331 79.5653 132.516C79.3011 132.697 79.169 132.929 79.169 133.21C79.169 133.46 79.2599 133.658 79.4418 133.803C79.6236 133.947 79.9077 134.068 80.294 134.165L81.2656 134.403C81.8509 134.545 82.2869 134.763 82.5739 135.055C82.8608 135.345 83.0043 135.719 83.0043 136.176C83.0043 136.551 82.8963 136.886 82.6804 137.182C82.4673 137.477 82.169 137.71 81.7855 137.881C81.402 138.051 80.956 138.136 80.4474 138.136C79.7798 138.136 79.2273 137.991 78.7898 137.702C78.3523 137.412 78.0753 136.989 77.9588 136.432L78.9134 136.193C79.0043 136.545 79.1761 136.81 79.429 136.986C79.6847 137.162 80.0185 137.25 80.4304 137.25C80.8991 137.25 81.2713 137.151 81.5469 136.952C81.8253 136.75 81.9645 136.509 81.9645 136.227C81.9645 136 81.8849 135.81 81.7259 135.656C81.5668 135.5 81.3224 135.384 80.9929 135.307L79.902 135.051C79.3026 134.909 78.8622 134.689 78.581 134.391C78.3026 134.089 78.1634 133.713 78.1634 133.261C78.1634 132.892 78.267 132.565 78.4744 132.281C78.6847 131.997 78.9702 131.774 79.331 131.612C79.6946 131.45 80.1065 131.369 80.5668 131.369C81.2145 131.369 81.723 131.511 82.0923 131.795C82.4645 132.08 82.7287 132.455 82.8849 132.92ZM88.8988 129.273V138H87.8931V129.273H88.8988ZM93.4851 138.136C92.8544 138.136 92.3104 137.997 91.853 137.719C91.3984 137.438 91.0476 137.045 90.8004 136.543C90.5561 136.037 90.4339 135.449 90.4339 134.778C90.4339 134.108 90.5561 133.517 90.8004 133.006C91.0476 132.491 91.3913 132.091 91.8317 131.804C92.2749 131.514 92.7919 131.369 93.3828 131.369C93.7237 131.369 94.0604 131.426 94.3928 131.54C94.7251 131.653 95.0277 131.838 95.3004 132.094C95.5732 132.347 95.7905 132.682 95.9524 133.099C96.1143 133.517 96.1953 134.031 96.1953 134.642V135.068H91.1499V134.199H95.1726C95.1726 133.83 95.0987 133.5 94.951 133.21C94.8061 132.92 94.5987 132.692 94.3288 132.524C94.0618 132.357 93.7464 132.273 93.3828 132.273C92.9822 132.273 92.6357 132.372 92.343 132.571C92.0533 132.767 91.8303 133.023 91.674 133.338C91.5178 133.653 91.4396 133.991 91.4396 134.352V134.932C91.4396 135.426 91.5249 135.845 91.6953 136.189C91.8686 136.53 92.1087 136.79 92.4155 136.969C92.7223 137.145 93.0788 137.233 93.4851 137.233C93.7493 137.233 93.9879 137.196 94.201 137.122C94.4169 137.045 94.603 136.932 94.7592 136.781C94.9155 136.628 95.0362 136.437 95.1214 136.21L96.093 136.483C95.9908 136.812 95.8189 137.102 95.5774 137.352C95.3359 137.599 95.0376 137.793 94.6825 137.932C94.3274 138.068 93.9283 138.136 93.4851 138.136ZM100.384 138.136C99.7706 138.136 99.2422 137.991 98.799 137.702C98.3558 137.412 98.0149 137.013 97.7763 136.504C97.5376 135.996 97.4183 135.415 97.4183 134.761C97.4183 134.097 97.5405 133.51 97.7848 133.001C98.032 132.49 98.3757 132.091 98.8161 131.804C99.2592 131.514 99.7763 131.369 100.367 131.369C100.827 131.369 101.242 131.455 101.612 131.625C101.981 131.795 102.283 132.034 102.519 132.341C102.755 132.648 102.901 133.006 102.958 133.415H101.952C101.876 133.116 101.705 132.852 101.441 132.622C101.18 132.389 100.827 132.273 100.384 132.273C99.9922 132.273 99.6484 132.375 99.353 132.58C99.0604 132.781 98.8317 133.067 98.6669 133.436C98.505 133.803 98.424 134.233 98.424 134.727C98.424 135.233 98.5036 135.673 98.6626 136.048C98.8246 136.423 99.0518 136.714 99.3445 136.922C99.6399 137.129 99.9865 137.233 100.384 137.233C100.646 137.233 100.883 137.188 101.096 137.097C101.309 137.006 101.489 136.875 101.637 136.705C101.785 136.534 101.89 136.33 101.952 136.091H102.958C102.901 136.477 102.761 136.825 102.536 137.135C102.315 137.442 102.021 137.686 101.654 137.868C101.29 138.047 100.867 138.136 100.384 138.136ZM107.275 131.455V132.307H103.883V131.455H107.275ZM104.871 129.886H105.877V136.125C105.877 136.409 105.918 136.622 106.001 136.764C106.086 136.903 106.194 136.997 106.325 137.045C106.458 137.091 106.599 137.114 106.746 137.114C106.857 137.114 106.948 137.108 107.019 137.097C107.09 137.082 107.147 137.071 107.19 137.062L107.394 137.966C107.326 137.991 107.231 138.017 107.109 138.043C106.987 138.071 106.832 138.085 106.644 138.085C106.36 138.085 106.082 138.024 105.809 137.902C105.539 137.78 105.315 137.594 105.136 137.344C104.96 137.094 104.871 136.778 104.871 136.398V129.886ZM112.913 135.324V131.455H113.918V138H112.913V136.892H112.844C112.691 137.224 112.452 137.507 112.129 137.74C111.805 137.97 111.396 138.085 110.901 138.085C110.492 138.085 110.129 137.996 109.81 137.817C109.492 137.635 109.242 137.362 109.06 136.999C108.879 136.632 108.788 136.17 108.788 135.614V131.455H109.793V135.545C109.793 136.023 109.927 136.403 110.194 136.688C110.464 136.972 110.808 137.114 111.225 137.114C111.475 137.114 111.729 137.05 111.988 136.922C112.249 136.794 112.468 136.598 112.644 136.334C112.823 136.07 112.913 135.733 112.913 135.324ZM115.76 138V131.455H116.732V132.443H116.8C116.919 132.119 117.135 131.857 117.448 131.655C117.76 131.453 118.113 131.352 118.505 131.352C118.578 131.352 118.671 131.354 118.782 131.357C118.892 131.359 118.976 131.364 119.033 131.369V132.392C118.999 132.384 118.921 132.371 118.799 132.354C118.679 132.334 118.553 132.324 118.419 132.324C118.101 132.324 117.817 132.391 117.567 132.524C117.32 132.655 117.124 132.837 116.979 133.07C116.837 133.3 116.766 133.562 116.766 133.858V138H115.76ZM122.77 138.136C122.14 138.136 121.596 137.997 121.138 137.719C120.684 137.438 120.333 137.045 120.086 136.543C119.841 136.037 119.719 135.449 119.719 134.778C119.719 134.108 119.841 133.517 120.086 133.006C120.333 132.491 120.676 132.091 121.117 131.804C121.56 131.514 122.077 131.369 122.668 131.369C123.009 131.369 123.346 131.426 123.678 131.54C124.01 131.653 124.313 131.838 124.586 132.094C124.858 132.347 125.076 132.682 125.238 133.099C125.4 133.517 125.48 134.031 125.48 134.642V135.068H120.435V134.199H124.458C124.458 133.83 124.384 133.5 124.236 133.21C124.091 132.92 123.884 132.692 123.614 132.524C123.347 132.357 123.032 132.273 122.668 132.273C122.267 132.273 121.921 132.372 121.628 132.571C121.338 132.767 121.115 133.023 120.959 133.338C120.803 133.653 120.725 133.991 120.725 134.352V134.932C120.725 135.426 120.81 135.845 120.98 136.189C121.154 136.53 121.394 136.79 121.701 136.969C122.007 137.145 122.364 137.233 122.77 137.233C123.034 137.233 123.273 137.196 123.486 137.122C123.702 137.045 123.888 136.932 124.044 136.781C124.201 136.628 124.321 136.437 124.407 136.21L125.378 136.483C125.276 136.812 125.104 137.102 124.863 137.352C124.621 137.599 124.323 137.793 123.968 137.932C123.613 138.068 123.213 138.136 122.77 138.136ZM127.743 138.068C127.533 138.068 127.353 137.993 127.202 137.842C127.051 137.692 126.976 137.511 126.976 137.301C126.976 137.091 127.051 136.911 127.202 136.76C127.353 136.609 127.533 136.534 127.743 136.534C127.953 136.534 128.134 136.609 128.284 136.76C128.435 136.911 128.51 137.091 128.51 137.301C128.51 137.44 128.475 137.568 128.404 137.685C128.336 137.801 128.243 137.895 128.127 137.966C128.013 138.034 127.885 138.068 127.743 138.068Z" fill="#556071"/>
</svg>
