<svg width="14" height="14" viewBox="0 0 14 14" fill="none" xmlns="http://www.w3.org/2000/svg">
<path d="M6.44738 10.5H7.55262V7.55262H10.5V6.44738H7.55262V3.5H6.44738V6.44738H3.5V7.55262H6.44738V10.5ZM7.00123 14C6.03307 14 5.12304 13.8163 4.27114 13.4488C3.41925 13.0814 2.67822 12.5827 2.04805 11.9529C1.41788 11.323 0.918996 10.5823 0.551397 9.73075C0.183799 8.87923 0 7.96939 0 7.00123C0 6.03307 0.183718 5.12304 0.551153 4.27114C0.918588 3.41925 1.41725 2.67822 2.04714 2.04805C2.67703 1.41788 3.41773 0.918996 4.26925 0.551398C5.12076 0.183799 6.0306 0 6.99876 0C7.96693 0 8.87695 0.183718 9.72885 0.551153C10.5807 0.918588 11.3218 1.41725 11.9519 2.04714C12.5821 2.67703 13.081 3.41773 13.4486 4.26925C13.8162 5.12076 14 6.0306 14 6.99876C14 7.96693 13.8163 8.87695 13.4488 9.72885C13.0814 10.5807 12.5827 11.3218 11.9529 11.9519C11.323 12.5821 10.5823 13.081 9.73075 13.4486C8.87923 13.8162 7.96939 14 7.00123 14ZM7 12.8948C8.64562 12.8948 10.0395 12.3237 11.1816 11.1816C12.3237 10.0395 12.8948 8.64562 12.8948 7C12.8948 5.35438 12.3237 3.96051 11.1816 2.8184C10.0395 1.67629 8.64562 1.10524 7 1.10524C5.35438 1.10524 3.96051 1.67629 2.8184 2.8184C1.67629 3.96051 1.10524 5.35438 1.10524 7C1.10524 8.64562 1.67629 10.0395 2.8184 11.1816C3.96051 12.3237 5.35438 12.8948 7 12.8948Z" fill="#FAF7F6"/>
</svg>
