<svg width="32" height="32" viewBox="0 0 32 32" fill="none" xmlns="http://www.w3.org/2000/svg">
<rect width="32" height="32" rx="6" fill="#5F5E5E"/>
<path d="M12.9375 22.1833C12.5 22.1833 12.1233 22.0351 11.8073 21.7385C11.4913 21.442 11.3333 21.075 11.3333 20.6375V12.5C11.3333 12.1305 11.4476 11.8 11.676 11.5083C11.9045 11.2167 12.2035 11.0319 12.5729 10.9542L18.3333 9.81665V19.15L12.8062 20.2583C12.7187 20.2778 12.6458 20.3239 12.5875 20.3969C12.5292 20.4698 12.5 20.55 12.5 20.6375C12.5 20.7444 12.5437 20.8344 12.6312 20.9073C12.7187 20.9802 12.8208 21.0167 12.9375 21.0167H19.5V11.6833H20.6667V22.1833H12.9375ZM14.25 18.7854L17.1667 18.2167V11.2458L14.25 11.8146V18.7854ZM13.0833 19.0187V12.0479L12.8646 12.0917C12.7576 12.1111 12.6701 12.1573 12.6021 12.2302C12.534 12.3031 12.5 12.393 12.5 12.5V19.1646C12.5486 19.1451 12.5996 19.1281 12.6531 19.1135C12.7066 19.0989 12.7576 19.0868 12.8062 19.0771L13.0833 19.0187ZM12.5 12.1354V19.1646V12.1354Z" fill="#FAF7F6"/>
</svg>
