<svg width="48" height="64" viewBox="0 0 48 64" fill="none" xmlns="http://www.w3.org/2000/svg">
<rect width="48" height="48" rx="24" fill="#F3F4F1"/>
<path d="M23 31H25V26.825L26.6 28.425L28 27L24 23L20 27L21.425 28.4L23 26.825V31ZM18 34C17.45 34 16.9792 33.8042 16.5875 33.4125C16.1958 33.0208 16 32.55 16 32V16C16 15.45 16.1958 14.9792 16.5875 14.5875C16.9792 14.1958 17.45 14 18 14H26L32 20V32C32 32.55 31.8042 33.0208 31.4125 33.4125C31.0208 33.8042 30.55 34 30 34H18ZM25 21V16H18V32H30V21H25ZM18 16V21V16V21V32V16Z" fill="#5F5E5E"/>
</svg>
