<svg width="21" height="18" viewBox="0 0 21 18" fill="none" xmlns="http://www.w3.org/2000/svg">
<path d="M12.1 11L9.5 8.4L4.5 13.4L7.1 16L12.1 11ZM10.925 6.975L13.525 9.575L18.5 4.6L15.9 2L10.925 6.975ZM8.825 6.275L14.225 11.675L8.5 17.4C8.1 17.8 7.63333 18 7.1 18C6.56667 18 6.1 17.8 5.7 17.4L5.65 17.35L5 18H0L3.15 14.85L3.1 14.8C2.7 14.4 2.5 13.9333 2.5 13.4C2.5 12.8667 2.7 12.4 3.1 12L8.825 6.275ZM8.825 6.275L14.5 0.6C14.9 0.2 15.3667 0 15.9 0C16.4333 0 16.9 0.2 17.3 0.6L19.9 3.2C20.3 3.6 20.5 4.06667 20.5 4.6C20.5 5.13333 20.3 5.6 19.9 6L14.225 11.675L8.825 6.275Z" fill="#556071"/>
</svg>
